{"glyphs":{"0":{"ha":625,"x_min":7,"x_max":618,"o":"m 313 865 q 202 779 237 865 q 168 496 168 692 q 173 355 168 422 l 433 749 q 313 865 401 865 m 559 496 q 557 390 559 437 q 549 287 555 342 q 532 190 543 232 q 503 107 522 148 q 458 41 484 67 q 396 -1 433 15 q 313 -17 359 -17 q 128 106 191 -17 l 53 -7 l 7 107 l 88 228 q 66 496 66 335 q 68 588 66 547 q 76 680 70 629 q 93 769 82 730 q 122 846 103 808 q 166 910 141 884 q 229 951 192 935 q 313 966 267 966 q 501 850 439 966 l 576 964 l 618 845 l 542 729 q 559 496 559 641 m 455 599 l 197 210 q 313 85 232 85 q 394 122 363 85 q 441 251 425 160 q 458 496 458 342 q 455 599 458 557 z "},"1":{"ha":625,"x_min":163,"x_max":431,"o":"m 431 966 l 431 0 l 329 0 l 329 734 l 199 655 l 163 694 l 359 965 l 361 966 l 431 966 z "},"2":{"ha":625,"x_min":84,"x_max":564,"o":"m 307 966 l 319 966 q 553 776 553 966 l 553 749 q 531 654 553 720 q 481 549 510 589 l 259 233 q 195 102 215 172 l 564 102 l 564 0 l 95 0 l 95 127 q 138 227 115 182 q 172 288 161 271 l 399 609 q 439 688 428 650 q 451 749 451 727 l 451 776 q 418 846 451 827 q 319 865 385 865 l 307 865 q 223 846 249 865 q 178 781 197 827 l 84 821 q 164 929 114 892 q 307 966 214 966 z "},"3":{"ha":625,"x_min":73,"x_max":553,"o":"m 307 966 l 319 966 q 467 911 412 966 q 522 755 522 857 l 522 727 q 503 635 522 690 q 454 553 484 581 q 529 454 505 509 q 553 317 553 399 l 553 303 q 547 211 553 254 q 524 125 541 168 q 482 52 508 82 q 415 2 456 21 q 319 -17 373 -17 l 307 -17 q 194 8 246 -17 q 107 85 141 33 q 73 207 73 137 l 174 207 q 188 147 174 172 q 223 109 201 121 q 266 91 245 96 q 307 85 286 85 l 319 85 q 451 303 451 85 l 451 317 q 319 498 451 498 l 205 498 l 205 600 l 319 600 q 360 615 340 600 q 393 653 380 631 q 413 696 406 675 q 420 727 420 716 l 420 755 q 319 865 420 865 l 307 865 q 230 845 264 865 q 183 789 197 825 l 88 825 q 175 930 114 893 q 307 966 236 966 z "},"4":{"ha":625,"x_min":61,"x_max":563,"o":"m 405 718 l 198 340 l 405 340 l 405 718 m 61 303 l 425 966 l 507 966 l 507 340 l 563 340 l 563 239 l 507 239 l 507 0 l 405 0 l 405 239 l 61 239 l 61 303 z "},"5":{"ha":625,"x_min":57,"x_max":553,"o":"m 319 545 l 304 545 q 245 515 281 545 q 189 425 209 486 l 90 503 l 139 949 l 525 949 l 525 848 l 230 848 l 205 612 q 307 647 258 647 l 319 647 q 424 621 378 647 q 497 551 469 595 q 538 451 524 507 q 553 330 553 395 l 553 290 q 537 155 553 213 q 497 66 521 98 q 441 14 474 34 q 379 -11 408 -5 q 319 -17 351 -17 l 273 -17 q 147 24 209 -17 q 57 134 85 66 l 144 194 q 196 115 156 144 q 273 85 236 85 l 319 85 q 370 93 349 85 q 411 122 392 101 q 441 185 431 143 q 451 290 451 227 l 451 330 q 445 404 451 369 q 425 472 439 439 q 384 525 411 505 q 319 545 357 545 z "},"6":{"ha":625,"x_min":73,"x_max":553,"o":"m 174 330 l 174 290 q 180 218 174 252 q 200 154 186 185 q 241 103 214 122 q 307 85 269 85 l 319 85 q 384 103 357 85 q 425 152 411 121 q 445 216 439 182 q 451 290 451 250 l 451 330 q 417 496 451 446 q 319 545 382 545 l 307 545 q 241 525 269 545 q 200 472 214 505 q 180 404 186 439 q 174 330 174 369 m 307 647 l 319 647 q 369 642 345 647 q 420 625 393 637 q 471 590 448 613 q 513 533 494 566 q 542 447 532 499 q 553 330 553 395 l 553 290 q 491 66 553 149 q 319 -17 430 -17 l 307 -17 q 138 63 203 -17 q 73 290 73 144 l 73 661 q 138 881 73 795 q 307 966 202 966 l 319 966 q 453 941 399 966 q 533 855 507 916 l 439 816 q 401 853 429 842 q 319 865 374 865 l 307 865 q 242 844 269 865 q 201 790 214 823 q 181 724 187 756 q 174 661 174 692 l 174 602 q 307 647 229 647 z "},"7":{"ha":625,"x_min":61,"x_max":564,"o":"m 129 0 q 239 402 167 203 q 422 848 311 602 l 61 848 l 61 949 l 564 949 l 564 913 l 548 878 q 349 408 425 612 q 233 0 273 204 l 129 0 z "},"8":{"ha":625,"x_min":73,"x_max":553,"o":"m 306 600 l 319 600 q 392 631 364 600 q 420 701 420 662 l 420 749 q 393 836 420 808 q 319 865 366 865 l 307 865 q 236 833 267 865 q 205 750 205 802 l 205 699 q 210 676 205 691 q 226 644 216 662 q 258 613 237 626 q 306 600 279 600 m 522 749 l 522 701 q 506 620 522 660 q 460 552 489 579 q 553 290 553 475 l 553 254 q 533 137 553 190 q 480 52 513 85 q 406 1 448 18 q 319 -17 364 -17 l 307 -17 q 140 54 207 -17 q 73 254 73 125 l 73 290 q 172 553 73 469 q 124 620 145 577 q 103 701 103 662 l 103 750 q 159 908 103 850 q 307 966 216 966 l 319 966 q 397 955 362 966 q 461 920 433 944 q 506 852 490 895 q 522 749 522 809 m 319 498 l 306 498 q 241 479 269 498 q 200 428 214 460 q 180 362 186 396 q 174 290 174 328 l 174 254 q 210 128 174 171 q 307 85 246 85 l 319 85 q 416 129 382 85 q 451 254 451 173 l 451 290 q 417 451 451 404 q 319 498 383 498 z "},"9":{"ha":625,"x_min":73,"x_max":553,"o":"m 451 631 l 451 682 q 413 818 451 772 q 319 865 375 865 l 307 865 q 174 682 174 865 l 174 631 q 186 534 174 575 q 219 470 199 492 q 263 437 240 448 q 311 426 286 426 l 319 426 q 370 434 349 426 q 411 464 392 442 q 441 527 431 485 q 451 631 451 569 m 302 324 q 245 332 274 324 q 185 361 217 340 q 129 416 153 383 q 89 505 104 450 q 73 631 73 560 l 73 682 q 135 896 73 826 q 307 966 197 966 l 319 966 q 490 891 428 966 q 553 682 553 815 l 553 279 q 537 158 553 211 q 497 73 522 104 q 441 20 473 41 q 379 -9 409 -1 q 319 -17 349 -17 l 307 -17 q 173 8 227 -17 q 93 94 119 34 l 186 134 q 225 96 197 108 q 307 85 252 85 l 319 85 q 414 134 378 85 q 451 279 451 182 l 451 361 q 319 324 397 324 l 302 324 z "}," ":{"ha":625,"x_min":0,"x_max":0,"o":""},"!":{"ha":625,"x_min":211,"x_max":414,"o":"m 311 962 q 359 941 340 962 q 379 875 379 920 l 363 260 l 264 260 l 248 876 q 266 941 248 920 q 311 962 284 962 m 384 153 q 399 140 384 153 q 414 85 414 126 q 384 16 414 43 q 312 -11 353 -11 q 241 17 272 -11 q 211 85 211 45 q 240 152 211 123 q 312 180 270 180 q 384 153 353 180 z "},"\"":{"ha":625,"x_min":14,"x_max":612,"o":"m 109 679 q 58 646 90 646 q 26 660 39 646 q 14 696 14 673 q 18 718 14 704 l 71 934 q 102 977 77 960 q 157 994 127 994 q 212 968 191 994 q 233 910 233 943 q 222 870 233 887 l 109 679 m 488 679 q 439 646 469 646 q 406 660 420 646 q 393 696 393 673 q 396 718 393 701 l 449 934 q 481 977 456 960 q 536 994 507 994 q 591 968 570 994 q 612 910 612 943 q 601 870 612 888 l 488 679 z "},"#":{"ha":625,"x_min":14,"x_max":614,"o":"m 222 333 l 370 333 l 407 609 l 258 609 l 222 333 m 178 0 l 75 0 l 106 231 l 14 231 l 28 333 l 119 333 l 156 609 l 64 609 l 77 711 l 170 711 l 197 916 l 298 916 l 271 711 l 420 711 l 448 916 l 549 916 l 522 711 l 614 711 l 601 609 l 509 609 l 473 333 l 565 333 l 551 231 l 459 231 l 429 0 l 326 0 l 357 231 l 208 231 l 178 0 z "},"$":{"ha":625,"x_min":43,"x_max":566,"o":"m 262 597 l 262 857 q 200 809 222 844 q 178 721 178 774 l 178 701 q 195 650 178 676 q 240 608 211 623 l 262 597 m 363 431 l 363 92 q 436 145 407 107 q 465 229 465 183 l 465 249 q 363 431 465 380 m 363 -63 l 262 -63 l 262 -14 q 106 60 169 -1 q 43 220 43 120 l 145 220 q 178 132 145 165 q 262 90 211 100 l 262 483 l 194 517 q 109 595 142 545 q 77 701 77 646 l 77 721 q 128 884 77 821 q 262 962 180 947 l 262 1013 l 363 1013 l 363 964 q 564 721 564 939 l 462 721 q 461 753 462 741 q 455 785 460 765 q 440 819 450 806 q 411 844 431 831 q 363 861 391 856 l 363 545 l 419 517 q 530 407 494 479 q 566 249 566 335 l 566 229 q 507 72 566 140 q 363 -14 448 3 l 363 -63 z "},"%":{"ha":625,"x_min":12,"x_max":617,"o":"m 617 178 q 572 53 617 106 q 458 0 526 0 q 341 45 383 0 q 298 178 298 91 q 310 251 298 219 q 338 303 321 283 q 377 335 355 322 q 419 352 399 347 q 458 357 439 357 q 527 344 497 357 q 574 312 557 331 q 601 268 591 294 q 614 221 611 242 q 617 178 617 200 m 500 125 q 508 136 500 125 q 515 178 515 148 q 500 232 515 209 q 458 255 484 255 q 416 232 431 255 q 400 178 400 209 q 416 125 400 148 q 458 102 431 102 q 500 125 484 102 m 521 924 l 608 873 l 104 26 l 18 77 l 521 924 m 330 777 q 285 651 330 705 q 171 598 239 598 q 54 644 96 598 q 12 777 12 689 q 23 849 12 817 q 51 901 34 882 q 91 933 68 920 q 133 950 113 945 q 171 955 153 955 q 240 942 210 955 q 287 910 271 929 q 314 866 304 892 q 327 819 324 840 q 330 777 330 798 m 213 723 q 221 734 213 723 q 229 777 229 746 q 213 830 229 807 q 171 853 197 853 q 129 830 144 853 q 113 777 113 807 q 129 723 113 746 q 171 700 144 700 q 213 723 197 700 z "},"&":{"ha":625,"x_min":43,"x_max":612,"o":"m 420 155 l 266 448 l 217 399 q 161 325 176 359 q 145 249 145 290 l 145 229 q 187 122 145 159 q 291 85 229 85 l 303 85 q 420 155 382 85 m 473 56 q 303 -17 406 -17 l 291 -17 q 115 50 187 -17 q 43 229 43 117 l 43 249 q 141 467 43 372 l 216 541 q 132 773 132 680 l 132 788 q 150 864 132 815 q 203 938 169 912 q 307 966 247 966 l 319 966 q 452 916 401 966 q 503 785 503 865 l 503 758 q 480 679 503 721 q 420 600 458 637 l 341 522 l 468 282 l 516 417 l 612 383 l 532 160 l 601 31 l 511 -17 l 473 56 m 307 865 q 251 841 269 865 q 233 788 233 817 l 233 773 q 290 614 233 717 l 350 673 q 384 719 367 690 q 401 758 401 747 l 401 785 q 381 843 401 821 q 319 865 361 865 l 307 865 z "},"'":{"ha":625,"x_min":203,"x_max":422,"o":"m 298 679 q 248 646 279 646 q 216 660 229 646 q 203 696 203 673 q 206 718 203 709 l 260 934 q 292 977 266 960 q 346 994 317 994 q 401 968 380 994 q 422 910 422 943 q 412 870 422 887 l 298 679 z "},"(":{"ha":625,"x_min":186,"x_max":534,"o":"m 288 490 q 359 202 288 336 q 534 -14 429 68 l 470 -94 q 363 11 413 -49 q 274 145 314 71 q 210 308 233 219 q 186 490 186 397 q 271 818 186 665 q 475 1046 355 970 l 529 961 q 359 768 430 899 q 288 490 288 637 z "},")":{"ha":625,"x_min":92,"x_max":439,"o":"m 439 490 q 357 156 439 311 q 155 -94 276 1 l 92 -14 q 267 203 196 68 q 337 490 337 337 q 266 768 337 637 q 96 961 195 899 l 151 1046 q 355 818 271 970 q 439 490 439 665 z "},"*":{"ha":625,"x_min":26,"x_max":599,"o":"m 499 237 q 509 207 509 224 q 488 165 509 180 q 459 156 475 156 q 417 177 433 156 l 313 320 l 208 177 q 166 156 193 156 q 137 165 151 156 q 117 207 117 180 q 126 237 117 224 l 231 380 l 62 435 q 36 453 46 439 q 26 484 26 467 q 29 499 26 492 q 48 525 34 515 q 77 534 62 534 q 93 532 85 534 l 262 477 l 262 654 q 277 690 262 675 q 313 705 292 705 q 349 690 334 705 q 363 654 363 675 l 363 477 l 532 532 q 548 534 540 534 q 577 525 564 534 q 596 499 591 515 q 599 484 599 492 q 589 453 599 467 q 564 435 579 439 l 395 380 l 499 237 z "},"+":{"ha":625,"x_min":34,"x_max":591,"o":"m 591 458 l 591 356 l 363 356 l 363 106 l 262 106 l 262 356 l 34 356 l 34 458 l 262 458 l 262 686 l 363 686 l 363 458 l 591 458 z "},",":{"ha":625,"x_min":199,"x_max":412,"o":"m 412 44 q 210 -214 412 -191 l 199 -176 q 265 -136 233 -164 q 297 -79 297 -109 q 274 -34 297 -41 q 228 -4 243 -25 q 213 44 213 18 q 241 113 213 84 q 312 142 269 142 q 383 114 355 142 q 412 44 412 85 z "},"-":{"ha":625,"x_min":34,"x_max":591,"o":"m 591 458 l 591 356 l 34 356 l 34 458 l 591 458 z "},".":{"ha":625,"x_min":213,"x_max":412,"o":"m 349 -27 l 347 -27 l 347 -19 l 346 -19 l 346 -28 l 349 -28 l 349 -27 m 343 -27 l 342 -27 l 342 -23 l 343 -23 l 343 -27 m 301 -15 l 302 -15 l 302 -11 l 305 -11 l 305 -15 l 307 -15 l 307 -5 l 302 -5 l 301 -8 l 301 -15 m 303 -7 l 305 -7 l 305 -9 l 302 -9 l 302 -8 l 303 -7 m 311 -9 l 311 -15 l 312 -15 l 312 -9 l 311 -8 l 308 -8 l 308 -15 l 309 -15 l 309 -9 l 311 -9 m 316 -9 l 316 -15 l 317 -15 l 317 -9 l 317 -8 l 313 -8 l 313 -15 l 315 -15 l 315 -9 l 316 -9 m 320 -12 l 321 -12 l 321 -14 l 320 -14 l 320 -12 m 319 -15 l 323 -15 l 323 -9 l 322 -8 l 319 -8 l 319 -9 l 321 -9 l 321 -11 l 319 -11 l 319 -12 l 319 -14 l 319 -15 m 327 -23 l 327 -28 l 328 -28 l 328 -23 l 328 -22 l 326 -22 l 326 -19 l 324 -19 l 324 -28 l 326 -28 l 326 -23 l 327 -23 m 322 -23 l 319 -23 l 319 -20 l 323 -20 l 323 -19 l 318 -19 l 317 -20 l 317 -23 l 318 -24 l 321 -24 l 321 -27 l 317 -27 l 317 -28 l 322 -28 l 323 -27 l 323 -24 l 322 -23 m 332 -27 l 331 -27 l 331 -22 l 330 -22 l 330 -27 l 330 -28 l 334 -28 l 334 -22 l 332 -22 l 332 -27 m 336 -27 l 336 -23 l 338 -23 l 338 -27 l 336 -27 m 336 -22 l 335 -23 l 335 -27 l 336 -28 l 338 -28 l 338 -30 l 335 -30 l 335 -31 l 338 -31 l 339 -30 l 339 -22 l 336 -22 m 341 -22 l 340 -23 l 340 -27 l 341 -28 l 344 -28 l 345 -27 l 345 -23 l 344 -22 l 341 -22 m 383 110 q 397 95 383 110 q 412 40 412 81 q 384 -30 412 -1 q 312 -58 355 -58 q 241 -30 270 -58 q 213 40 213 -1 q 241 109 213 80 q 312 138 269 138 q 383 110 355 138 z "},"/":{"ha":625,"x_min":76,"x_max":549,"o":"m 454 985 l 549 949 l 171 -35 l 76 0 l 454 985 z "},":":{"ha":625,"x_min":213,"x_max":412,"o":"m 349 555 l 347 555 l 347 563 l 346 563 l 346 553 l 349 553 l 349 555 m 343 555 l 342 555 l 342 559 l 343 559 l 343 555 m 301 567 l 302 567 l 302 571 l 305 571 l 305 567 l 307 567 l 307 576 l 302 576 l 301 574 l 301 567 m 303 575 l 305 575 l 305 572 l 302 572 l 302 574 l 303 575 m 311 572 l 311 567 l 312 567 l 312 572 l 311 574 l 308 574 l 308 567 l 309 567 l 309 572 l 311 572 m 316 572 l 316 567 l 317 567 l 317 572 l 317 574 l 313 574 l 313 567 l 315 567 l 315 572 l 316 572 m 320 570 l 321 570 l 321 568 l 320 568 l 320 570 m 319 567 l 323 567 l 323 572 l 322 574 l 319 574 l 319 572 l 321 572 l 321 571 l 319 571 l 319 570 l 319 568 l 319 567 m 327 559 l 327 553 l 328 553 l 328 559 l 328 560 l 326 560 l 326 563 l 324 563 l 324 553 l 326 553 l 326 559 l 327 559 m 322 559 l 319 559 l 319 562 l 323 562 l 323 563 l 318 563 l 317 562 l 317 559 l 318 557 l 321 557 l 321 555 l 317 555 l 317 553 l 322 553 l 323 555 l 323 557 l 322 559 m 332 555 l 331 555 l 331 560 l 330 560 l 330 555 l 330 553 l 334 553 l 334 560 l 332 560 l 332 555 m 336 555 l 336 559 l 338 559 l 338 555 l 336 555 m 336 560 l 335 559 l 335 555 l 336 553 l 338 553 l 338 552 l 335 552 l 335 551 l 338 551 l 339 552 l 339 560 l 336 560 m 341 560 l 340 559 l 340 555 l 341 553 l 344 553 l 345 555 l 345 559 l 344 560 l 341 560 m 383 691 q 397 677 383 691 q 412 622 412 663 q 384 552 412 581 q 312 524 355 524 q 241 552 270 524 q 213 622 213 581 q 241 691 213 662 q 312 720 269 720 q 383 691 355 720 m 349 68 l 347 68 l 347 76 l 346 76 l 346 66 l 349 66 l 349 68 m 343 68 l 342 68 l 342 72 l 343 72 l 343 68 m 301 80 l 302 80 l 302 84 l 305 84 l 305 80 l 307 80 l 307 90 l 302 90 l 301 87 l 301 80 m 303 88 l 305 88 l 305 85 l 302 85 l 302 87 l 303 88 m 311 85 l 311 80 l 312 80 l 312 85 l 311 87 l 308 87 l 308 80 l 309 80 l 309 85 l 311 85 m 316 85 l 316 80 l 317 80 l 317 85 l 317 87 l 313 87 l 313 80 l 315 80 l 315 85 l 316 85 m 320 83 l 321 83 l 321 81 l 320 81 l 320 83 m 319 80 l 323 80 l 323 85 l 322 87 l 319 87 l 319 85 l 321 85 l 321 84 l 319 84 l 319 83 l 319 81 l 319 80 m 327 72 l 327 66 l 328 66 l 328 72 l 328 73 l 326 73 l 326 76 l 324 76 l 324 66 l 326 66 l 326 72 l 327 72 m 322 72 l 319 72 l 319 75 l 323 75 l 323 76 l 318 76 l 317 75 l 317 72 l 318 71 l 321 71 l 321 68 l 317 68 l 317 66 l 322 66 l 323 68 l 323 71 l 322 72 m 332 68 l 331 68 l 331 73 l 330 73 l 330 68 l 330 66 l 334 66 l 334 73 l 332 73 l 332 68 m 336 68 l 336 72 l 338 72 l 338 68 l 336 68 m 336 73 l 335 72 l 335 68 l 336 66 l 338 66 l 338 65 l 335 65 l 335 64 l 338 64 l 339 65 l 339 73 l 336 73 m 341 73 l 340 72 l 340 68 l 341 66 l 344 66 l 345 68 l 345 72 l 344 73 l 341 73 m 383 204 q 397 190 383 204 q 412 135 412 176 q 384 65 412 94 q 312 37 355 37 q 241 65 270 37 q 213 135 213 94 q 241 204 213 175 q 312 233 269 233 q 383 204 355 233 z "},";":{"ha":625,"x_min":199,"x_max":412,"o":"m 349 515 l 347 515 l 347 524 l 346 524 l 346 514 l 349 514 l 349 515 m 343 515 l 342 515 l 342 519 l 343 519 l 343 515 m 301 528 l 302 528 l 302 532 l 305 532 l 305 528 l 307 528 l 307 537 l 302 537 l 301 534 l 301 528 m 303 536 l 305 536 l 305 533 l 302 533 l 302 534 l 303 536 m 311 533 l 311 528 l 312 528 l 312 533 l 311 534 l 308 534 l 308 528 l 309 528 l 309 533 l 311 533 m 316 533 l 316 528 l 317 528 l 317 533 l 317 534 l 313 534 l 313 528 l 315 528 l 315 533 l 316 533 m 320 530 l 321 530 l 321 529 l 320 529 l 320 530 m 319 528 l 323 528 l 323 533 l 322 534 l 319 534 l 319 533 l 321 533 l 321 532 l 319 532 l 319 530 l 319 529 l 319 528 m 327 519 l 327 514 l 328 514 l 328 519 l 328 521 l 326 521 l 326 524 l 324 524 l 324 514 l 326 514 l 326 519 l 327 519 m 322 519 l 319 519 l 319 522 l 323 522 l 323 524 l 318 524 l 317 522 l 317 519 l 318 518 l 321 518 l 321 515 l 317 515 l 317 514 l 322 514 l 323 515 l 323 518 l 322 519 m 332 515 l 331 515 l 331 521 l 330 521 l 330 515 l 330 514 l 334 514 l 334 521 l 332 521 l 332 515 m 336 515 l 336 519 l 338 519 l 338 515 l 336 515 m 336 521 l 335 519 l 335 515 l 336 514 l 338 514 l 338 513 l 335 513 l 335 511 l 338 511 l 339 513 l 339 521 l 336 521 m 341 521 l 340 519 l 340 515 l 341 514 l 344 514 l 345 515 l 345 519 l 344 521 l 341 521 m 383 652 q 397 638 383 652 q 412 583 412 623 q 384 513 412 542 q 312 484 355 484 q 241 513 270 484 q 213 583 213 542 q 241 652 213 623 q 312 681 269 681 q 383 652 355 681 m 412 44 q 210 -214 412 -191 l 199 -176 q 265 -136 233 -164 q 297 -79 297 -109 q 274 -34 297 -41 q 228 -4 243 -25 q 213 44 213 18 q 241 113 213 84 q 312 142 269 142 q 383 114 355 142 q 412 44 412 85 z "},"<":{"ha":625,"x_min":61,"x_max":564,"o":"m 61 431 l 564 846 l 564 713 l 191 407 l 564 100 l 564 -32 l 61 382 l 61 431 z "},"=":{"ha":625,"x_min":34,"x_max":591,"o":"m 591 622 l 591 520 l 34 520 l 34 622 l 591 622 m 591 322 l 591 220 l 34 220 l 34 322 l 591 322 z "},">":{"ha":625,"x_min":61,"x_max":564,"o":"m 61 846 l 564 431 l 564 382 l 61 -32 l 61 100 l 434 407 l 61 713 l 61 846 z "},"?":{"ha":625,"x_min":73,"x_max":553,"o":"m 262 326 q 321 488 262 414 l 410 598 q 451 694 451 648 l 451 743 q 445 787 451 766 q 425 825 439 807 q 384 854 411 844 q 319 865 357 865 l 307 865 q 205 829 235 865 q 174 742 175 794 l 73 743 q 136 905 73 844 q 307 966 199 966 l 319 966 q 490 904 427 966 q 553 743 553 842 l 553 694 q 489 534 553 616 l 401 425 q 363 326 363 377 l 363 258 l 262 258 l 262 326 m 398 6 q 374 -54 398 -28 q 313 -79 349 -79 q 252 -54 276 -79 q 227 6 227 -29 q 251 67 227 41 q 313 92 275 92 q 374 67 350 92 q 398 6 398 42 z "},"@":{"ha":625,"x_min":25,"x_max":580,"o":"m 414 346 q 460 368 445 346 q 478 433 475 389 l 478 628 l 414 628 q 366 593 384 628 q 348 498 348 559 q 348 445 348 463 q 351 407 349 427 q 357 377 353 386 q 369 359 361 368 q 387 348 376 351 q 414 346 398 346 m 246 498 q 255 582 246 543 q 281 655 263 621 q 334 710 300 690 q 414 730 368 730 l 478 730 q 466 785 477 761 q 439 824 456 809 q 401 848 423 839 q 358 861 380 858 q 313 865 336 865 q 221 829 260 865 q 164 734 183 793 q 136 617 144 676 q 127 496 127 557 q 178 200 127 315 q 313 85 230 85 q 365 86 344 85 q 417 97 387 87 q 466 124 448 106 l 538 52 q 442 -3 498 12 q 313 -17 387 -17 q 103 117 181 -17 q 25 496 25 251 q 32 629 25 567 q 59 755 39 692 q 111 864 79 819 q 194 938 142 909 q 313 966 245 966 q 505 902 433 966 q 580 730 577 837 l 580 231 l 478 231 l 478 259 q 414 244 448 244 q 246 498 246 244 z "},"A":{"ha":625,"x_min":60,"x_max":565,"o":"m 223 271 l 402 271 l 313 681 l 223 271 m 163 0 l 60 0 l 271 966 l 355 966 l 565 0 l 461 0 l 425 169 l 201 169 l 163 0 z "},"B":{"ha":625,"x_min":73,"x_max":553,"o":"m 285 949 q 325 949 309 949 q 368 944 340 948 q 413 932 395 940 q 453 910 431 925 q 488 873 475 895 q 510 818 500 852 q 519 743 519 785 l 519 694 q 469 541 519 593 q 553 336 553 478 l 553 235 q 494 63 553 125 q 319 0 435 0 l 73 0 l 73 949 l 285 949 m 451 235 l 451 336 q 443 410 451 380 q 417 455 435 439 q 376 477 399 471 q 319 483 353 483 l 174 483 l 174 102 l 319 102 q 420 134 390 102 q 451 235 451 166 m 417 743 q 391 829 417 810 q 285 848 366 848 l 174 848 l 174 585 l 285 585 q 391 608 364 585 q 417 694 417 631 l 417 743 z "},"C":{"ha":625,"x_min":66,"x_max":553,"o":"m 330 -17 l 309 -17 q 246 -7 276 -17 q 182 34 216 2 q 123 116 147 65 q 82 259 98 168 q 66 472 66 351 l 66 517 q 309 966 66 966 l 330 966 q 398 956 367 966 q 451 930 430 945 q 491 891 473 915 q 518 849 509 867 q 537 805 528 831 q 548 769 545 779 q 553 743 550 759 l 454 722 q 432 795 446 766 q 401 839 418 825 q 367 859 384 854 q 330 865 351 865 l 309 865 q 202 780 237 865 q 168 517 168 695 l 168 472 q 170 376 168 422 q 182 275 173 330 q 206 179 191 220 q 247 112 220 139 q 309 85 274 85 l 330 85 q 350 86 341 85 q 374 96 359 88 q 401 118 389 104 q 426 159 413 132 q 448 225 439 187 l 547 202 q 510 102 533 144 q 465 37 488 59 q 415 2 443 15 q 369 -14 387 -11 q 330 -17 350 -17 z "},"D":{"ha":625,"x_min":73,"x_max":559,"o":"m 559 526 l 559 455 q 551 305 559 373 q 528 191 543 237 q 493 110 514 145 q 451 54 473 75 q 405 21 430 34 q 358 4 379 8 q 313 0 336 0 l 73 0 l 73 949 l 313 949 q 404 933 363 949 q 470 886 444 917 q 515 817 496 855 q 543 728 533 779 q 556 630 552 678 q 559 526 559 583 m 313 848 l 174 848 l 174 102 l 313 102 q 366 117 342 102 q 405 160 390 132 q 431 220 420 187 q 448 296 442 254 q 455 375 453 338 q 458 455 458 413 l 458 526 q 441 717 458 646 q 393 818 425 789 q 313 848 362 848 z "},"E":{"ha":625,"x_min":73,"x_max":564,"o":"m 174 483 l 174 102 l 564 102 l 564 0 l 73 0 l 73 949 l 564 949 l 564 848 l 174 848 l 174 585 l 502 585 l 502 483 l 174 483 z "},"F":{"ha":625,"x_min":73,"x_max":564,"o":"m 174 483 l 174 52 l 73 52 l 73 949 l 564 949 l 564 848 l 174 848 l 174 585 l 502 585 l 502 483 l 174 483 z "},"G":{"ha":625,"x_min":66,"x_max":553,"o":"m 553 168 q 464 29 525 75 q 330 -17 403 -17 l 309 -17 q 246 -7 276 -17 q 182 34 216 2 q 123 116 147 65 q 82 259 98 168 q 66 472 66 351 l 66 517 q 309 966 66 966 l 330 966 q 398 956 367 966 q 451 930 430 945 q 491 891 473 915 q 518 849 509 867 q 537 805 528 831 q 548 769 545 779 q 553 743 550 759 l 454 722 q 432 795 446 766 q 401 839 418 825 q 367 859 384 854 q 330 865 351 865 l 309 865 q 202 780 237 865 q 168 517 168 695 l 168 472 q 170 376 168 422 q 182 275 173 330 q 206 179 191 220 q 247 112 220 139 q 309 85 274 85 l 330 85 q 405 112 373 85 q 451 182 437 140 l 451 368 l 342 368 l 342 469 l 553 469 l 553 168 z "},"H":{"ha":625,"x_min":73,"x_max":553,"o":"m 174 0 l 73 0 l 73 949 l 174 949 l 174 547 l 451 547 l 451 949 l 553 949 l 553 0 l 451 0 l 451 446 l 174 446 l 174 0 z "},"I":{"ha":625,"x_min":61,"x_max":564,"o":"m 564 949 l 564 848 l 363 848 l 363 102 l 564 102 l 564 0 l 61 0 l 61 102 l 262 102 l 262 848 l 61 848 l 61 949 l 564 949 z "},"J":{"ha":625,"x_min":51,"x_max":578,"o":"m 578 949 l 578 848 l 461 848 l 461 229 q 405 50 461 117 q 258 -17 349 -17 l 245 -17 q 178 -9 208 -17 q 127 14 147 -1 q 93 43 107 28 q 70 77 79 58 q 57 107 61 96 q 51 130 54 117 l 150 153 q 180 101 158 117 q 245 85 202 85 l 258 85 q 308 98 287 85 q 339 133 329 111 q 355 179 350 155 q 359 229 359 202 l 359 848 l 216 848 l 216 949 l 578 949 z "},"K":{"ha":625,"x_min":73,"x_max":575,"o":"m 73 0 l 73 949 l 175 949 l 175 510 l 444 949 l 564 949 l 315 545 l 575 0 l 462 0 l 252 441 l 175 316 l 175 0 l 73 0 z "},"L":{"ha":625,"x_min":73,"x_max":564,"o":"m 174 102 l 564 102 l 564 0 l 73 0 l 73 949 l 174 949 l 174 102 z "},"M":{"ha":625,"x_min":18,"x_max":608,"o":"m 18 0 l 86 949 l 190 949 l 313 451 l 435 949 l 539 949 l 608 0 l 505 0 l 460 626 l 341 143 l 284 143 l 165 626 l 120 0 l 18 0 z "},"N":{"ha":625,"x_min":73,"x_max":553,"o":"m 174 0 l 73 0 l 73 949 l 164 949 l 451 281 l 451 949 l 553 949 l 553 0 l 460 0 l 174 668 l 174 0 z "},"O":{"ha":625,"x_min":66,"x_max":559,"o":"m 559 519 l 559 472 q 543 259 559 351 q 503 117 527 168 q 444 34 478 66 q 380 -7 410 3 q 317 -17 350 -17 l 309 -17 q 246 -7 276 -17 q 182 34 216 2 q 123 116 147 65 q 82 259 98 168 q 66 472 66 351 l 66 517 q 309 966 66 966 l 317 966 q 559 519 559 966 m 317 865 l 309 865 q 202 780 237 865 q 168 517 168 695 l 168 472 q 170 376 168 422 q 182 275 173 330 q 206 179 191 220 q 247 112 220 139 q 309 85 274 85 l 317 85 q 379 112 352 85 q 420 180 406 140 q 444 275 435 220 q 455 376 452 330 q 458 472 458 422 l 458 519 q 423 780 458 696 q 317 865 389 865 z "},"P":{"ha":625,"x_min":73,"x_max":553,"o":"m 174 435 l 174 0 l 73 0 l 73 949 l 319 949 q 412 939 372 949 q 485 904 452 929 q 535 833 518 880 q 553 721 553 787 l 553 659 q 542 576 553 614 q 506 506 531 538 q 434 454 481 473 q 319 435 386 435 l 174 435 m 319 537 q 422 565 393 537 q 451 659 451 593 l 451 721 q 424 822 451 795 q 319 848 396 848 l 174 848 l 174 537 l 319 537 z "},"Q":{"ha":625,"x_min":66,"x_max":559,"o":"m 317 865 l 309 865 q 202 780 237 865 q 168 517 168 695 l 168 472 q 170 376 168 422 q 182 275 173 330 q 206 179 191 220 q 247 112 220 139 q 309 85 274 85 l 317 85 q 348 91 334 85 l 267 248 l 358 294 l 418 176 q 458 472 458 276 l 458 519 q 423 780 458 696 q 317 865 389 865 m 547 -75 l 458 -121 l 395 0 q 317 -17 357 -17 l 309 -17 q 246 -7 276 -17 q 182 34 216 2 q 123 116 147 65 q 82 259 98 168 q 66 472 66 351 l 66 517 q 309 966 66 966 l 317 966 q 559 519 559 966 l 559 472 q 474 68 559 190 l 547 -75 z "},"R":{"ha":625,"x_min":60,"x_max":583,"o":"m 319 537 q 431 568 400 537 q 463 660 463 600 l 463 721 q 432 820 463 792 q 319 848 401 848 l 162 848 l 162 537 l 319 537 m 60 0 l 60 949 l 319 949 q 395 943 361 949 q 461 922 429 937 q 516 881 494 906 q 551 815 538 855 q 564 721 564 774 l 564 660 q 556 590 564 623 q 528 526 547 557 q 473 472 509 494 q 387 441 437 450 l 583 0 l 471 0 l 278 435 l 162 435 l 162 0 l 60 0 z "},"S":{"ha":625,"x_min":43,"x_max":566,"o":"m 307 85 l 319 85 q 420 128 376 85 q 465 229 465 171 l 465 249 q 440 353 465 300 q 372 427 415 406 l 194 517 q 107 596 137 547 q 77 701 77 646 l 77 721 q 141 894 77 822 q 304 966 205 966 l 322 966 q 468 928 406 966 q 553 813 530 889 q 564 721 564 780 l 462 721 q 456 783 462 762 q 322 865 431 865 l 304 865 q 214 823 249 865 q 178 721 178 781 l 178 701 q 192 652 178 677 q 240 608 205 626 l 419 517 q 528 403 489 481 q 566 249 566 326 l 566 229 q 492 56 566 128 q 319 -17 417 -17 l 307 -17 q 180 19 241 -17 q 81 116 119 56 q 43 242 43 176 l 145 242 q 197 134 145 184 q 307 85 248 85 z "},"T":{"ha":625,"x_min":47,"x_max":578,"o":"m 578 949 l 578 848 l 363 848 l 363 0 l 262 0 l 262 848 l 47 848 l 47 949 l 578 949 z "},"U":{"ha":625,"x_min":73,"x_max":553,"o":"m 174 229 q 209 118 174 151 q 307 85 243 85 l 319 85 q 417 118 382 85 q 451 229 451 151 l 451 949 l 553 949 l 553 229 q 491 47 553 112 q 319 -17 429 -17 l 307 -17 q 135 47 197 -17 q 73 229 73 111 l 73 949 l 174 949 l 174 229 z "},"V":{"ha":625,"x_min":58,"x_max":568,"o":"m 265 -17 l 58 949 l 162 949 l 313 245 l 465 949 l 568 949 l 360 -17 l 265 -17 z "},"W":{"ha":625,"x_min":18,"x_max":608,"o":"m 86 0 l 18 949 l 120 949 l 165 324 l 284 807 l 341 807 l 460 324 l 505 949 l 608 949 l 539 0 l 435 0 l 313 499 l 190 0 l 86 0 z "},"X":{"ha":625,"x_min":64,"x_max":562,"o":"m 64 0 l 258 475 l 64 949 l 173 949 l 313 608 l 452 949 l 562 949 l 367 475 l 562 0 l 452 0 l 313 341 l 173 0 l 64 0 z "},"Y":{"ha":625,"x_min":61,"x_max":564,"o":"m 262 -17 l 262 340 l 61 949 l 168 949 l 313 510 l 458 949 l 564 949 l 364 340 l 363 -17 l 262 -17 z "},"Z":{"ha":625,"x_min":61,"x_max":564,"o":"m 61 848 l 61 949 l 564 949 l 564 855 l 180 102 l 564 102 l 564 0 l 61 0 l 61 95 l 446 848 l 61 848 z "},"[":{"ha":625,"x_min":186,"x_max":502,"o":"m 288 953 l 288 -3 l 502 -3 l 502 -105 l 186 -105 l 186 1055 l 502 1055 l 502 953 l 288 953 z "},"\\":{"ha":625,"x_min":76,"x_max":549,"o":"m 76 949 l 171 985 l 549 0 l 454 -35 l 76 949 z "},"]":{"ha":625,"x_min":123,"x_max":439,"o":"m 123 1055 l 439 1055 l 439 -105 l 123 -105 l 123 -3 l 337 -3 l 337 953 l 123 953 l 123 1055 z "},"^":{"ha":625,"x_min":81,"x_max":544,"o":"m 356 966 l 544 689 l 460 632 l 313 848 l 165 632 l 81 689 l 269 966 l 356 966 z "},"_":{"ha":625,"x_min":61,"x_max":564,"o":"m 564 -12 l 564 -113 l 61 -113 l 61 -12 l 564 -12 z "},"`":{"ha":625,"x_min":149,"x_max":476,"o":"m 465 745 q 476 715 476 732 q 460 680 476 696 q 425 663 444 663 q 394 675 409 663 l 180 842 q 149 909 149 867 q 171 968 149 945 q 228 990 191 990 q 296 959 271 990 l 465 745 z "},"a":{"ha":625,"x_min":73,"x_max":553,"o":"m 307 330 q 245 318 273 330 q 204 290 218 307 q 182 257 189 273 q 174 229 174 241 l 174 176 q 208 116 174 146 q 307 85 241 85 l 319 85 q 410 130 369 85 q 451 205 451 175 l 451 330 l 307 330 m 307 711 l 319 711 q 415 699 373 711 q 482 665 456 686 q 524 614 508 644 q 547 554 541 585 q 553 488 553 524 l 553 0 l 451 0 l 451 33 q 319 -17 392 -12 l 307 -17 q 209 0 254 -17 q 134 45 163 17 q 89 106 105 73 q 73 176 73 140 l 73 229 q 89 299 73 263 q 134 364 105 334 q 208 413 163 394 q 307 431 254 431 l 451 431 l 451 488 q 422 582 451 554 q 319 610 393 610 l 307 610 q 224 598 251 610 q 186 559 197 586 l 93 599 q 172 686 118 660 q 307 711 226 711 z "},"b":{"ha":625,"x_min":73,"x_max":553,"o":"m 174 290 q 213 141 174 198 q 307 85 252 85 l 319 85 q 384 103 357 85 q 425 152 411 121 q 445 216 439 182 q 451 290 451 250 l 451 405 q 445 478 451 444 q 425 543 439 511 q 384 592 411 574 q 319 610 357 610 l 307 610 q 241 592 269 610 q 200 543 214 574 q 180 478 186 511 q 174 405 174 444 l 174 290 m 307 711 l 319 711 q 449 670 395 711 q 528 561 503 629 q 553 405 553 493 l 553 290 q 491 66 553 149 q 319 -17 430 -17 l 307 -17 q 174 33 232 -17 l 174 0 l 73 0 l 73 949 l 174 949 l 174 669 q 307 711 229 711 z "},"c":{"ha":625,"x_min":73,"x_max":541,"o":"m 319 609 l 307 609 q 241 591 269 609 q 200 542 214 573 q 180 478 186 511 q 174 405 174 444 l 174 290 q 213 141 174 198 q 307 85 252 85 l 319 85 q 404 98 375 85 q 443 144 432 111 l 539 111 q 319 -17 496 -17 l 307 -17 q 139 69 206 -17 q 73 290 73 155 l 73 405 q 97 561 73 493 q 176 670 122 629 q 307 711 230 711 l 319 711 q 541 578 500 711 l 443 548 q 426 580 437 568 q 389 601 415 593 q 319 609 362 609 z "},"d":{"ha":625,"x_min":73,"x_max":553,"o":"m 174 405 l 174 290 q 213 141 174 198 q 307 85 252 85 l 319 85 q 384 103 357 85 q 425 152 411 121 q 445 216 439 182 q 451 290 451 250 l 451 405 q 445 478 451 444 q 425 543 439 511 q 384 592 411 574 q 319 610 357 610 l 307 610 q 241 592 269 610 q 200 543 214 574 q 180 478 186 511 q 174 405 174 444 m 307 711 l 319 711 q 451 669 396 711 l 451 949 l 553 949 l 553 0 l 451 0 l 451 25 q 319 -17 396 -17 l 307 -17 q 139 70 206 -17 q 73 290 73 156 l 73 405 q 97 561 73 493 q 176 670 122 629 q 307 711 230 711 z "},"e":{"ha":625,"x_min":73,"x_max":553,"o":"m 174 330 l 174 229 q 208 126 174 168 q 307 85 241 85 l 319 85 q 410 101 383 85 q 445 151 436 118 l 543 123 q 319 -17 505 -17 l 307 -17 q 135 55 198 -17 q 73 229 73 127 l 73 488 q 79 554 73 524 q 101 614 85 585 q 143 665 117 644 q 211 699 169 686 q 307 711 252 711 l 319 711 q 415 699 373 711 q 482 665 456 686 q 524 614 508 644 q 547 554 541 585 q 553 488 553 524 l 553 330 l 174 330 m 451 431 l 451 488 q 422 582 451 554 q 319 610 393 610 l 307 610 q 203 582 233 610 q 174 488 174 554 l 174 431 l 451 431 z "},"f":{"ha":625,"x_min":61,"x_max":553,"o":"m 451 804 q 430 846 451 828 q 380 865 409 865 l 368 865 q 315 845 334 865 q 296 803 296 825 l 296 631 l 502 631 l 502 530 l 296 530 l 296 0 l 195 0 l 195 530 l 61 530 l 61 631 l 195 631 l 195 803 q 198 837 195 819 q 213 879 201 854 q 242 921 224 903 q 293 953 260 940 q 368 966 326 966 l 380 966 q 473 941 429 966 q 538 869 517 916 q 553 804 553 839 l 451 804 z "},"g":{"ha":625,"x_min":73,"x_max":564,"o":"m 451 -59 q 443 -41 451 -52 q 420 -16 435 -29 q 378 6 406 -3 q 319 16 351 16 l 307 16 q 215 -9 256 16 q 174 -59 174 -34 l 174 -73 q 210 -131 174 -103 q 307 -159 246 -159 l 319 -159 q 407 -135 363 -159 q 451 -73 451 -112 l 451 -59 m 319 610 l 307 610 q 217 572 259 610 q 174 488 174 534 l 174 450 q 216 358 174 400 q 307 316 258 316 l 319 316 q 409 358 367 316 q 451 450 451 400 l 451 488 q 409 572 451 534 q 319 610 366 610 m 117 42 q 73 146 73 85 l 73 191 q 126 310 73 257 q 73 450 73 379 l 73 488 q 144 643 73 575 q 307 711 215 711 l 319 711 q 458 663 393 711 q 564 701 509 701 l 564 600 q 526 587 544 600 q 553 488 553 538 l 553 450 q 480 285 553 356 q 319 214 408 214 l 307 214 q 203 243 254 214 q 174 194 174 220 l 174 146 q 206 99 174 121 q 307 117 256 117 l 319 117 q 420 100 374 117 q 494 57 466 83 q 537 0 522 30 q 553 -59 553 -31 l 553 -73 q 482 -205 553 -149 q 319 -261 412 -261 l 307 -261 q 200 -242 248 -261 q 126 -195 153 -224 q 86 -134 100 -165 q 73 -73 73 -102 l 73 -59 q 117 42 73 -9 z "},"h":{"ha":625,"x_min":73,"x_max":553,"o":"m 174 0 l 73 0 l 73 949 l 174 949 l 174 649 q 307 711 235 711 l 319 711 q 415 699 373 711 q 482 665 456 686 q 524 614 508 644 q 547 554 541 585 q 553 488 553 524 l 553 0 l 451 0 l 451 488 q 422 582 451 554 q 319 610 393 610 l 307 610 q 242 573 274 610 q 193 490 211 537 q 174 405 174 442 l 174 0 z "},"i":{"ha":625,"x_min":123,"x_max":502,"o":"m 261 823 q 250 835 261 823 q 239 880 239 846 q 261 936 239 913 q 317 959 284 959 q 374 936 351 959 q 397 880 397 913 q 374 823 397 846 q 317 800 351 800 q 261 823 284 800 m 123 694 l 363 694 l 363 102 l 502 102 l 502 0 l 123 0 l 123 102 l 262 102 l 262 593 l 123 593 l 123 694 z "},"j":{"ha":625,"x_min":147,"x_max":520,"o":"m 384 823 q 373 835 384 823 q 361 880 361 846 q 384 936 361 913 q 440 959 407 959 q 497 936 473 959 q 520 880 520 913 q 497 823 520 846 q 440 800 473 800 q 384 823 407 800 m 323 -149 q 377 -130 357 -149 q 397 -74 397 -111 l 397 593 l 181 593 l 181 694 l 498 694 l 498 -74 q 449 -202 498 -153 q 323 -250 399 -250 q 199 -198 250 -250 q 147 -75 147 -145 l 249 -75 q 271 -126 249 -103 q 323 -149 293 -149 z "},"k":{"ha":625,"x_min":73,"x_max":562,"o":"m 73 0 l 73 966 l 174 966 l 174 402 l 463 753 l 541 688 l 319 418 l 562 0 l 444 0 l 250 334 l 174 241 l 174 0 l 73 0 z "},"l":{"ha":625,"x_min":123,"x_max":502,"o":"m 123 949 l 363 949 l 363 102 l 502 102 l 502 0 l 123 0 l 123 102 l 262 102 l 262 848 l 123 848 l 123 949 z "},"m":{"ha":625,"x_min":45,"x_max":580,"o":"m 214 610 q 167 572 186 610 q 147 488 147 534 l 147 0 l 45 0 l 45 694 l 147 694 q 214 711 179 711 l 221 711 q 330 667 294 711 q 431 711 377 711 l 437 711 q 495 702 470 711 q 535 675 521 692 q 560 641 550 659 q 573 603 570 624 q 578 571 577 583 q 580 549 580 559 l 580 0 l 478 0 l 478 549 q 469 596 478 583 q 437 610 459 610 l 431 610 q 382 572 401 610 q 363 488 363 535 l 363 0 l 262 0 l 262 549 q 252 596 262 583 q 221 610 243 610 l 214 610 z "},"n":{"ha":625,"x_min":73,"x_max":553,"o":"m 174 0 l 73 0 l 73 694 l 174 694 l 174 649 q 307 711 235 711 l 319 711 q 415 699 373 711 q 482 665 456 686 q 524 614 508 644 q 547 554 541 585 q 553 488 553 524 l 553 0 l 451 0 l 451 488 q 422 582 451 554 q 319 610 393 610 l 307 610 q 242 573 274 610 q 193 490 211 537 q 174 405 174 442 l 174 0 z "},"o":{"ha":625,"x_min":66,"x_max":559,"o":"m 559 381 l 559 319 q 544 179 559 240 q 504 81 528 117 q 447 22 479 45 q 384 -9 414 -1 q 323 -17 354 -17 l 299 -17 q 125 77 185 -17 q 66 319 66 170 l 66 380 q 79 506 66 448 q 119 610 92 564 q 192 684 146 657 q 298 711 238 711 l 324 711 q 431 684 385 711 q 504 612 477 658 q 546 507 532 566 q 559 381 559 449 m 324 609 l 298 609 q 234 588 260 609 q 193 532 207 568 q 174 460 180 497 q 168 380 168 422 l 168 319 q 174 238 168 277 q 194 164 180 200 q 235 106 208 127 q 299 85 262 85 l 323 85 q 378 99 354 85 q 417 135 402 113 q 441 189 432 158 q 454 252 450 220 q 458 319 458 283 l 458 381 q 454 445 458 414 q 441 506 451 475 q 417 559 432 536 q 379 595 403 581 q 324 609 355 609 z "},"p":{"ha":625,"x_min":73,"x_max":553,"o":"m 174 290 q 213 141 174 198 q 307 85 252 85 l 319 85 q 384 103 357 85 q 425 152 411 121 q 445 216 439 182 q 451 290 451 250 l 451 405 q 445 478 451 444 q 425 543 439 511 q 384 592 411 574 q 319 610 357 610 l 307 610 q 241 592 269 610 q 200 543 214 574 q 180 478 186 511 q 174 405 174 444 l 174 290 m 174 -261 l 73 -261 l 73 694 l 174 694 l 174 669 q 307 711 229 711 l 319 711 q 449 670 395 711 q 528 561 503 629 q 553 405 553 493 l 553 290 q 491 66 553 149 q 319 -17 430 -17 l 307 -17 q 174 33 232 -17 l 174 -261 z "},"q":{"ha":625,"x_min":73,"x_max":553,"o":"m 174 405 l 174 290 q 213 141 174 198 q 307 85 252 85 l 319 85 q 384 103 357 85 q 425 152 411 121 q 445 216 439 182 q 451 290 451 250 l 451 405 q 445 478 451 444 q 425 543 439 511 q 384 592 411 574 q 319 610 357 610 l 307 610 q 241 592 269 610 q 200 543 214 574 q 180 478 186 511 q 174 405 174 444 m 307 711 l 319 711 q 451 669 396 711 l 451 694 l 553 694 l 553 -261 l 451 -261 l 451 25 q 319 -17 396 -17 l 307 -17 q 139 70 206 -17 q 73 290 73 156 l 73 405 q 97 561 73 493 q 176 670 122 629 q 307 711 230 711 z "},"r":{"ha":625,"x_min":73,"x_max":552,"o":"m 174 0 l 73 0 l 73 694 l 174 694 l 174 610 q 354 711 255 711 l 366 711 q 552 610 501 711 l 461 564 q 428 598 449 587 q 366 610 407 610 l 354 610 q 270 565 313 610 q 201 451 228 519 q 174 319 174 382 l 174 0 z "},"s":{"ha":625,"x_min":52,"x_max":553,"o":"m 451 488 q 416 575 451 541 q 319 610 381 610 l 307 610 q 208 588 241 610 q 174 535 174 566 l 174 527 q 186 489 176 503 q 205 471 196 474 l 461 352 q 526 296 498 334 q 553 204 553 258 l 553 173 q 486 36 553 89 q 319 -17 418 -17 l 286 -17 q 161 20 216 -17 q 79 112 106 56 q 52 229 52 167 l 154 229 q 190 130 154 174 q 286 85 227 85 l 319 85 q 411 108 372 85 q 451 173 451 131 l 451 204 q 440 238 451 222 q 418 260 429 254 l 163 377 q 119 411 138 389 q 91 455 100 432 q 77 496 81 477 q 73 527 73 514 l 73 535 q 96 615 73 580 q 156 671 119 650 q 231 701 193 691 q 307 711 270 711 l 319 711 q 450 680 395 711 q 528 599 504 648 q 553 488 553 549 l 451 488 z "},"t":{"ha":625,"x_min":61,"x_max":539,"o":"m 366 85 q 413 100 391 85 q 437 146 435 116 l 539 146 q 521 75 536 106 q 487 27 506 44 q 443 0 467 11 q 400 -14 418 -11 q 366 -17 382 -17 l 354 -17 q 235 30 288 -17 q 181 143 181 77 l 181 154 l 202 582 l 61 582 l 61 684 l 207 684 l 221 966 l 323 966 l 309 684 l 502 684 l 502 582 l 304 582 l 283 149 l 283 143 q 303 104 283 123 q 354 85 323 85 l 366 85 z "},"u":{"ha":625,"x_min":73,"x_max":553,"o":"m 451 694 l 553 694 l 553 0 l 451 0 l 451 60 q 305 -17 383 -17 l 293 -17 q 211 -5 248 -17 q 141 34 173 7 q 91 111 109 61 q 73 229 73 160 l 73 694 l 174 694 l 174 229 q 204 116 174 147 q 293 85 233 85 l 305 85 q 372 124 337 85 q 429 215 408 163 q 451 303 451 267 l 451 694 z "},"v":{"ha":625,"x_min":68,"x_max":558,"o":"m 275 -17 l 68 694 l 174 694 l 313 216 l 452 694 l 558 694 l 351 -17 l 275 -17 z "},"w":{"ha":625,"x_min":19,"x_max":606,"o":"m 91 0 l 19 694 l 122 694 l 163 292 l 280 644 l 345 644 l 462 292 l 503 694 l 606 694 l 534 0 l 452 0 l 313 418 l 174 0 l 91 0 z "},"x":{"ha":625,"x_min":66,"x_max":559,"o":"m 66 0 l 254 347 l 66 694 l 182 694 l 313 454 l 444 694 l 559 694 l 370 347 l 559 0 l 444 0 l 313 240 l 182 0 l 66 0 z "},"y":{"ha":625,"x_min":56,"x_max":570,"o":"m 570 694 l 393 -88 q 365 -164 383 -132 q 328 -213 347 -197 q 286 -238 309 -229 q 249 -249 262 -247 q 220 -250 235 -250 q 121 -216 166 -250 q 56 -134 76 -182 l 150 -96 q 179 -133 159 -117 q 220 -149 199 -149 q 265 -123 243 -149 q 296 -61 288 -98 l 326 71 l 73 694 l 184 694 l 365 247 l 466 694 l 570 694 z "},"z":{"ha":625,"x_min":59,"x_max":568,"o":"m 59 77 l 430 593 l 95 593 l 95 694 l 568 694 l 568 610 l 202 102 l 568 102 l 568 0 l 59 0 l 59 77 z "},"{":{"ha":625,"x_min":61,"x_max":502,"o":"m 420 953 q 325 923 362 953 q 288 842 288 894 l 288 658 q 269 568 288 612 q 212 492 249 523 q 268 404 248 456 q 288 292 288 351 l 288 107 q 325 26 288 56 q 420 -3 361 -3 l 502 -3 l 502 -105 l 420 -105 q 253 -46 319 -105 q 186 107 186 13 l 186 292 q 175 362 186 328 q 139 421 164 396 q 81 446 115 446 l 61 446 l 61 547 l 81 547 q 159 582 131 547 q 186 658 186 616 l 186 842 q 253 996 186 937 q 420 1055 319 1055 l 502 1055 l 502 953 l 420 953 z "},"|":{"ha":625,"x_min":262,"x_max":363,"o":"m 262 1002 l 363 1002 l 363 -52 l 262 -52 l 262 1002 z "},"}":{"ha":625,"x_min":61,"x_max":502,"o":"m 142 1055 q 310 996 244 1055 q 376 842 376 937 l 376 658 q 404 582 376 616 q 481 547 432 547 l 502 547 l 502 446 l 481 446 q 405 397 433 446 q 376 292 376 349 l 376 107 q 310 -46 376 13 q 142 -105 244 -105 l 61 -105 l 61 -3 l 142 -3 q 238 26 201 -3 q 275 107 275 56 l 275 292 q 295 404 275 351 q 351 492 315 456 q 294 568 314 523 q 275 658 275 612 l 275 842 q 238 923 275 894 q 142 953 201 953 l 61 953 l 61 1055 l 142 1055 z "},"~":{"ha":625,"x_min":45,"x_max":580,"o":"m 215 713 l 225 713 q 328 673 279 713 l 378 631 q 407 616 396 616 l 417 616 q 455 632 436 616 q 484 678 473 648 l 580 647 q 514 550 559 585 q 410 514 469 514 l 400 514 q 313 553 359 514 l 262 596 q 225 612 245 612 l 215 612 q 143 550 161 612 l 45 578 q 110 679 64 645 q 215 713 156 713 z "}," ":{"ha":625,"x_min":0,"x_max":0,"o":""},"¡":{"ha":625,"x_min":211,"x_max":414,"o":"m 314 -16 q 265 5 285 -16 q 245 71 245 26 l 262 686 l 361 686 l 377 71 q 359 5 377 26 q 314 -16 340 -16 m 241 793 q 226 806 241 793 q 211 861 211 820 q 241 930 211 903 q 313 957 271 957 q 383 929 353 957 q 414 861 414 901 q 384 794 414 823 q 313 766 355 766 q 241 793 271 766 z "},"¢":{"ha":625,"x_min":73,"x_max":541,"o":"m 360 810 l 460 793 l 442 690 q 541 578 515 659 l 443 548 q 422 583 436 570 l 333 85 q 407 100 382 86 q 443 144 432 113 l 539 111 q 319 -17 496 -17 l 315 -17 l 302 -83 l 202 -66 l 215 5 q 111 114 150 39 q 73 290 73 190 l 73 405 q 97 561 73 493 q 176 670 122 629 q 307 711 230 711 l 319 711 q 342 710 334 711 l 360 810 m 323 609 l 307 609 q 241 591 269 609 q 200 542 214 573 q 180 478 186 511 q 174 405 174 444 l 174 290 q 235 115 174 172 l 323 609 z "},"£":{"ha":625,"x_min":34,"x_max":596,"o":"m 429 808 q 319 865 393 865 l 307 865 q 174 734 174 865 l 174 708 q 199 630 174 680 l 241 547 l 488 547 l 488 445 l 284 445 q 296 350 296 396 l 296 319 q 239 135 296 231 l 265 135 q 352 119 328 135 l 399 89 q 424 85 406 85 l 441 85 q 481 91 457 85 q 519 111 505 97 l 596 45 q 441 -17 538 -17 l 424 -17 q 381 -12 404 -17 q 346 2 358 -6 l 298 34 q 263 39 291 39 q 186 27 229 39 q 111 -3 142 16 l 88 -17 l 34 68 l 56 83 q 149 183 103 113 q 195 319 195 254 l 195 350 q 178 445 195 399 l 47 445 l 47 547 l 128 547 l 109 585 q 90 624 96 610 q 78 662 84 639 q 73 708 73 686 l 73 734 q 137 906 73 845 q 307 966 202 966 l 319 966 q 373 961 345 966 q 432 939 400 956 q 489 897 465 922 q 532 826 514 871 q 553 723 550 781 l 451 719 q 444 767 450 739 q 429 808 438 795 z "},"¤":{"ha":625,"x_min":40,"x_max":585,"o":"m 534 540 l 534 524 q 501 414 534 466 l 585 330 l 513 258 l 429 342 q 318 308 376 308 l 307 308 q 196 342 248 308 l 112 258 l 40 330 l 125 414 q 92 524 92 466 l 92 540 q 124 647 92 595 l 40 731 l 112 803 l 195 720 q 307 755 250 755 l 318 755 q 430 720 376 755 l 513 803 l 585 731 l 501 647 q 534 540 534 595 m 318 654 l 307 654 q 230 616 266 654 q 193 540 193 579 l 193 524 q 230 445 193 480 q 307 410 267 410 l 318 410 q 396 445 359 410 q 432 524 432 480 l 432 540 q 396 616 432 579 q 318 654 359 654 z "},"¥":{"ha":625,"x_min":61,"x_max":564,"o":"m 564 310 l 564 208 l 364 208 l 364 134 l 564 134 l 564 33 l 363 33 l 363 -109 l 262 -109 l 262 33 l 61 33 l 61 134 l 262 134 l 262 208 l 61 208 l 61 310 l 262 310 l 262 340 l 61 949 l 168 949 l 313 510 l 458 949 l 564 949 l 364 340 l 364 310 l 564 310 z "},"¦":{"ha":625,"x_min":262,"x_max":363,"o":"m 262 407 l 363 407 l 363 -52 l 262 -52 l 262 407 m 262 1002 l 363 1002 l 363 564 l 262 564 l 262 1002 z "},"§":{"ha":625,"x_min":73,"x_max":553,"o":"m 319 604 l 307 604 q 215 566 256 604 q 174 484 174 528 l 174 452 q 216 368 174 404 q 307 332 258 332 l 319 332 q 409 368 368 332 q 451 452 451 403 l 451 484 q 410 566 451 528 q 319 604 369 604 m 307 706 l 319 706 q 482 639 411 706 q 553 484 553 572 l 553 452 q 459 280 553 352 q 527 206 501 249 q 553 117 553 163 l 553 101 q 486 -50 553 15 q 337 -115 420 -115 l 326 -115 q 206 -69 261 -115 q 127 35 151 -23 l 220 75 q 265 15 234 42 q 326 -13 296 -13 l 337 -13 q 415 23 379 -13 q 451 101 451 58 l 451 117 q 406 193 451 155 q 318 231 361 231 l 307 231 q 143 297 214 231 q 73 452 73 363 l 73 484 q 98 586 73 536 q 162 663 123 636 q 97 740 121 696 q 73 830 73 784 l 73 846 q 140 995 73 929 q 288 1061 207 1061 l 299 1061 q 413 1020 357 1061 q 496 916 468 979 l 404 874 q 359 933 389 906 q 299 960 328 960 l 288 960 q 211 922 247 960 q 174 846 174 885 l 174 830 q 220 747 174 788 q 307 706 265 706 z "},"¨":{"ha":625,"x_min":71,"x_max":553,"o":"m 200 1087 q 211 1076 200 1087 q 222 1034 222 1065 q 200 979 222 1002 q 147 956 178 956 q 94 978 116 956 q 71 1034 71 1001 q 94 1088 71 1067 q 146 1110 117 1110 q 200 1087 178 1110 m 531 1088 q 542 1078 531 1088 q 553 1034 553 1067 q 531 978 553 1000 q 479 956 509 956 q 427 979 449 956 q 404 1034 404 1002 q 427 1088 404 1066 q 479 1110 449 1110 q 531 1088 508 1110 z "},"©":{"ha":625,"x_min":9,"x_max":616,"o":"m 616 402 q 596 287 616 342 q 539 186 576 231 q 444 114 503 141 q 313 87 385 87 q 183 113 242 87 q 87 184 125 140 q 30 284 50 228 q 9 402 9 340 q 30 521 9 465 q 89 621 51 577 q 185 690 127 665 q 313 716 243 716 q 476 672 406 716 q 581 558 546 629 q 616 402 616 488 m 313 631 q 153 564 210 631 q 95 402 95 498 q 152 240 95 307 q 313 172 210 172 q 409 192 366 172 q 477 244 452 212 q 517 318 503 277 q 530 402 530 358 q 508 514 530 463 q 434 597 485 564 q 313 631 384 631 m 310 235 q 190 282 236 235 q 144 401 144 330 q 190 521 144 473 q 310 568 235 568 q 433 519 387 568 l 366 457 q 310 477 346 477 q 254 455 272 477 q 235 401 235 434 q 254 348 235 370 q 310 326 272 326 q 366 347 347 326 l 433 285 q 310 235 386 235 z "},"ª":{"ha":625,"x_min":61,"x_max":564,"o":"m 564 267 l 564 165 l 61 165 l 61 267 l 564 267 m 318 453 q 389 490 354 453 q 423 558 423 526 l 423 636 l 308 636 q 254 626 277 636 q 221 603 231 616 q 207 578 212 589 q 203 561 203 568 l 203 532 q 231 479 203 505 q 308 453 259 453 l 318 453 m 308 738 l 423 738 l 423 781 q 398 863 423 839 q 318 886 372 886 l 308 886 q 212 840 232 886 l 119 879 q 308 988 165 988 l 318 988 q 469 936 413 988 q 525 781 525 884 l 525 363 l 423 363 l 423 390 q 318 351 376 357 l 308 351 q 236 362 271 351 q 170 394 201 373 q 120 450 139 414 q 101 532 101 486 l 101 558 q 107 604 101 581 q 129 652 114 627 q 168 695 144 676 q 227 726 191 714 q 308 738 263 738 z "},"«":{"ha":625,"x_min":66,"x_max":567,"o":"m 480 58 l 351 274 l 351 361 l 480 578 l 567 526 l 452 333 l 452 302 l 567 110 l 480 58 m 195 58 l 66 274 l 66 361 l 195 578 l 282 526 l 168 333 l 168 302 l 282 110 l 195 58 z "},"¬":{"ha":625,"x_min":34,"x_max":553,"o":"m 34 458 l 553 458 l 553 145 l 451 145 l 451 356 l 34 356 l 34 458 z "},"­":{"ha":625,"x_min":151,"x_max":475,"o":"m 475 458 l 475 356 l 151 356 l 151 458 l 475 458 z "},"®":{"ha":625,"x_min":9,"x_max":616,"o":"m 284 405 l 323 405 q 354 417 345 405 q 363 440 363 429 l 363 458 q 352 474 363 465 q 323 483 342 483 l 284 483 l 284 405 m 95 404 q 119 291 95 342 q 193 206 142 239 q 313 172 243 172 q 409 192 366 172 q 477 245 452 212 q 517 319 503 279 q 530 404 530 360 q 517 489 530 448 q 478 561 504 529 q 409 612 452 593 q 313 631 367 631 q 154 566 212 631 q 95 404 95 501 m 191 559 l 323 559 q 389 550 361 559 q 428 525 416 541 q 445 494 440 509 q 450 464 450 479 l 450 443 q 398 357 450 382 l 454 277 l 380 224 l 296 342 l 282 342 l 282 250 l 191 250 l 191 559 m 616 404 q 596 288 616 344 q 539 186 576 232 q 444 114 503 141 q 313 87 385 87 q 183 114 242 87 q 87 185 125 140 q 30 286 50 229 q 9 404 9 342 q 30 522 9 466 q 89 622 51 578 q 185 690 127 665 q 313 716 243 716 q 443 690 385 716 q 538 621 501 665 q 596 521 576 577 q 616 404 616 465 z "},"¯":{"ha":625,"x_min":156,"x_max":463,"o":"m 156 315 l 156 416 l 463 416 l 463 315 l 156 315 z "},"°":{"ha":625,"x_min":109,"x_max":516,"o":"m 516 751 q 460 607 516 666 q 313 547 405 547 q 165 606 220 547 q 109 751 109 665 q 165 897 109 838 q 313 955 221 955 q 461 897 406 955 q 516 751 516 838 m 313 853 q 236 824 262 853 q 211 751 211 795 q 236 679 211 708 q 313 649 262 649 q 389 679 363 649 q 414 751 414 709 q 410 786 414 770 q 394 818 405 802 q 363 844 384 834 q 313 853 342 853 z "},"±":{"ha":625,"x_min":34,"x_max":591,"o":"m 591 124 l 591 22 l 34 22 l 34 124 l 591 124 m 591 635 l 591 534 l 363 534 l 363 284 l 262 284 l 262 534 l 34 534 l 34 635 l 262 635 l 262 863 l 363 863 l 363 635 l 591 635 z "},"²":{"ha":625,"x_min":180,"x_max":481,"o":"m 323 966 l 330 966 q 441 924 401 966 q 481 825 481 882 l 481 810 q 470 746 481 785 q 436 682 459 708 l 313 540 q 290 492 304 529 l 465 492 l 465 390 l 190 390 l 190 513 q 234 604 211 576 l 357 745 q 374 779 369 758 q 380 810 380 800 l 380 825 q 330 865 380 865 l 323 865 q 290 858 300 865 q 273 837 280 852 l 180 878 q 234 946 201 925 q 323 966 268 966 z "},"³":{"ha":625,"x_min":137,"x_max":488,"o":"m 309 871 q 242 836 261 871 l 149 878 q 166 901 155 888 q 196 931 176 913 q 246 961 216 949 q 309 973 275 973 l 317 973 q 426 929 384 973 q 468 822 468 886 l 468 806 q 435 711 468 758 q 488 574 488 671 l 488 567 q 441 429 488 479 q 317 378 395 378 l 309 378 q 192 429 246 378 q 137 551 137 480 l 239 551 q 262 502 239 524 q 309 479 286 479 l 317 479 q 387 567 387 479 l 387 574 q 317 642 387 642 l 241 642 l 241 744 l 317 744 q 350 764 333 744 q 366 806 366 783 l 366 822 q 354 858 366 844 q 317 871 341 871 l 309 871 z "},"´":{"ha":625,"x_min":172,"x_max":454,"o":"m 279 806 l 172 884 l 347 1130 l 454 1053 l 279 806 z "},"µ":{"ha":625,"x_min":47,"x_max":571,"o":"m 451 41 q 319 -17 390 -17 l 307 -17 q 174 28 232 -17 l 174 -17 q 169 -143 174 -96 q 144 -252 163 -190 l 47 -220 q 68 -131 64 -170 q 73 -17 73 -91 l 73 694 l 174 694 l 174 269 q 209 139 174 193 q 307 85 243 85 l 319 85 q 384 116 352 85 q 433 191 415 148 q 451 269 451 233 l 451 694 l 553 694 l 553 67 q 554 44 553 54 q 558 28 556 34 q 564 10 559 22 q 571 -12 568 -2 l 473 -43 q 466 -21 471 -34 q 459 0 462 -7 q 454 18 457 7 q 451 41 452 29 z "},"¶":{"ha":625,"x_min":52,"x_max":553,"o":"m 207 467 q 152 486 177 472 q 103 527 127 500 q 66 603 79 554 q 52 717 52 651 l 52 764 q 111 936 52 872 q 245 1000 169 1000 l 553 1000 l 553 0 l 451 0 l 451 899 l 309 899 l 309 0 l 207 0 l 207 467 z "},"·":{"ha":625,"x_min":213,"x_max":411,"o":"m 383 577 q 397 562 383 577 q 411 507 411 547 q 383 437 411 466 q 312 408 355 408 q 241 437 270 408 q 213 507 213 466 q 241 576 213 547 q 312 606 269 606 q 383 577 355 606 z "},"¸":{"ha":625,"x_min":170,"x_max":517,"o":"m 415 -183 q 387 -141 415 -157 q 332 -126 359 -126 l 277 -126 l 287 2 l 287 12 l 389 12 l 389 -2 l 386 -43 q 517 -183 517 -66 q 498 -253 517 -222 q 450 -299 479 -283 q 392 -322 420 -315 q 340 -330 364 -330 q 170 -265 245 -330 l 237 -195 q 340 -235 283 -235 q 389 -221 363 -235 q 415 -183 415 -207 z "},"¹":{"ha":625,"x_min":212,"x_max":408,"o":"m 408 966 l 408 435 l 306 435 l 306 834 l 245 800 l 212 838 l 330 965 l 333 966 l 408 966 z "},"º":{"ha":625,"x_min":61,"x_max":564,"o":"m 564 267 l 564 165 l 61 165 l 61 267 l 564 267 m 530 667 q 472 433 530 511 q 313 355 414 355 q 153 433 211 355 q 95 667 95 511 q 110 807 95 747 q 146 901 124 867 q 199 956 168 935 q 256 984 230 977 q 313 990 283 990 q 369 984 342 990 q 426 956 395 977 q 479 901 457 935 q 516 807 501 867 q 530 667 530 747 m 371 868 q 359 878 371 868 q 313 888 347 888 q 254 868 278 888 q 218 813 230 848 q 201 743 206 778 q 197 667 197 707 q 226 506 197 556 q 313 456 256 456 q 399 506 370 456 q 429 667 429 556 q 424 743 429 707 q 407 813 419 778 q 371 868 395 848 z "},"»":{"ha":625,"x_min":58,"x_max":559,"o":"m 173 302 l 173 333 l 58 526 l 145 578 l 275 361 l 275 274 l 145 58 l 58 110 l 173 302 m 458 302 l 458 333 l 343 526 l 430 578 l 559 361 l 559 274 l 430 58 l 343 110 l 458 302 z "},"¼":{"ha":625,"x_min":2,"x_max":601,"o":"m 477 166 l 427 79 l 477 79 l 477 166 m 454 985 l 549 949 l 171 -35 l 76 0 l 454 985 m 323 104 l 488 390 l 578 390 l 578 79 l 601 79 l 601 -23 l 578 -23 l 578 -142 l 477 -142 l 477 -23 l 323 -23 l 323 104 m 197 1072 l 197 545 l 96 545 l 96 924 l 34 882 l 2 916 l 132 1072 l 133 1072 l 197 1072 z "},"½":{"ha":625,"x_min":2,"x_max":615,"o":"m 313 273 q 367 346 335 319 q 457 372 398 372 l 464 372 q 576 331 538 372 q 615 220 615 290 l 615 205 q 604 141 615 180 q 570 77 593 103 l 446 -66 q 429 -92 439 -74 l 599 -92 l 599 -193 l 290 -193 l 307 -130 q 368 0 328 -48 l 491 140 q 508 174 503 153 q 513 205 513 195 l 513 220 q 503 260 513 250 q 464 270 492 270 l 457 270 q 444 269 450 270 q 433 266 437 269 q 426 262 429 264 q 419 256 422 260 q 415 249 416 251 q 411 240 414 247 q 407 232 408 234 l 313 273 m 454 985 l 549 949 l 171 -35 l 76 0 l 454 985 m 197 1072 l 197 545 l 96 545 l 96 924 l 34 882 l 2 916 l 132 1072 l 133 1072 l 197 1072 z "},"¾":{"ha":625,"x_min":0,"x_max":601,"o":"m 12 990 q 16 1001 13 994 q 32 1024 19 1007 q 59 1053 44 1040 q 102 1077 75 1066 q 160 1087 129 1087 l 167 1087 q 267 1044 226 1087 q 309 949 309 1001 l 309 942 q 275 852 309 893 q 327 729 327 806 l 327 722 q 316 641 327 676 q 289 587 305 606 q 251 555 273 567 q 209 539 229 543 q 168 535 189 535 l 160 535 q 44 569 89 535 q 0 667 0 602 l 0 668 l 104 668 q 160 637 105 637 l 168 637 q 197 645 184 637 q 215 668 209 654 q 223 694 220 682 q 225 722 225 707 l 225 729 q 207 782 225 764 q 159 801 188 801 l 113 801 l 112 902 l 168 902 q 195 916 184 902 q 207 942 207 929 l 207 949 q 195 972 207 959 q 167 985 182 985 l 160 985 q 105 952 123 985 l 12 990 m 477 166 l 427 79 l 477 79 l 477 166 m 502 985 l 597 949 l 218 -35 l 123 0 l 502 985 m 323 104 l 488 390 l 578 390 l 578 79 l 601 79 l 601 -23 l 578 -23 l 578 -142 l 477 -142 l 477 -23 l 323 -23 l 323 104 z "},"¿":{"ha":625,"x_min":73,"x_max":553,"o":"m 363 617 q 304 454 363 529 l 215 345 q 174 248 174 295 l 174 200 q 180 156 174 176 q 200 117 186 136 q 241 89 214 99 q 307 78 269 78 l 319 78 q 420 113 391 78 q 451 201 450 149 l 553 199 q 489 37 552 98 q 319 -24 426 -24 l 307 -24 q 135 38 198 -24 q 73 200 73 100 l 73 248 q 136 408 73 327 l 224 518 q 262 617 262 566 l 262 685 l 363 685 l 363 617 m 227 937 q 252 997 227 971 q 313 1022 276 1022 q 374 997 349 1022 q 398 937 398 972 q 374 876 398 901 q 313 850 351 850 q 251 876 275 850 q 227 937 227 901 z "},"À":{"ha":625,"x_min":60,"x_max":565,"o":"m 406 1029 l 311 937 l 136 1122 l 231 1213 l 406 1029 m 223 271 l 402 271 l 313 681 l 223 271 m 163 0 l 60 0 l 271 966 l 355 966 l 565 0 l 461 0 l 425 169 l 201 169 l 163 0 z "},"Á":{"ha":625,"x_min":60,"x_max":565,"o":"m 323 939 l 229 1030 l 404 1215 l 498 1123 l 323 939 m 223 271 l 402 271 l 313 681 l 223 271 m 163 0 l 60 0 l 271 966 l 355 966 l 565 0 l 461 0 l 425 169 l 201 169 l 163 0 z "},"Â":{"ha":625,"x_min":60,"x_max":565,"o":"m 366 1157 l 478 1078 l 420 996 l 313 1069 l 207 996 l 149 1078 l 261 1157 l 366 1157 m 223 271 l 402 271 l 313 681 l 223 271 m 163 0 l 60 0 l 271 966 l 355 966 l 565 0 l 461 0 l 425 169 l 201 169 l 163 0 z "},"Ã":{"ha":625,"x_min":60,"x_max":565,"o":"m 87 1108 q 218 1186 149 1186 l 229 1186 q 332 1149 288 1186 l 345 1137 q 379 1125 359 1125 l 391 1125 q 416 1133 406 1126 q 441 1161 427 1139 l 452 1177 l 536 1120 l 525 1104 q 391 1023 471 1023 l 379 1023 q 327 1033 357 1023 q 277 1061 298 1043 l 262 1074 q 229 1084 250 1084 l 218 1084 q 196 1077 207 1084 q 169 1048 186 1069 l 156 1030 l 75 1091 l 87 1108 m 223 271 l 402 271 l 313 681 l 223 271 m 163 0 l 60 0 l 271 966 l 355 966 l 565 0 l 461 0 l 425 169 l 201 169 l 163 0 z "},"Ä":{"ha":625,"x_min":60,"x_max":565,"o":"m 200 1136 q 211 1124 200 1136 q 222 1082 222 1113 q 200 1027 222 1050 q 148 1004 178 1004 q 94 1026 117 1004 q 72 1082 72 1049 q 95 1137 72 1115 q 146 1158 117 1158 q 200 1136 178 1158 m 531 1137 q 543 1126 531 1137 q 554 1082 554 1115 q 532 1026 554 1048 q 480 1004 509 1004 q 427 1027 450 1004 q 405 1082 405 1050 q 427 1136 405 1114 q 480 1158 450 1158 q 531 1137 509 1158 m 223 271 l 402 271 l 313 681 l 223 271 m 163 0 l 60 0 l 271 966 l 355 966 l 565 0 l 461 0 l 425 169 l 201 169 l 163 0 z "},"Å":{"ha":625,"x_min":60,"x_max":565,"o":"m 210 913 q 191 933 210 913 q 171 1010 171 953 q 210 1107 171 1067 q 307 1147 250 1147 q 404 1107 363 1147 q 445 1010 445 1067 q 404 913 445 953 q 307 873 363 873 q 210 913 250 873 m 263 1054 q 254 1045 263 1054 q 245 1010 245 1036 q 263 966 245 984 q 307 947 281 947 q 352 966 333 947 q 370 1010 370 984 q 352 1054 370 1036 q 307 1072 333 1072 q 263 1054 281 1072 m 223 271 l 402 271 l 313 681 l 223 271 m 163 0 l 60 0 l 271 966 l 355 966 l 565 0 l 461 0 l 425 169 l 201 169 l 163 0 z "},"Æ":{"ha":625,"x_min":11,"x_max":557,"o":"m 302 569 l 302 848 q 230 785 239 842 l 198 569 l 302 569 m 11 0 l 130 800 q 186 905 139 864 q 302 949 233 947 l 557 949 l 557 848 l 404 848 l 404 569 l 522 569 l 522 467 l 404 467 l 404 102 l 557 102 l 557 0 l 302 0 l 302 467 l 182 467 l 113 0 l 11 0 z "},"Ç":{"ha":625,"x_min":66,"x_max":553,"o":"m 422 -187 q 394 -145 422 -161 q 338 -130 366 -130 l 284 -130 l 294 -2 l 294 8 l 395 8 l 395 -6 l 393 -47 q 524 -187 524 -71 q 505 -257 524 -227 q 456 -303 486 -288 q 399 -326 427 -319 q 347 -334 371 -334 q 177 -269 252 -334 l 243 -199 q 347 -239 290 -239 q 396 -225 370 -239 q 422 -187 422 -211 m 330 -17 l 309 -17 q 246 -7 276 -17 q 182 34 216 2 q 123 116 147 65 q 82 259 98 168 q 66 472 66 351 l 66 517 q 309 966 66 966 l 330 966 q 398 956 367 966 q 451 930 430 945 q 491 891 473 915 q 518 849 509 867 q 537 805 528 831 q 548 769 545 779 q 553 743 550 759 l 454 722 q 432 795 446 766 q 401 839 418 825 q 367 859 384 854 q 330 865 351 865 l 309 865 q 202 780 237 865 q 168 517 168 695 l 168 472 q 170 376 168 422 q 182 275 173 330 q 206 179 191 220 q 247 112 220 139 q 309 85 274 85 l 330 85 q 350 86 341 85 q 374 96 359 88 q 401 118 389 104 q 426 159 413 132 q 448 225 439 187 l 547 202 q 510 102 533 144 q 465 37 488 59 q 415 2 443 15 q 369 -14 387 -11 q 330 -17 350 -17 z "},"È":{"ha":625,"x_min":73,"x_max":564,"o":"m 405 1030 l 310 939 l 135 1123 l 230 1215 l 405 1030 m 174 483 l 174 102 l 564 102 l 564 0 l 73 0 l 73 949 l 564 949 l 564 848 l 174 848 l 174 585 l 502 585 l 502 483 l 174 483 z "},"É":{"ha":625,"x_min":73,"x_max":564,"o":"m 323 939 l 228 1030 l 403 1215 l 498 1123 l 323 939 m 174 483 l 174 102 l 564 102 l 564 0 l 73 0 l 73 949 l 564 949 l 564 848 l 174 848 l 174 585 l 502 585 l 502 483 l 174 483 z "},"Ê":{"ha":625,"x_min":73,"x_max":564,"o":"m 365 1156 l 477 1077 l 419 995 l 313 1068 l 206 995 l 148 1077 l 260 1156 l 365 1156 m 174 483 l 174 102 l 564 102 l 564 0 l 73 0 l 73 949 l 564 949 l 564 848 l 174 848 l 174 585 l 502 585 l 502 483 l 174 483 z "},"Ë":{"ha":625,"x_min":71,"x_max":564,"o":"m 200 1134 q 211 1122 200 1134 q 222 1080 222 1111 q 200 1025 222 1048 q 147 1002 178 1002 q 94 1024 116 1002 q 71 1080 71 1047 q 94 1135 71 1113 q 146 1156 117 1156 q 200 1134 178 1156 m 531 1135 q 542 1124 531 1135 q 553 1080 553 1113 q 531 1024 553 1046 q 479 1002 509 1002 q 427 1025 449 1002 q 404 1080 404 1048 q 427 1134 404 1112 q 479 1156 449 1156 q 531 1135 508 1156 m 174 483 l 174 102 l 564 102 l 564 0 l 73 0 l 73 949 l 564 949 l 564 848 l 174 848 l 174 585 l 502 585 l 502 483 l 174 483 z "},"Ì":{"ha":625,"x_min":61,"x_max":564,"o":"m 406 1030 l 311 939 l 136 1123 l 231 1215 l 406 1030 m 564 949 l 564 848 l 363 848 l 363 102 l 564 102 l 564 0 l 61 0 l 61 102 l 262 102 l 262 848 l 61 848 l 61 949 l 564 949 z "},"Í":{"ha":625,"x_min":61,"x_max":564,"o":"m 323 939 l 229 1030 l 404 1215 l 498 1123 l 323 939 m 564 949 l 564 848 l 363 848 l 363 102 l 564 102 l 564 0 l 61 0 l 61 102 l 262 102 l 262 848 l 61 848 l 61 949 l 564 949 z "},"Î":{"ha":625,"x_min":61,"x_max":564,"o":"m 366 1156 l 478 1077 l 420 995 l 313 1068 l 207 995 l 149 1077 l 261 1156 l 366 1156 m 564 949 l 564 848 l 363 848 l 363 102 l 564 102 l 564 0 l 61 0 l 61 102 l 262 102 l 262 848 l 61 848 l 61 949 l 564 949 z "},"Ï":{"ha":625,"x_min":61,"x_max":564,"o":"m 200 1134 q 211 1122 200 1134 q 222 1080 222 1111 q 200 1025 222 1048 q 148 1002 178 1002 q 94 1024 117 1002 q 72 1080 72 1047 q 95 1135 72 1113 q 146 1156 117 1156 q 200 1134 178 1156 m 531 1135 q 543 1124 531 1135 q 554 1080 554 1113 q 532 1024 554 1046 q 480 1002 509 1002 q 427 1025 450 1002 q 405 1080 405 1048 q 427 1134 405 1112 q 480 1156 450 1156 q 531 1135 509 1156 m 564 949 l 564 848 l 363 848 l 363 102 l 564 102 l 564 0 l 61 0 l 61 102 l 262 102 l 262 848 l 61 848 l 61 949 l 564 949 z "},"Ð":{"ha":625,"x_min":28,"x_max":559,"o":"m 559 496 q 558 407 559 448 q 550 314 556 366 q 533 219 544 261 q 504 135 523 177 q 460 64 486 92 q 397 18 435 36 q 313 0 359 0 l 100 0 l 100 462 l 28 462 l 28 564 l 100 564 l 100 949 l 313 949 q 396 935 359 949 q 458 898 433 921 q 502 839 484 874 q 532 766 521 803 q 549 680 543 728 q 557 590 555 632 q 559 496 559 548 m 313 848 l 201 848 l 201 564 l 307 564 l 307 462 l 201 462 l 201 102 l 313 102 q 422 198 387 102 q 458 496 458 295 q 424 769 458 690 q 313 848 390 848 z "},"Ñ":{"ha":625,"x_min":73,"x_max":553,"o":"m 87 1113 q 218 1191 149 1191 l 229 1191 q 332 1154 288 1191 l 345 1142 q 379 1130 359 1130 l 391 1130 q 416 1138 406 1131 q 441 1166 427 1144 l 452 1182 l 536 1125 l 525 1109 q 391 1028 471 1028 l 379 1028 q 327 1038 357 1028 q 277 1066 298 1048 l 262 1078 q 229 1089 250 1089 l 218 1089 q 196 1081 207 1089 q 169 1053 186 1074 l 156 1035 l 75 1096 l 87 1113 m 174 0 l 73 0 l 73 949 l 164 949 l 451 281 l 451 949 l 553 949 l 553 0 l 460 0 l 174 668 l 174 0 z "},"Ò":{"ha":625,"x_min":66,"x_max":559,"o":"m 409 1030 l 314 939 l 139 1123 l 234 1215 l 409 1030 m 559 519 l 559 472 q 543 259 559 351 q 503 117 527 168 q 444 34 478 66 q 380 -7 410 3 q 317 -17 350 -17 l 309 -17 q 246 -7 276 -17 q 182 34 216 2 q 123 116 147 65 q 82 259 98 168 q 66 472 66 351 l 66 517 q 309 966 66 966 l 317 966 q 559 519 559 966 m 317 865 l 309 865 q 202 780 237 865 q 168 517 168 695 l 168 472 q 170 376 168 422 q 182 275 173 330 q 206 179 191 220 q 247 112 220 139 q 309 85 274 85 l 317 85 q 379 112 352 85 q 420 180 406 140 q 444 275 435 220 q 455 376 452 330 q 458 472 458 422 l 458 519 q 423 780 458 696 q 317 865 389 865 z "},"Ó":{"ha":625,"x_min":66,"x_max":559,"o":"m 327 938 l 232 1029 l 407 1214 l 502 1122 l 327 938 m 559 519 l 559 472 q 543 259 559 351 q 503 117 527 168 q 444 34 478 66 q 380 -7 410 3 q 317 -17 350 -17 l 309 -17 q 246 -7 276 -17 q 182 34 216 2 q 123 116 147 65 q 82 259 98 168 q 66 472 66 351 l 66 517 q 309 966 66 966 l 317 966 q 559 519 559 966 m 317 865 l 309 865 q 202 780 237 865 q 168 517 168 695 l 168 472 q 170 376 168 422 q 182 275 173 330 q 206 179 191 220 q 247 112 220 139 q 309 85 274 85 l 317 85 q 379 112 352 85 q 420 180 406 140 q 444 275 435 220 q 455 376 452 330 q 458 472 458 422 l 458 519 q 423 780 458 696 q 317 865 389 865 z "},"Ô":{"ha":625,"x_min":66,"x_max":559,"o":"m 369 1156 l 481 1076 l 423 994 l 317 1067 l 210 994 l 152 1076 l 264 1156 l 369 1156 m 559 519 l 559 472 q 543 259 559 351 q 503 117 527 168 q 444 34 478 66 q 380 -7 410 3 q 317 -17 350 -17 l 309 -17 q 246 -7 276 -17 q 182 34 216 2 q 123 116 147 65 q 82 259 98 168 q 66 472 66 351 l 66 517 q 309 966 66 966 l 317 966 q 559 519 559 966 m 317 865 l 309 865 q 202 780 237 865 q 168 517 168 695 l 168 472 q 170 376 168 422 q 182 275 173 330 q 206 179 191 220 q 247 112 220 139 q 309 85 274 85 l 317 85 q 379 112 352 85 q 420 180 406 140 q 444 275 435 220 q 455 376 452 330 q 458 472 458 422 l 458 519 q 423 780 458 696 q 317 865 389 865 z "},"Õ":{"ha":625,"x_min":66,"x_max":559,"o":"m 92 1110 q 222 1188 153 1188 l 233 1188 q 336 1151 292 1188 l 349 1139 q 383 1127 363 1127 l 395 1127 q 420 1135 410 1128 q 445 1163 431 1141 l 456 1179 l 540 1122 l 529 1106 q 395 1025 475 1025 l 383 1025 q 331 1035 361 1025 q 281 1063 302 1045 l 267 1076 q 233 1086 254 1086 l 222 1086 q 200 1079 211 1086 q 173 1050 190 1071 l 160 1032 l 79 1093 l 92 1110 m 559 519 l 559 472 q 543 259 559 351 q 503 117 527 168 q 444 34 478 66 q 380 -7 410 3 q 317 -17 350 -17 l 309 -17 q 246 -7 276 -17 q 182 34 216 2 q 123 116 147 65 q 82 259 98 168 q 66 472 66 351 l 66 517 q 309 966 66 966 l 317 966 q 559 519 559 966 m 317 865 l 309 865 q 202 780 237 865 q 168 517 168 695 l 168 472 q 170 376 168 422 q 182 275 173 330 q 206 179 191 220 q 247 112 220 139 q 309 85 274 85 l 317 85 q 379 112 352 85 q 420 180 406 140 q 444 275 435 220 q 455 376 452 330 q 458 472 458 422 l 458 519 q 423 780 458 696 q 317 865 389 865 z "},"Ö":{"ha":625,"x_min":66,"x_max":559,"o":"m 204 1132 q 215 1121 204 1132 q 226 1078 226 1109 q 204 1024 226 1047 q 151 1000 182 1000 q 98 1023 120 1000 q 75 1078 75 1046 q 98 1133 75 1112 q 150 1155 121 1155 q 204 1132 182 1155 m 535 1133 q 546 1122 535 1133 q 557 1078 557 1112 q 535 1023 557 1045 q 484 1000 513 1000 q 431 1023 453 1000 q 408 1078 408 1046 q 431 1133 408 1111 q 484 1155 453 1155 q 535 1133 512 1155 m 559 519 l 559 472 q 543 259 559 351 q 503 117 527 168 q 444 34 478 66 q 380 -7 410 3 q 317 -17 350 -17 l 309 -17 q 246 -7 276 -17 q 182 34 216 2 q 123 116 147 65 q 82 259 98 168 q 66 472 66 351 l 66 517 q 309 966 66 966 l 317 966 q 559 519 559 966 m 317 865 l 309 865 q 202 780 237 865 q 168 517 168 695 l 168 472 q 170 376 168 422 q 182 275 173 330 q 206 179 191 220 q 247 112 220 139 q 309 85 274 85 l 317 85 q 379 112 352 85 q 420 180 406 140 q 444 275 435 220 q 455 376 452 330 q 458 472 458 422 l 458 519 q 423 780 458 696 q 317 865 389 865 z "},"×":{"ha":625,"x_min":79,"x_max":547,"o":"m 473 661 l 547 591 l 382 418 l 547 245 l 473 174 l 313 344 l 152 174 l 79 245 l 243 418 l 79 591 l 152 661 l 313 492 l 473 661 z "},"Ø":{"ha":625,"x_min":7,"x_max":618,"o":"m 313 865 q 202 779 237 865 q 168 496 168 692 q 173 355 168 422 l 433 749 q 313 865 401 865 m 559 496 q 557 390 559 437 q 549 287 555 342 q 532 190 543 232 q 503 107 522 148 q 458 41 484 67 q 396 -1 433 15 q 313 -17 359 -17 q 128 106 191 -17 l 53 -7 l 7 107 l 88 228 q 66 496 66 335 q 68 588 66 547 q 76 680 70 629 q 93 769 82 730 q 122 846 103 808 q 166 910 141 884 q 229 951 192 935 q 313 966 267 966 q 501 850 439 966 l 576 964 l 618 845 l 542 729 q 559 496 559 641 m 455 599 l 197 210 q 313 85 232 85 q 394 122 363 85 q 441 251 425 160 q 458 496 458 342 q 455 599 458 557 z "},"Ù":{"ha":625,"x_min":73,"x_max":553,"o":"m 405 1029 l 310 938 l 135 1122 l 230 1214 l 405 1029 m 174 229 q 209 118 174 151 q 307 85 243 85 l 319 85 q 417 118 382 85 q 451 229 451 151 l 451 949 l 553 949 l 553 229 q 491 47 553 112 q 319 -17 429 -17 l 307 -17 q 135 47 197 -17 q 73 229 73 111 l 73 949 l 174 949 l 174 229 z "},"Ú":{"ha":625,"x_min":73,"x_max":553,"o":"m 323 939 l 228 1030 l 403 1215 l 498 1123 l 323 939 m 174 229 q 209 118 174 151 q 307 85 243 85 l 319 85 q 417 118 382 85 q 451 229 451 151 l 451 949 l 553 949 l 553 229 q 491 47 553 112 q 319 -17 429 -17 l 307 -17 q 135 47 197 -17 q 73 229 73 111 l 73 949 l 174 949 l 174 229 z "},"Û":{"ha":625,"x_min":73,"x_max":553,"o":"m 365 1155 l 477 1076 l 419 994 l 313 1067 l 206 994 l 148 1076 l 260 1155 l 365 1155 m 174 229 q 209 118 174 151 q 307 85 243 85 l 319 85 q 417 118 382 85 q 451 229 451 151 l 451 949 l 553 949 l 553 229 q 491 47 553 112 q 319 -17 429 -17 l 307 -17 q 135 47 197 -17 q 73 229 73 111 l 73 949 l 174 949 l 174 229 z "},"Ü":{"ha":625,"x_min":71,"x_max":553,"o":"m 200 1133 q 211 1122 200 1133 q 222 1079 222 1110 q 200 1024 222 1048 q 147 1001 178 1001 q 94 1024 116 1001 q 71 1079 71 1046 q 94 1134 71 1112 q 146 1156 117 1156 q 200 1133 178 1156 m 531 1134 q 542 1123 531 1134 q 553 1079 553 1112 q 531 1023 553 1046 q 479 1001 509 1001 q 427 1024 449 1001 q 404 1079 404 1047 q 427 1134 404 1112 q 479 1156 449 1156 q 531 1134 508 1156 m 174 229 q 209 118 174 151 q 307 85 243 85 l 319 85 q 417 118 382 85 q 451 229 451 151 l 451 949 l 553 949 l 553 229 q 491 47 553 112 q 319 -17 429 -17 l 307 -17 q 135 47 197 -17 q 73 229 73 111 l 73 949 l 174 949 l 174 229 z "},"Ý":{"ha":625,"x_min":61,"x_max":564,"o":"m 323 938 l 229 1029 l 404 1214 l 498 1122 l 323 938 m 262 -17 l 262 340 l 61 949 l 168 949 l 313 510 l 458 949 l 564 949 l 364 340 l 363 -17 l 262 -17 z "},"Þ":{"ha":625,"x_min":73,"x_max":553,"o":"m 319 353 q 451 507 451 353 l 451 658 q 422 755 451 727 q 319 783 393 783 l 174 783 l 174 353 l 319 353 m 174 0 l 73 0 l 73 1044 l 174 1044 l 174 885 l 319 885 q 553 658 553 885 l 553 507 q 491 320 553 390 q 319 251 429 251 l 174 251 l 174 0 z "},"ß":{"ha":625,"x_min":73,"x_max":553,"o":"m 73 743 q 79 809 73 779 q 101 869 85 840 q 143 920 117 899 q 211 954 169 941 q 307 966 252 966 l 319 966 q 466 905 414 966 q 519 734 519 844 l 519 708 q 505 608 519 653 q 465 538 490 563 q 553 329 553 470 l 553 229 q 497 50 553 117 q 349 -17 441 -17 l 344 -17 q 218 29 267 -17 l 289 102 q 344 85 308 85 l 349 85 q 399 98 378 85 q 431 133 420 111 q 446 179 441 155 q 451 229 451 202 l 451 329 q 445 386 451 360 q 425 434 439 411 q 384 470 411 457 q 319 483 357 483 l 273 483 l 273 585 l 285 585 q 389 614 361 585 q 417 708 417 644 l 417 734 q 319 865 417 865 l 307 865 q 203 837 233 865 q 174 743 174 809 l 174 -263 l 73 -263 l 73 743 z "},"à":{"ha":625,"x_min":73,"x_max":553,"o":"m 433 890 l 338 799 l 163 983 l 258 1075 l 433 890 m 307 330 q 245 318 273 330 q 204 290 218 307 q 182 257 189 273 q 174 229 174 241 l 174 176 q 208 116 174 146 q 307 85 241 85 l 319 85 q 410 130 369 85 q 451 205 451 175 l 451 330 l 307 330 m 307 711 l 319 711 q 415 699 373 711 q 482 665 456 686 q 524 614 508 644 q 547 554 541 585 q 553 488 553 524 l 553 0 l 451 0 l 451 33 q 319 -17 392 -12 l 307 -17 q 209 0 254 -17 q 134 45 163 17 q 89 106 105 73 q 73 176 73 140 l 73 229 q 89 299 73 263 q 134 364 105 334 q 208 413 163 394 q 307 431 254 431 l 451 431 l 451 488 q 422 582 451 554 q 319 610 393 610 l 307 610 q 224 598 251 610 q 186 559 197 586 l 93 599 q 172 686 118 660 q 307 711 226 711 z "},"á":{"ha":625,"x_min":73,"x_max":553,"o":"m 269 793 l 174 884 l 349 1069 l 444 977 l 269 793 m 307 330 q 245 318 273 330 q 204 290 218 307 q 182 257 189 273 q 174 229 174 241 l 174 176 q 208 116 174 146 q 307 85 241 85 l 319 85 q 410 130 369 85 q 451 205 451 175 l 451 330 l 307 330 m 307 711 l 319 711 q 415 699 373 711 q 482 665 456 686 q 524 614 508 644 q 547 554 541 585 q 553 488 553 524 l 553 0 l 451 0 l 451 33 q 319 -17 392 -12 l 307 -17 q 209 0 254 -17 q 134 45 163 17 q 89 106 105 73 q 73 176 73 140 l 73 229 q 89 299 73 263 q 134 364 105 334 q 208 413 163 394 q 307 431 254 431 l 451 431 l 451 488 q 422 582 451 554 q 319 610 393 610 l 307 610 q 224 598 251 610 q 186 559 197 586 l 93 599 q 172 686 118 660 q 307 711 226 711 z "},"â":{"ha":625,"x_min":73,"x_max":553,"o":"m 378 954 l 491 875 l 433 793 l 326 866 l 220 793 l 161 875 l 274 954 l 378 954 m 307 330 q 245 318 273 330 q 204 290 218 307 q 182 257 189 273 q 174 229 174 241 l 174 176 q 208 116 174 146 q 307 85 241 85 l 319 85 q 410 130 369 85 q 451 205 451 175 l 451 330 l 307 330 m 307 711 l 319 711 q 415 699 373 711 q 482 665 456 686 q 524 614 508 644 q 547 554 541 585 q 553 488 553 524 l 553 0 l 451 0 l 451 33 q 319 -17 392 -12 l 307 -17 q 209 0 254 -17 q 134 45 163 17 q 89 106 105 73 q 73 176 73 140 l 73 229 q 89 299 73 263 q 134 364 105 334 q 208 413 163 394 q 307 431 254 431 l 451 431 l 451 488 q 422 582 451 554 q 319 610 393 610 l 307 610 q 224 598 251 610 q 186 559 197 586 l 93 599 q 172 686 118 660 q 307 711 226 711 z "},"ã":{"ha":625,"x_min":73,"x_max":553,"o":"m 101 897 q 232 975 163 975 l 243 975 q 345 938 302 975 l 358 926 q 393 914 373 914 l 404 914 q 430 922 420 916 q 454 950 440 928 l 465 966 l 549 909 l 538 893 q 404 812 484 812 l 393 812 q 341 822 370 812 q 290 850 311 832 l 276 863 q 243 873 264 873 l 232 873 q 210 866 220 873 q 182 837 199 858 l 170 819 l 88 880 l 101 897 m 307 330 q 245 318 273 330 q 204 290 218 307 q 182 257 189 273 q 174 229 174 241 l 174 176 q 208 116 174 146 q 307 85 241 85 l 319 85 q 410 130 369 85 q 451 205 451 175 l 451 330 l 307 330 m 307 711 l 319 711 q 415 699 373 711 q 482 665 456 686 q 524 614 508 644 q 547 554 541 585 q 553 488 553 524 l 553 0 l 451 0 l 451 33 q 319 -17 392 -12 l 307 -17 q 209 0 254 -17 q 134 45 163 17 q 89 106 105 73 q 73 176 73 140 l 73 229 q 89 299 73 263 q 134 364 105 334 q 208 413 163 394 q 307 431 254 431 l 451 431 l 451 488 q 422 582 451 554 q 319 610 393 610 l 307 610 q 224 598 251 610 q 186 559 197 586 l 93 599 q 172 686 118 660 q 307 711 226 711 z "},"ä":{"ha":625,"x_min":73,"x_max":567,"o":"m 213 904 q 224 893 213 904 q 235 850 235 882 q 213 796 235 819 q 161 772 191 772 q 107 795 130 772 q 85 850 85 818 q 107 905 85 884 q 159 927 130 927 q 213 904 191 927 m 544 905 q 556 895 544 905 q 567 850 567 884 q 545 795 567 817 q 493 772 522 772 q 440 795 463 772 q 418 850 418 819 q 440 905 418 883 q 493 927 463 927 q 544 905 522 927 m 307 330 q 245 318 273 330 q 204 290 218 307 q 182 257 189 273 q 174 229 174 241 l 174 176 q 208 116 174 146 q 307 85 241 85 l 319 85 q 410 130 369 85 q 451 205 451 175 l 451 330 l 307 330 m 307 711 l 319 711 q 415 699 373 711 q 482 665 456 686 q 524 614 508 644 q 547 554 541 585 q 553 488 553 524 l 553 0 l 451 0 l 451 33 q 319 -17 392 -12 l 307 -17 q 209 0 254 -17 q 134 45 163 17 q 89 106 105 73 q 73 176 73 140 l 73 229 q 89 299 73 263 q 134 364 105 334 q 208 413 163 394 q 307 431 254 431 l 451 431 l 451 488 q 422 582 451 554 q 319 610 393 610 l 307 610 q 224 598 251 610 q 186 559 197 586 l 93 599 q 172 686 118 660 q 307 711 226 711 z "},"å":{"ha":625,"x_min":73,"x_max":553,"o":"m 223 831 q 203 851 223 831 q 184 928 184 871 q 223 1025 184 985 q 319 1065 262 1065 q 417 1025 376 1065 q 458 928 458 985 q 417 831 458 871 q 319 791 376 791 q 223 831 262 791 m 276 972 q 267 963 276 972 q 258 928 258 954 q 276 884 258 903 q 320 866 294 866 q 365 884 346 866 q 383 928 383 903 q 365 972 383 954 q 320 991 346 991 q 276 972 294 991 m 307 330 q 245 318 273 330 q 204 290 218 307 q 182 257 189 273 q 174 229 174 241 l 174 176 q 208 116 174 146 q 307 85 241 85 l 319 85 q 410 130 369 85 q 451 205 451 175 l 451 330 l 307 330 m 307 711 l 319 711 q 415 699 373 711 q 482 665 456 686 q 524 614 508 644 q 547 554 541 585 q 553 488 553 524 l 553 0 l 451 0 l 451 33 q 319 -17 392 -12 l 307 -17 q 209 0 254 -17 q 134 45 163 17 q 89 106 105 73 q 73 176 73 140 l 73 229 q 89 299 73 263 q 134 364 105 334 q 208 413 163 394 q 307 431 254 431 l 451 431 l 451 488 q 422 582 451 554 q 319 610 393 610 l 307 610 q 224 598 251 610 q 186 559 197 586 l 93 599 q 172 686 118 660 q 307 711 226 711 z "},"æ":{"ha":625,"x_min":18,"x_max":608,"o":"m 262 317 l 193 317 q 141 296 162 317 q 119 243 119 275 l 119 149 q 139 102 119 119 q 191 85 159 85 q 239 103 216 85 q 262 149 262 122 l 262 317 m 363 418 l 506 418 l 506 546 q 486 593 506 576 q 435 610 466 610 q 386 591 408 610 q 363 546 363 573 l 363 418 m 363 149 q 386 102 363 120 q 435 85 408 85 q 485 102 465 85 q 506 149 506 119 l 608 149 q 557 30 608 76 q 435 -17 507 -17 q 312 33 363 -17 q 191 -17 260 -17 q 68 30 118 -17 q 18 149 18 76 l 18 243 q 68 367 18 316 q 193 418 119 418 l 262 418 l 262 546 q 239 592 262 574 q 191 610 217 610 q 140 593 161 610 q 119 546 119 576 l 18 546 q 69 665 18 619 q 191 711 120 711 q 313 663 262 711 q 435 711 364 711 q 557 665 507 711 q 608 546 608 619 l 608 317 l 363 317 l 363 149 z "},"ç":{"ha":625,"x_min":73,"x_max":541,"o":"m 425 -192 q 397 -150 425 -165 q 342 -135 370 -135 l 288 -135 l 297 -7 l 297 3 l 399 3 l 399 -11 l 396 -52 q 527 -192 527 -75 q 508 -262 527 -231 q 460 -308 489 -292 q 402 -331 431 -323 q 350 -338 374 -338 q 180 -274 255 -338 l 247 -203 q 350 -243 293 -243 q 399 -230 374 -243 q 425 -192 425 -216 m 319 609 l 307 609 q 241 591 269 609 q 200 542 214 573 q 180 478 186 511 q 174 405 174 444 l 174 290 q 213 141 174 198 q 307 85 252 85 l 319 85 q 404 98 375 85 q 443 144 432 111 l 539 111 q 319 -17 496 -17 l 307 -17 q 139 69 206 -17 q 73 290 73 155 l 73 405 q 97 561 73 493 q 176 670 122 629 q 307 711 230 711 l 319 711 q 541 578 500 711 l 443 548 q 426 580 437 568 q 389 601 415 593 q 319 609 362 609 z "},"è":{"ha":625,"x_min":73,"x_max":553,"o":"m 435 883 l 340 791 l 165 976 l 260 1067 l 435 883 m 174 330 l 174 229 q 208 126 174 168 q 307 85 241 85 l 319 85 q 410 101 383 85 q 445 151 436 118 l 543 123 q 319 -17 505 -17 l 307 -17 q 135 55 198 -17 q 73 229 73 127 l 73 488 q 79 554 73 524 q 101 614 85 585 q 143 665 117 644 q 211 699 169 686 q 307 711 252 711 l 319 711 q 415 699 373 711 q 482 665 456 686 q 524 614 508 644 q 547 554 541 585 q 553 488 553 524 l 553 330 l 174 330 m 451 431 l 451 488 q 422 582 451 554 q 319 610 393 610 l 307 610 q 203 582 233 610 q 174 488 174 554 l 174 431 l 451 431 z "},"é":{"ha":625,"x_min":73,"x_max":553,"o":"m 281 794 l 186 886 l 361 1070 l 456 979 l 281 794 m 174 330 l 174 229 q 208 126 174 168 q 307 85 241 85 l 319 85 q 410 101 383 85 q 445 151 436 118 l 543 123 q 319 -17 505 -17 l 307 -17 q 135 55 198 -17 q 73 229 73 127 l 73 488 q 79 554 73 524 q 101 614 85 585 q 143 665 117 644 q 211 699 169 686 q 307 711 252 711 l 319 711 q 415 699 373 711 q 482 665 456 686 q 524 614 508 644 q 547 554 541 585 q 553 488 553 524 l 553 330 l 174 330 m 451 431 l 451 488 q 422 582 451 554 q 319 610 393 610 l 307 610 q 203 582 233 610 q 174 488 174 554 l 174 431 l 451 431 z "},"ê":{"ha":625,"x_min":73,"x_max":553,"o":"m 380 956 l 493 876 l 435 794 l 328 867 l 222 794 l 163 876 l 276 956 l 380 956 m 174 330 l 174 229 q 208 126 174 168 q 307 85 241 85 l 319 85 q 410 101 383 85 q 445 151 436 118 l 543 123 q 319 -17 505 -17 l 307 -17 q 135 55 198 -17 q 73 229 73 127 l 73 488 q 79 554 73 524 q 101 614 85 585 q 143 665 117 644 q 211 699 169 686 q 307 711 252 711 l 319 711 q 415 699 373 711 q 482 665 456 686 q 524 614 508 644 q 547 554 541 585 q 553 488 553 524 l 553 330 l 174 330 m 451 431 l 451 488 q 422 582 451 554 q 319 610 393 610 l 307 610 q 203 582 233 610 q 174 488 174 554 l 174 431 l 451 431 z "},"ë":{"ha":625,"x_min":73,"x_max":569,"o":"m 215 906 q 226 894 215 906 q 237 852 237 883 q 215 797 237 821 q 163 774 193 774 q 109 797 132 774 q 87 852 87 819 q 110 907 87 885 q 161 928 132 928 q 215 906 193 928 m 546 907 q 558 896 546 907 q 569 852 569 885 q 547 796 569 819 q 495 774 524 774 q 442 797 465 774 q 420 852 420 820 q 442 906 420 884 q 495 928 465 928 q 546 907 524 928 m 174 330 l 174 229 q 208 126 174 168 q 307 85 241 85 l 319 85 q 410 101 383 85 q 445 151 436 118 l 543 123 q 319 -17 505 -17 l 307 -17 q 135 55 198 -17 q 73 229 73 127 l 73 488 q 79 554 73 524 q 101 614 85 585 q 143 665 117 644 q 211 699 169 686 q 307 711 252 711 l 319 711 q 415 699 373 711 q 482 665 456 686 q 524 614 508 644 q 547 554 541 585 q 553 488 553 524 l 553 330 l 174 330 m 451 431 l 451 488 q 422 582 451 554 q 319 610 393 610 l 307 610 q 203 582 233 610 q 174 488 174 554 l 174 431 l 451 431 z "},"ì":{"ha":625,"x_min":123,"x_max":502,"o":"m 427 895 l 332 803 l 157 987 l 252 1079 l 427 895 m 123 694 l 363 694 l 363 102 l 502 102 l 502 0 l 123 0 l 123 102 l 262 102 l 262 593 l 123 593 l 123 694 z "},"í":{"ha":625,"x_min":123,"x_max":506,"o":"m 331 792 l 236 884 l 411 1068 l 506 977 l 331 792 m 123 694 l 363 694 l 363 102 l 502 102 l 502 0 l 123 0 l 123 102 l 262 102 l 262 593 l 123 593 l 123 694 z "},"î":{"ha":625,"x_min":123,"x_max":502,"o":"m 371 954 l 484 875 l 425 793 l 319 866 l 212 793 l 154 875 l 267 954 l 371 954 m 123 694 l 363 694 l 363 102 l 502 102 l 502 0 l 123 0 l 123 102 l 262 102 l 262 593 l 123 593 l 123 694 z "},"ï":{"ha":625,"x_min":77,"x_max":559,"o":"m 206 904 q 217 893 206 904 q 228 850 228 882 q 206 796 228 819 q 153 772 184 772 q 100 795 122 772 q 77 850 77 818 q 100 905 77 884 q 152 927 123 927 q 206 904 184 927 m 537 905 q 548 895 537 905 q 559 850 559 884 q 537 795 559 817 q 486 772 515 772 q 433 795 455 772 q 410 850 410 819 q 433 905 410 883 q 486 927 455 927 q 537 905 514 927 m 123 694 l 363 694 l 363 102 l 502 102 l 502 0 l 123 0 l 123 102 l 262 102 l 262 593 l 123 593 l 123 694 z "},"ð":{"ha":625,"x_min":73,"x_max":553,"o":"m 174 310 l 174 290 q 213 141 174 198 q 307 85 252 85 l 319 85 q 384 103 357 85 q 425 152 411 121 q 445 216 439 182 q 451 290 451 250 l 451 310 q 445 384 451 349 q 425 452 439 418 q 384 505 411 485 q 319 525 357 525 l 307 525 q 241 505 269 525 q 200 452 214 485 q 180 384 186 418 q 174 310 174 349 m 307 627 l 319 627 q 401 611 364 627 q 308 766 366 688 l 143 699 l 105 792 l 240 848 q 152 932 201 890 l 217 1010 q 340 888 281 956 l 502 955 l 540 861 l 404 806 q 553 420 553 597 l 553 290 q 491 66 553 149 q 319 -17 430 -17 l 307 -17 q 139 70 206 -17 q 73 290 73 156 l 73 310 q 87 431 73 374 q 129 531 101 487 q 202 601 157 576 q 307 627 248 627 z "},"ñ":{"ha":625,"x_min":73,"x_max":553,"o":"m 87 899 q 218 977 149 977 l 229 977 q 332 939 288 977 l 345 928 q 379 916 359 916 l 391 916 q 416 923 406 917 q 441 951 427 930 l 452 968 l 536 911 l 525 895 q 391 814 471 814 l 379 814 q 327 824 357 814 q 277 852 298 833 l 262 864 q 229 875 250 875 l 218 875 q 196 867 207 875 q 169 838 186 859 l 156 821 l 75 882 l 87 899 m 174 0 l 73 0 l 73 694 l 174 694 l 174 649 q 307 711 235 711 l 319 711 q 415 699 373 711 q 482 665 456 686 q 524 614 508 644 q 547 554 541 585 q 553 488 553 524 l 553 0 l 451 0 l 451 488 q 422 582 451 554 q 319 610 393 610 l 307 610 q 242 573 274 610 q 193 490 211 537 q 174 405 174 442 l 174 0 z "},"ò":{"ha":625,"x_min":66,"x_max":559,"o":"m 422 894 l 328 802 l 153 987 l 248 1078 l 422 894 m 559 381 l 559 319 q 544 179 559 240 q 504 81 528 117 q 447 22 479 45 q 384 -9 414 -1 q 323 -17 354 -17 l 299 -17 q 125 77 185 -17 q 66 319 66 170 l 66 380 q 79 506 66 448 q 119 610 92 564 q 192 684 146 657 q 298 711 238 711 l 324 711 q 431 684 385 711 q 504 612 477 658 q 546 507 532 566 q 559 381 559 449 m 324 609 l 298 609 q 234 588 260 609 q 193 532 207 568 q 174 460 180 497 q 168 380 168 422 l 168 319 q 174 238 168 277 q 194 164 180 200 q 235 106 208 127 q 299 85 262 85 l 323 85 q 378 99 354 85 q 417 135 402 113 q 441 189 432 158 q 454 252 450 220 q 458 319 458 283 l 458 381 q 454 445 458 414 q 441 506 451 475 q 417 559 432 536 q 379 595 403 581 q 324 609 355 609 z "},"ó":{"ha":625,"x_min":66,"x_max":559,"o":"m 317 803 l 222 895 l 397 1079 l 492 987 l 317 803 m 559 381 l 559 319 q 544 179 559 240 q 504 81 528 117 q 447 22 479 45 q 384 -9 414 -1 q 323 -17 354 -17 l 299 -17 q 125 77 185 -17 q 66 319 66 170 l 66 380 q 79 506 66 448 q 119 610 92 564 q 192 684 146 657 q 298 711 238 711 l 324 711 q 431 684 385 711 q 504 612 477 658 q 546 507 532 566 q 559 381 559 449 m 324 609 l 298 609 q 234 588 260 609 q 193 532 207 568 q 174 460 180 497 q 168 380 168 422 l 168 319 q 174 238 168 277 q 194 164 180 200 q 235 106 208 127 q 299 85 262 85 l 323 85 q 378 99 354 85 q 417 135 402 113 q 441 189 432 158 q 454 252 450 220 q 458 319 458 283 l 458 381 q 454 445 458 414 q 441 506 451 475 q 417 559 432 536 q 379 595 403 581 q 324 609 355 609 z "},"ô":{"ha":625,"x_min":66,"x_max":559,"o":"m 373 954 l 486 875 l 427 793 l 321 866 l 214 793 l 156 875 l 269 954 l 373 954 m 559 381 l 559 319 q 544 179 559 240 q 504 81 528 117 q 447 22 479 45 q 384 -9 414 -1 q 323 -17 354 -17 l 299 -17 q 125 77 185 -17 q 66 319 66 170 l 66 380 q 79 506 66 448 q 119 610 92 564 q 192 684 146 657 q 298 711 238 711 l 324 711 q 431 684 385 711 q 504 612 477 658 q 546 507 532 566 q 559 381 559 449 m 324 609 l 298 609 q 234 588 260 609 q 193 532 207 568 q 174 460 180 497 q 168 380 168 422 l 168 319 q 174 238 168 277 q 194 164 180 200 q 235 106 208 127 q 299 85 262 85 l 323 85 q 378 99 354 85 q 417 135 402 113 q 441 189 432 158 q 454 252 450 220 q 458 319 458 283 l 458 381 q 454 445 458 414 q 441 506 451 475 q 417 559 432 536 q 379 595 403 581 q 324 609 355 609 z "},"õ":{"ha":625,"x_min":66,"x_max":559,"o":"m 94 897 q 225 975 156 975 l 236 975 q 338 938 295 975 l 351 926 q 386 914 366 914 l 397 914 q 423 922 413 916 q 448 950 433 928 l 458 966 l 543 909 l 532 893 q 397 812 477 812 l 386 812 q 334 822 363 812 q 283 850 304 832 l 269 863 q 236 873 257 873 l 225 873 q 203 866 214 873 q 176 837 193 858 l 163 819 l 81 880 l 94 897 m 559 381 l 559 319 q 544 179 559 240 q 504 81 528 117 q 447 22 479 45 q 384 -9 414 -1 q 323 -17 354 -17 l 299 -17 q 125 77 185 -17 q 66 319 66 170 l 66 380 q 79 506 66 448 q 119 610 92 564 q 192 684 146 657 q 298 711 238 711 l 324 711 q 431 684 385 711 q 504 612 477 658 q 546 507 532 566 q 559 381 559 449 m 324 609 l 298 609 q 234 588 260 609 q 193 532 207 568 q 174 460 180 497 q 168 380 168 422 l 168 319 q 174 238 168 277 q 194 164 180 200 q 235 106 208 127 q 299 85 262 85 l 323 85 q 378 99 354 85 q 417 135 402 113 q 441 189 432 158 q 454 252 450 220 q 458 319 458 283 l 458 381 q 454 445 458 414 q 441 506 451 475 q 417 559 432 536 q 379 595 403 581 q 324 609 355 609 z "},"ö":{"ha":625,"x_min":66,"x_max":562,"o":"m 208 904 q 219 893 208 904 q 230 850 230 882 q 208 796 230 819 q 155 772 186 772 q 102 795 124 772 q 79 850 79 818 q 102 905 79 884 q 154 927 125 927 q 208 904 186 927 m 539 905 q 550 895 539 905 q 562 850 562 884 q 539 795 562 817 q 488 772 517 772 q 435 795 457 772 q 412 850 412 819 q 435 905 412 883 q 488 927 457 927 q 539 905 516 927 m 559 381 l 559 319 q 544 179 559 240 q 504 81 528 117 q 447 22 479 45 q 384 -9 414 -1 q 323 -17 354 -17 l 299 -17 q 125 77 185 -17 q 66 319 66 170 l 66 380 q 79 506 66 448 q 119 610 92 564 q 192 684 146 657 q 298 711 238 711 l 324 711 q 431 684 385 711 q 504 612 477 658 q 546 507 532 566 q 559 381 559 449 m 324 609 l 298 609 q 234 588 260 609 q 193 532 207 568 q 174 460 180 497 q 168 380 168 422 l 168 319 q 174 238 168 277 q 194 164 180 200 q 235 106 208 127 q 299 85 262 85 l 323 85 q 378 99 354 85 q 417 135 402 113 q 441 189 432 158 q 454 252 450 220 q 458 319 458 283 l 458 381 q 454 445 458 414 q 441 506 451 475 q 417 559 432 536 q 379 595 403 581 q 324 609 355 609 z "},"÷":{"ha":625,"x_min":34,"x_max":591,"o":"m 591 458 l 591 356 l 34 356 l 34 458 l 591 458 m 371 702 q 382 691 371 702 q 393 651 393 679 q 371 600 393 623 q 319 576 349 576 q 265 601 286 576 q 244 651 244 625 q 265 702 244 677 q 319 726 286 726 q 371 702 349 726 m 393 165 q 371 113 393 136 q 319 90 350 90 q 266 113 288 90 q 244 165 244 137 q 266 214 244 191 q 319 237 288 237 q 371 214 350 237 q 393 165 393 191 z "},"ø":{"ha":625,"x_min":54,"x_max":575,"o":"m 449 476 l 236 106 q 299 85 264 85 l 323 85 q 378 99 354 85 q 417 135 402 113 q 441 189 432 158 q 454 252 450 220 q 458 319 458 283 l 458 381 q 449 476 458 431 m 324 609 l 298 609 q 234 588 260 609 q 193 532 207 568 q 174 460 180 497 q 168 380 168 422 l 168 319 q 179 210 168 260 l 395 585 q 324 609 366 609 m 487 745 l 575 694 l 515 592 q 559 381 559 507 l 559 319 q 544 179 559 240 q 504 81 528 117 q 447 22 479 45 q 384 -9 414 -1 q 323 -17 354 -17 l 299 -17 q 184 16 235 -17 l 142 -58 l 54 -7 l 113 96 q 66 319 66 184 l 66 380 q 79 506 66 448 q 119 610 92 564 q 192 684 146 657 q 298 711 238 711 l 324 711 q 446 674 395 711 l 487 745 z "},"ù":{"ha":625,"x_min":73,"x_max":553,"o":"m 421 886 l 326 795 l 151 979 l 246 1071 l 421 886 m 451 694 l 553 694 l 553 0 l 451 0 l 451 60 q 305 -17 383 -17 l 293 -17 q 211 -5 248 -17 q 141 34 173 7 q 91 111 109 61 q 73 229 73 160 l 73 694 l 174 694 l 174 229 q 204 116 174 147 q 293 85 233 85 l 305 85 q 372 124 337 85 q 429 215 408 163 q 451 303 451 267 l 451 694 z "},"ú":{"ha":625,"x_min":73,"x_max":553,"o":"m 302 789 l 208 880 l 382 1065 l 477 973 l 302 789 m 451 694 l 553 694 l 553 0 l 451 0 l 451 60 q 305 -17 383 -17 l 293 -17 q 211 -5 248 -17 q 141 34 173 7 q 91 111 109 61 q 73 229 73 160 l 73 694 l 174 694 l 174 229 q 204 116 174 147 q 293 85 233 85 l 305 85 q 372 124 337 85 q 429 215 408 163 q 451 303 451 267 l 451 694 z "},"û":{"ha":625,"x_min":73,"x_max":553,"o":"m 365 954 l 477 875 l 419 793 l 313 866 l 206 793 l 148 875 l 260 954 l 365 954 m 451 694 l 553 694 l 553 0 l 451 0 l 451 60 q 305 -17 383 -17 l 293 -17 q 211 -5 248 -17 q 141 34 173 7 q 91 111 109 61 q 73 229 73 160 l 73 694 l 174 694 l 174 229 q 204 116 174 147 q 293 85 233 85 l 305 85 q 372 124 337 85 q 429 215 408 163 q 451 303 451 267 l 451 694 z "},"ü":{"ha":625,"x_min":71,"x_max":553,"o":"m 200 904 q 211 893 200 904 q 222 850 222 882 q 200 796 222 819 q 147 772 178 772 q 94 795 116 772 q 71 850 71 818 q 94 905 71 884 q 146 927 117 927 q 200 904 178 927 m 531 905 q 542 895 531 905 q 553 850 553 884 q 531 795 553 817 q 479 772 509 772 q 427 795 449 772 q 404 850 404 819 q 427 905 404 883 q 479 927 449 927 q 531 905 508 927 m 451 694 l 553 694 l 553 0 l 451 0 l 451 60 q 305 -17 383 -17 l 293 -17 q 211 -5 248 -17 q 141 34 173 7 q 91 111 109 61 q 73 229 73 160 l 73 694 l 174 694 l 174 229 q 204 116 174 147 q 293 85 233 85 l 305 85 q 372 124 337 85 q 429 215 408 163 q 451 303 451 267 l 451 694 z "},"ý":{"ha":625,"x_min":56,"x_max":570,"o":"m 296 781 l 201 872 l 376 1057 l 471 965 l 296 781 m 570 694 l 393 -88 q 365 -164 383 -132 q 328 -213 347 -197 q 286 -238 309 -229 q 249 -249 262 -247 q 220 -250 235 -250 q 121 -216 166 -250 q 56 -134 76 -182 l 150 -96 q 179 -133 159 -117 q 220 -149 199 -149 q 265 -123 243 -149 q 296 -61 288 -98 l 326 71 l 73 694 l 184 694 l 365 247 l 466 694 l 570 694 z "},"þ":{"ha":625,"x_min":73,"x_max":559,"o":"m 174 254 q 212 131 174 176 q 313 85 249 85 q 458 348 458 85 q 313 609 458 609 q 212 575 249 609 q 174 465 174 541 l 174 254 m 559 348 q 551 230 559 283 q 528 139 543 176 q 493 73 514 102 q 451 28 473 45 q 405 1 430 12 q 357 -13 379 -9 q 313 -17 336 -17 q 174 26 233 -17 l 174 -261 l 73 -261 l 73 949 l 174 949 l 174 674 q 313 711 233 711 q 377 703 347 711 q 442 672 407 696 q 502 610 477 648 q 543 504 526 572 q 559 348 559 437 z "},"ÿ":{"ha":625,"x_min":56,"x_max":570,"o":"m 213 904 q 224 893 213 904 q 235 850 235 882 q 213 796 235 819 q 161 772 191 772 q 107 795 130 772 q 85 850 85 818 q 107 905 85 884 q 159 927 130 927 q 213 904 191 927 m 544 905 q 556 895 544 905 q 567 850 567 884 q 545 795 567 817 q 493 772 522 772 q 440 795 463 772 q 418 850 418 819 q 440 905 418 883 q 493 927 463 927 q 544 905 522 927 m 570 694 l 393 -88 q 365 -164 383 -132 q 328 -213 347 -197 q 286 -238 309 -229 q 249 -249 262 -247 q 220 -250 235 -250 q 121 -216 166 -250 q 56 -134 76 -182 l 150 -96 q 179 -133 159 -117 q 220 -149 199 -149 q 265 -123 243 -149 q 296 -61 288 -98 l 326 71 l 73 694 l 184 694 l 365 247 l 466 694 l 570 694 z "},"Ā":{"ha":625,"x_min":60,"x_max":565,"o":"m 159 1021 l 159 1123 l 467 1123 l 467 1021 l 159 1021 m 223 271 l 402 271 l 313 681 l 223 271 m 163 0 l 60 0 l 271 966 l 355 966 l 565 0 l 461 0 l 425 169 l 201 169 l 163 0 z "},"ā":{"ha":625,"x_min":73,"x_max":553,"o":"m 172 770 l 172 871 l 479 871 l 479 770 l 172 770 m 307 330 q 245 318 273 330 q 204 290 218 307 q 182 257 189 273 q 174 229 174 241 l 174 176 q 208 116 174 146 q 307 85 241 85 l 319 85 q 410 130 369 85 q 451 205 451 175 l 451 330 l 307 330 m 307 711 l 319 711 q 415 699 373 711 q 482 665 456 686 q 524 614 508 644 q 547 554 541 585 q 553 488 553 524 l 553 0 l 451 0 l 451 33 q 319 -17 392 -12 l 307 -17 q 209 0 254 -17 q 134 45 163 17 q 89 106 105 73 q 73 176 73 140 l 73 229 q 89 299 73 263 q 134 364 105 334 q 208 413 163 394 q 307 431 254 431 l 451 431 l 451 488 q 422 582 451 554 q 319 610 393 610 l 307 610 q 224 598 251 610 q 186 559 197 586 l 93 599 q 172 686 118 660 q 307 711 226 711 z "},"Ă":{"ha":625,"x_min":60,"x_max":565,"o":"m 311 998 q 204 1023 254 998 q 117 1093 153 1048 l 195 1158 q 311 1100 242 1100 q 432 1158 382 1100 l 509 1093 q 420 1023 472 1048 q 311 998 369 998 m 223 271 l 402 271 l 313 681 l 223 271 m 163 0 l 60 0 l 271 966 l 355 966 l 565 0 l 461 0 l 425 169 l 201 169 l 163 0 z "},"ă":{"ha":625,"x_min":73,"x_max":553,"o":"m 324 793 q 217 818 267 793 q 130 887 166 843 l 208 952 q 324 895 255 895 q 445 953 395 895 l 522 887 q 433 818 485 843 q 324 793 382 793 m 307 330 q 245 318 273 330 q 204 290 218 307 q 182 257 189 273 q 174 229 174 241 l 174 176 q 208 116 174 146 q 307 85 241 85 l 319 85 q 410 130 369 85 q 451 205 451 175 l 451 330 l 307 330 m 307 711 l 319 711 q 415 699 373 711 q 482 665 456 686 q 524 614 508 644 q 547 554 541 585 q 553 488 553 524 l 553 0 l 451 0 l 451 33 q 319 -17 392 -12 l 307 -17 q 209 0 254 -17 q 134 45 163 17 q 89 106 105 73 q 73 176 73 140 l 73 229 q 89 299 73 263 q 134 364 105 334 q 208 413 163 394 q 307 431 254 431 l 451 431 l 451 488 q 422 582 451 554 q 319 610 393 610 l 307 610 q 224 598 251 610 q 186 559 197 586 l 93 599 q 172 686 118 660 q 307 711 226 711 z "},"Ą":{"ha":625,"x_min":60,"x_max":587,"o":"m 569 -248 q 479 -281 529 -281 q 381 -241 422 -281 q 341 -143 341 -200 q 380 -47 341 -87 l 451 24 l 451 52 l 553 52 l 553 -18 l 453 -117 q 443 -143 443 -129 q 454 -169 443 -158 q 479 -180 465 -180 q 503 -171 492 -180 l 521 -155 l 587 -232 l 569 -248 m 223 271 l 402 271 l 313 681 l 223 271 m 163 0 l 60 0 l 271 966 l 355 966 l 565 0 l 461 0 l 425 169 l 201 169 l 163 0 z "},"ą":{"ha":625,"x_min":73,"x_max":587,"o":"m 569 -260 q 479 -294 529 -294 q 381 -253 422 -294 q 341 -155 341 -212 q 380 -59 341 -100 l 451 12 l 451 40 l 553 40 l 553 -30 l 453 -130 q 443 -155 443 -141 q 454 -181 443 -170 q 479 -192 465 -192 q 503 -183 492 -192 l 521 -168 l 587 -244 l 569 -260 m 307 330 q 245 318 273 330 q 204 290 218 307 q 182 257 189 273 q 174 229 174 241 l 174 176 q 208 116 174 146 q 307 85 241 85 l 319 85 q 410 130 369 85 q 451 205 451 175 l 451 330 l 307 330 m 307 711 l 319 711 q 415 699 373 711 q 482 665 456 686 q 524 614 508 644 q 547 554 541 585 q 553 488 553 524 l 553 0 l 451 0 l 451 33 q 319 -17 392 -12 l 307 -17 q 209 0 254 -17 q 134 45 163 17 q 89 106 105 73 q 73 176 73 140 l 73 229 q 89 299 73 263 q 134 364 105 334 q 208 413 163 394 q 307 431 254 431 l 451 431 l 451 488 q 422 582 451 554 q 319 610 393 610 l 307 610 q 224 598 251 610 q 186 559 197 586 l 93 599 q 172 686 118 660 q 307 711 226 711 z "},"Ć":{"ha":625,"x_min":66,"x_max":553,"o":"m 349 939 l 254 1031 l 429 1215 l 524 1124 l 349 939 m 330 -17 l 309 -17 q 246 -7 276 -17 q 182 34 216 2 q 123 116 147 65 q 82 259 98 168 q 66 472 66 351 l 66 517 q 309 966 66 966 l 330 966 q 398 956 367 966 q 451 930 430 945 q 491 891 473 915 q 518 849 509 867 q 537 805 528 831 q 548 769 545 779 q 553 743 550 759 l 454 722 q 432 795 446 766 q 401 839 418 825 q 367 859 384 854 q 330 865 351 865 l 309 865 q 202 780 237 865 q 168 517 168 695 l 168 472 q 170 376 168 422 q 182 275 173 330 q 206 179 191 220 q 247 112 220 139 q 309 85 274 85 l 330 85 q 350 86 341 85 q 374 96 359 88 q 401 118 389 104 q 426 159 413 132 q 448 225 439 187 l 547 202 q 510 102 533 144 q 465 37 488 59 q 415 2 443 15 q 369 -14 387 -11 q 330 -17 350 -17 z "},"ć":{"ha":625,"x_min":73,"x_max":541,"o":"m 300 796 l 205 888 l 380 1072 l 475 981 l 300 796 m 319 609 l 307 609 q 241 591 269 609 q 200 542 214 573 q 180 478 186 511 q 174 405 174 444 l 174 290 q 213 141 174 198 q 307 85 252 85 l 319 85 q 404 98 375 85 q 443 144 432 111 l 539 111 q 319 -17 496 -17 l 307 -17 q 139 69 206 -17 q 73 290 73 155 l 73 405 q 97 561 73 493 q 176 670 122 629 q 307 711 230 711 l 319 711 q 541 578 500 711 l 443 548 q 426 580 437 568 q 389 601 415 593 q 319 609 362 609 z "},"Ĉ":{"ha":625,"x_min":66,"x_max":553,"o":"m 391 1156 l 504 1076 l 446 994 l 339 1067 l 233 994 l 174 1076 l 287 1156 l 391 1156 m 330 -17 l 309 -17 q 246 -7 276 -17 q 182 34 216 2 q 123 116 147 65 q 82 259 98 168 q 66 472 66 351 l 66 517 q 309 966 66 966 l 330 966 q 398 956 367 966 q 451 930 430 945 q 491 891 473 915 q 518 849 509 867 q 537 805 528 831 q 548 769 545 779 q 553 743 550 759 l 454 722 q 432 795 446 766 q 401 839 418 825 q 367 859 384 854 q 330 865 351 865 l 309 865 q 202 780 237 865 q 168 517 168 695 l 168 472 q 170 376 168 422 q 182 275 173 330 q 206 179 191 220 q 247 112 220 139 q 309 85 274 85 l 330 85 q 350 86 341 85 q 374 96 359 88 q 401 118 389 104 q 426 159 413 132 q 448 225 439 187 l 547 202 q 510 102 533 144 q 465 37 488 59 q 415 2 443 15 q 369 -14 387 -11 q 330 -17 350 -17 z "},"ĉ":{"ha":625,"x_min":73,"x_max":541,"o":"m 399 954 l 511 875 l 453 793 l 347 866 l 240 793 l 182 875 l 294 954 l 399 954 m 319 609 l 307 609 q 241 591 269 609 q 200 542 214 573 q 180 478 186 511 q 174 405 174 444 l 174 290 q 213 141 174 198 q 307 85 252 85 l 319 85 q 404 98 375 85 q 443 144 432 111 l 539 111 q 319 -17 496 -17 l 307 -17 q 139 69 206 -17 q 73 290 73 155 l 73 405 q 97 561 73 493 q 176 670 122 629 q 307 711 230 711 l 319 711 q 541 578 500 711 l 443 548 q 426 580 437 568 q 389 601 415 593 q 319 609 362 609 z "},"Ċ":{"ha":625,"x_min":66,"x_max":553,"o":"m 280 1013 q 268 1024 280 1013 q 257 1069 257 1036 q 280 1125 257 1102 q 336 1148 302 1148 q 392 1125 369 1148 q 416 1069 416 1102 q 392 1013 416 1036 q 336 989 369 989 q 280 1013 302 989 m 330 -17 l 309 -17 q 246 -7 276 -17 q 182 34 216 2 q 123 116 147 65 q 82 259 98 168 q 66 472 66 351 l 66 517 q 309 966 66 966 l 330 966 q 398 956 367 966 q 451 930 430 945 q 491 891 473 915 q 518 849 509 867 q 537 805 528 831 q 548 769 545 779 q 553 743 550 759 l 454 722 q 432 795 446 766 q 401 839 418 825 q 367 859 384 854 q 330 865 351 865 l 309 865 q 202 780 237 865 q 168 517 168 695 l 168 472 q 170 376 168 422 q 182 275 173 330 q 206 179 191 220 q 247 112 220 139 q 309 85 274 85 l 330 85 q 350 86 341 85 q 374 96 359 88 q 401 118 389 104 q 426 159 413 132 q 448 225 439 187 l 547 202 q 510 102 533 144 q 465 37 488 59 q 415 2 443 15 q 369 -14 387 -11 q 330 -17 350 -17 z "},"ċ":{"ha":625,"x_min":73,"x_max":541,"o":"m 287 823 q 276 835 287 823 q 264 880 264 846 q 287 936 264 913 q 343 959 310 959 q 400 936 376 959 q 423 880 423 913 q 400 823 423 846 q 343 800 376 800 q 287 823 310 800 m 319 609 l 307 609 q 241 591 269 609 q 200 542 214 573 q 180 478 186 511 q 174 405 174 444 l 174 290 q 213 141 174 198 q 307 85 252 85 l 319 85 q 404 98 375 85 q 443 144 432 111 l 539 111 q 319 -17 496 -17 l 307 -17 q 139 69 206 -17 q 73 290 73 155 l 73 405 q 97 561 73 493 q 176 670 122 629 q 307 711 230 711 l 319 711 q 541 578 500 711 l 443 548 q 426 580 437 568 q 389 601 415 593 q 319 609 362 609 z "},"Č":{"ha":625,"x_min":66,"x_max":553,"o":"m 339 1097 l 446 1171 l 504 1088 l 391 1009 l 287 1009 l 174 1088 l 233 1171 l 339 1097 m 330 -17 l 309 -17 q 246 -7 276 -17 q 182 34 216 2 q 123 116 147 65 q 82 259 98 168 q 66 472 66 351 l 66 517 q 309 966 66 966 l 330 966 q 398 956 367 966 q 451 930 430 945 q 491 891 473 915 q 518 849 509 867 q 537 805 528 831 q 548 769 545 779 q 553 743 550 759 l 454 722 q 432 795 446 766 q 401 839 418 825 q 367 859 384 854 q 330 865 351 865 l 309 865 q 202 780 237 865 q 168 517 168 695 l 168 472 q 170 376 168 422 q 182 275 173 330 q 206 179 191 220 q 247 112 220 139 q 309 85 274 85 l 330 85 q 350 86 341 85 q 374 96 359 88 q 401 118 389 104 q 426 159 413 132 q 448 225 439 187 l 547 202 q 510 102 533 144 q 465 37 488 59 q 415 2 443 15 q 369 -14 387 -11 q 330 -17 350 -17 z "},"č":{"ha":625,"x_min":73,"x_max":541,"o":"m 347 896 l 453 970 l 511 887 l 399 808 l 294 808 l 182 887 l 240 970 l 347 896 m 319 609 l 307 609 q 241 591 269 609 q 200 542 214 573 q 180 478 186 511 q 174 405 174 444 l 174 290 q 213 141 174 198 q 307 85 252 85 l 319 85 q 404 98 375 85 q 443 144 432 111 l 539 111 q 319 -17 496 -17 l 307 -17 q 139 69 206 -17 q 73 290 73 155 l 73 405 q 97 561 73 493 q 176 670 122 629 q 307 711 230 711 l 319 711 q 541 578 500 711 l 443 548 q 426 580 437 568 q 389 601 415 593 q 319 609 362 609 z "},"Ď":{"ha":625,"x_min":73,"x_max":559,"o":"m 313 1097 l 419 1171 l 477 1088 l 365 1008 l 260 1008 l 148 1088 l 206 1171 l 313 1097 m 559 526 l 559 455 q 551 305 559 373 q 528 191 543 237 q 493 110 514 145 q 451 54 473 75 q 405 21 430 34 q 358 4 379 8 q 313 0 336 0 l 73 0 l 73 949 l 313 949 q 404 933 363 949 q 470 886 444 917 q 515 817 496 855 q 543 728 533 779 q 556 630 552 678 q 559 526 559 583 m 313 848 l 174 848 l 174 102 l 313 102 q 366 117 342 102 q 405 160 390 132 q 431 220 420 187 q 448 296 442 254 q 455 375 453 338 q 458 455 458 413 l 458 526 q 441 717 458 646 q 393 818 425 789 q 313 848 362 848 z "},"ď":{"ha":625,"x_min":9,"x_max":656,"o":"m 102 405 l 102 290 q 137 141 102 198 q 222 85 172 85 l 233 85 q 292 103 267 85 q 329 152 316 121 q 347 216 342 182 q 353 290 353 250 l 353 405 q 347 478 353 444 q 329 543 342 511 q 292 592 316 574 q 233 610 267 610 l 222 610 q 163 592 187 610 q 125 543 138 574 q 107 478 113 511 q 102 405 102 444 m 222 711 l 233 711 q 353 669 303 711 l 353 949 l 445 949 l 445 0 l 353 0 l 353 25 q 233 -17 303 -17 l 222 -17 q 70 70 131 -17 q 10 290 10 156 l 10 405 q 32 561 10 493 q 103 670 54 629 q 222 711 152 711 z "},"Đ":{"ha":625,"x_min":28,"x_max":559,"o":"m 559 496 q 558 407 559 448 q 550 314 556 366 q 533 219 544 261 q 504 135 523 177 q 460 64 486 92 q 397 18 435 36 q 313 0 359 0 l 100 0 l 100 462 l 28 462 l 28 564 l 100 564 l 100 949 l 313 949 q 396 935 359 949 q 458 898 433 921 q 502 839 484 874 q 532 766 521 803 q 549 680 543 728 q 557 590 555 632 q 559 496 559 548 m 313 848 l 201 848 l 201 564 l 307 564 l 307 462 l 201 462 l 201 102 l 313 102 q 422 198 387 102 q 458 496 458 295 q 424 769 458 690 q 313 848 390 848 z "},"đ":{"ha":625,"x_min":73,"x_max":585,"o":"m 174 405 l 174 290 q 213 141 174 198 q 307 85 252 85 l 319 85 q 384 103 357 85 q 425 152 411 121 q 445 216 439 182 q 451 290 451 250 l 451 405 q 445 478 451 444 q 425 543 439 511 q 384 592 411 574 q 319 610 357 610 l 307 610 q 241 592 269 610 q 200 543 214 574 q 180 478 186 511 q 174 405 174 444 m 307 711 l 319 711 q 451 669 396 711 l 451 817 l 251 817 l 251 919 l 451 919 l 451 949 l 553 949 l 553 919 l 585 919 l 585 817 l 553 817 l 553 0 l 451 0 l 451 25 q 319 -17 396 -17 l 307 -17 q 139 70 206 -17 q 73 290 73 156 l 73 405 q 97 561 73 493 q 176 670 122 629 q 307 711 230 711 z "},"Ē":{"ha":625,"x_min":73,"x_max":564,"o":"m 159 1019 l 159 1121 l 466 1121 l 466 1019 l 159 1019 m 174 483 l 174 102 l 564 102 l 564 0 l 73 0 l 73 949 l 564 949 l 564 848 l 174 848 l 174 585 l 502 585 l 502 483 l 174 483 z "},"ē":{"ha":625,"x_min":73,"x_max":553,"o":"m 174 771 l 174 873 l 481 873 l 481 771 l 174 771 m 174 330 l 174 229 q 208 126 174 168 q 307 85 241 85 l 319 85 q 410 101 383 85 q 445 151 436 118 l 543 123 q 319 -17 505 -17 l 307 -17 q 135 55 198 -17 q 73 229 73 127 l 73 488 q 79 554 73 524 q 101 614 85 585 q 143 665 117 644 q 211 699 169 686 q 307 711 252 711 l 319 711 q 415 699 373 711 q 482 665 456 686 q 524 614 508 644 q 547 554 541 585 q 553 488 553 524 l 553 330 l 174 330 m 451 431 l 451 488 q 422 582 451 554 q 319 610 393 610 l 307 610 q 203 582 233 610 q 174 488 174 554 l 174 431 l 451 431 z "},"Ĕ":{"ha":625,"x_min":73,"x_max":564,"o":"m 311 995 q 203 1020 254 995 q 116 1089 153 1045 l 194 1154 q 311 1097 241 1097 q 431 1155 382 1097 l 509 1089 q 420 1020 471 1045 q 311 995 368 995 m 174 483 l 174 102 l 564 102 l 564 0 l 73 0 l 73 949 l 564 949 l 564 848 l 174 848 l 174 585 l 502 585 l 502 483 l 174 483 z "},"ĕ":{"ha":625,"x_min":73,"x_max":553,"o":"m 326 794 q 219 819 269 794 q 132 888 168 844 l 210 954 q 326 896 257 896 q 447 954 397 896 l 524 888 q 435 819 487 844 q 326 794 384 794 m 174 330 l 174 229 q 208 126 174 168 q 307 85 241 85 l 319 85 q 410 101 383 85 q 445 151 436 118 l 543 123 q 319 -17 505 -17 l 307 -17 q 135 55 198 -17 q 73 229 73 127 l 73 488 q 79 554 73 524 q 101 614 85 585 q 143 665 117 644 q 211 699 169 686 q 307 711 252 711 l 319 711 q 415 699 373 711 q 482 665 456 686 q 524 614 508 644 q 547 554 541 585 q 553 488 553 524 l 553 330 l 174 330 m 451 431 l 451 488 q 422 582 451 554 q 319 610 393 610 l 307 610 q 203 582 233 610 q 174 488 174 554 l 174 431 l 451 431 z "},"Ė":{"ha":625,"x_min":73,"x_max":564,"o":"m 253 1011 q 242 1023 253 1011 q 231 1067 231 1034 q 253 1124 231 1101 q 309 1147 276 1147 q 366 1124 342 1147 q 389 1067 389 1101 q 366 1011 389 1034 q 309 988 342 988 q 253 1011 276 988 m 174 483 l 174 102 l 564 102 l 564 0 l 73 0 l 73 949 l 564 949 l 564 848 l 174 848 l 174 585 l 502 585 l 502 483 l 174 483 z "},"ė":{"ha":625,"x_min":73,"x_max":553,"o":"m 269 825 q 258 836 269 825 q 246 881 246 848 q 269 937 246 914 q 325 960 292 960 q 381 937 358 960 q 405 881 405 914 q 381 825 405 848 q 325 802 358 802 q 269 825 292 802 m 174 330 l 174 229 q 208 126 174 168 q 307 85 241 85 l 319 85 q 410 101 383 85 q 445 151 436 118 l 543 123 q 319 -17 505 -17 l 307 -17 q 135 55 198 -17 q 73 229 73 127 l 73 488 q 79 554 73 524 q 101 614 85 585 q 143 665 117 644 q 211 699 169 686 q 307 711 252 711 l 319 711 q 415 699 373 711 q 482 665 456 686 q 524 614 508 644 q 547 554 541 585 q 553 488 553 524 l 553 330 l 174 330 m 451 431 l 451 488 q 422 582 451 554 q 319 610 393 610 l 307 610 q 203 582 233 610 q 174 488 174 554 l 174 431 l 451 431 z "},"Ę":{"ha":625,"x_min":73,"x_max":564,"o":"m 418 -248 q 328 -281 378 -281 q 231 -240 271 -281 q 191 -142 191 -199 q 229 -46 191 -87 l 300 25 l 300 53 l 402 53 l 402 -17 l 302 -117 q 292 -142 292 -128 q 303 -168 292 -157 q 328 -179 314 -179 q 352 -170 341 -179 l 370 -155 l 437 -231 l 418 -248 m 174 483 l 174 102 l 564 102 l 564 0 l 73 0 l 73 949 l 564 949 l 564 848 l 174 848 l 174 585 l 502 585 l 502 483 l 174 483 z "},"ę":{"ha":625,"x_min":73,"x_max":553,"o":"m 394 -259 q 304 -292 354 -292 q 207 -252 247 -292 q 166 -154 166 -211 q 205 -58 166 -98 l 276 14 l 276 41 l 378 41 l 378 -28 l 278 -128 q 268 -154 268 -140 q 279 -180 268 -169 q 304 -191 290 -191 q 328 -182 317 -191 l 346 -166 l 412 -243 l 394 -259 m 174 330 l 174 229 q 208 126 174 168 q 307 85 241 85 l 319 85 q 410 101 383 85 q 445 151 436 118 l 543 123 q 319 -17 505 -17 l 307 -17 q 135 55 198 -17 q 73 229 73 127 l 73 488 q 79 554 73 524 q 101 614 85 585 q 143 665 117 644 q 211 699 169 686 q 307 711 252 711 l 319 711 q 415 699 373 711 q 482 665 456 686 q 524 614 508 644 q 547 554 541 585 q 553 488 553 524 l 553 330 l 174 330 m 451 431 l 451 488 q 422 582 451 554 q 319 610 393 610 l 307 610 q 203 582 233 610 q 174 488 174 554 l 174 431 l 451 431 z "},"Ě":{"ha":625,"x_min":73,"x_max":564,"o":"m 313 1098 l 419 1172 l 477 1089 l 365 1010 l 260 1010 l 148 1089 l 206 1172 l 313 1098 m 174 483 l 174 102 l 564 102 l 564 0 l 73 0 l 73 949 l 564 949 l 564 848 l 174 848 l 174 585 l 502 585 l 502 483 l 174 483 z "},"ě":{"ha":625,"x_min":73,"x_max":553,"o":"m 328 897 l 435 971 l 493 888 l 380 809 l 276 809 l 163 888 l 222 971 l 328 897 m 174 330 l 174 229 q 208 126 174 168 q 307 85 241 85 l 319 85 q 410 101 383 85 q 445 151 436 118 l 543 123 q 319 -17 505 -17 l 307 -17 q 135 55 198 -17 q 73 229 73 127 l 73 488 q 79 554 73 524 q 101 614 85 585 q 143 665 117 644 q 211 699 169 686 q 307 711 252 711 l 319 711 q 415 699 373 711 q 482 665 456 686 q 524 614 508 644 q 547 554 541 585 q 553 488 553 524 l 553 330 l 174 330 m 451 431 l 451 488 q 422 582 451 554 q 319 610 393 610 l 307 610 q 203 582 233 610 q 174 488 174 554 l 174 431 l 451 431 z "},"Ĝ":{"ha":625,"x_min":66,"x_max":553,"o":"m 399 1156 l 511 1077 l 453 995 l 347 1068 l 240 995 l 182 1077 l 294 1156 l 399 1156 m 553 168 q 464 29 525 75 q 330 -17 403 -17 l 309 -17 q 246 -7 276 -17 q 182 34 216 2 q 123 116 147 65 q 82 259 98 168 q 66 472 66 351 l 66 517 q 309 966 66 966 l 330 966 q 398 956 367 966 q 451 930 430 945 q 491 891 473 915 q 518 849 509 867 q 537 805 528 831 q 548 769 545 779 q 553 743 550 759 l 454 722 q 432 795 446 766 q 401 839 418 825 q 367 859 384 854 q 330 865 351 865 l 309 865 q 202 780 237 865 q 168 517 168 695 l 168 472 q 170 376 168 422 q 182 275 173 330 q 206 179 191 220 q 247 112 220 139 q 309 85 274 85 l 330 85 q 405 112 373 85 q 451 182 437 140 l 451 368 l 342 368 l 342 469 l 553 469 l 553 168 z "},"ĝ":{"ha":625,"x_min":73,"x_max":564,"o":"m 340 962 l 453 882 l 395 800 l 288 873 l 182 800 l 123 882 l 236 962 l 340 962 m 451 -59 q 443 -41 451 -52 q 420 -16 435 -29 q 378 6 406 -3 q 319 16 351 16 l 307 16 q 215 -9 256 16 q 174 -59 174 -34 l 174 -73 q 210 -131 174 -103 q 307 -159 246 -159 l 319 -159 q 407 -135 363 -159 q 451 -73 451 -112 l 451 -59 m 319 610 l 307 610 q 217 572 259 610 q 174 488 174 534 l 174 450 q 216 358 174 400 q 307 316 258 316 l 319 316 q 409 358 367 316 q 451 450 451 400 l 451 488 q 409 572 451 534 q 319 610 366 610 m 117 42 q 73 146 73 85 l 73 191 q 126 310 73 257 q 73 450 73 379 l 73 488 q 144 643 73 575 q 307 711 215 711 l 319 711 q 458 663 393 711 q 564 701 509 701 l 564 600 q 526 587 544 600 q 553 488 553 538 l 553 450 q 480 285 553 356 q 319 214 408 214 l 307 214 q 203 243 254 214 q 174 194 174 220 l 174 146 q 206 99 174 121 q 307 117 256 117 l 319 117 q 420 100 374 117 q 494 57 466 83 q 537 0 522 30 q 553 -59 553 -31 l 553 -73 q 482 -205 553 -149 q 319 -261 412 -261 l 307 -261 q 200 -242 248 -261 q 126 -195 153 -224 q 86 -134 100 -165 q 73 -73 73 -102 l 73 -59 q 117 42 73 -9 z "},"Ğ":{"ha":625,"x_min":66,"x_max":553,"o":"m 345 994 q 237 1019 288 994 q 150 1088 186 1044 l 228 1154 q 345 1096 275 1096 q 465 1154 416 1096 l 543 1088 q 454 1019 505 1044 q 345 994 402 994 m 553 168 q 464 29 525 75 q 330 -17 403 -17 l 309 -17 q 246 -7 276 -17 q 182 34 216 2 q 123 116 147 65 q 82 259 98 168 q 66 472 66 351 l 66 517 q 309 966 66 966 l 330 966 q 398 956 367 966 q 451 930 430 945 q 491 891 473 915 q 518 849 509 867 q 537 805 528 831 q 548 769 545 779 q 553 743 550 759 l 454 722 q 432 795 446 766 q 401 839 418 825 q 367 859 384 854 q 330 865 351 865 l 309 865 q 202 780 237 865 q 168 517 168 695 l 168 472 q 170 376 168 422 q 182 275 173 330 q 206 179 191 220 q 247 112 220 139 q 309 85 274 85 l 330 85 q 405 112 373 85 q 451 182 437 140 l 451 368 l 342 368 l 342 469 l 553 469 l 553 168 z "},"ğ":{"ha":625,"x_min":73,"x_max":564,"o":"m 286 800 q 179 825 229 800 q 92 895 128 850 l 170 960 q 286 902 217 902 q 407 960 357 902 l 484 895 q 395 825 447 850 q 286 800 344 800 m 451 -59 q 443 -41 451 -52 q 420 -16 435 -29 q 378 6 406 -3 q 319 16 351 16 l 307 16 q 215 -9 256 16 q 174 -59 174 -34 l 174 -73 q 210 -131 174 -103 q 307 -159 246 -159 l 319 -159 q 407 -135 363 -159 q 451 -73 451 -112 l 451 -59 m 319 610 l 307 610 q 217 572 259 610 q 174 488 174 534 l 174 450 q 216 358 174 400 q 307 316 258 316 l 319 316 q 409 358 367 316 q 451 450 451 400 l 451 488 q 409 572 451 534 q 319 610 366 610 m 117 42 q 73 146 73 85 l 73 191 q 126 310 73 257 q 73 450 73 379 l 73 488 q 144 643 73 575 q 307 711 215 711 l 319 711 q 458 663 393 711 q 564 701 509 701 l 564 600 q 526 587 544 600 q 553 488 553 538 l 553 450 q 480 285 553 356 q 319 214 408 214 l 307 214 q 203 243 254 214 q 174 194 174 220 l 174 146 q 206 99 174 121 q 307 117 256 117 l 319 117 q 420 100 374 117 q 494 57 466 83 q 537 0 522 30 q 553 -59 553 -31 l 553 -73 q 482 -205 553 -149 q 319 -261 412 -261 l 307 -261 q 200 -242 248 -261 q 126 -195 153 -224 q 86 -134 100 -165 q 73 -73 73 -102 l 73 -59 q 117 42 73 -9 z "},"Ġ":{"ha":625,"x_min":66,"x_max":553,"o":"m 287 1012 q 276 1023 287 1012 q 264 1068 264 1035 q 287 1124 264 1101 q 343 1147 310 1147 q 400 1124 376 1147 q 423 1068 423 1101 q 400 1012 423 1035 q 343 989 376 989 q 287 1012 310 989 m 553 168 q 464 29 525 75 q 330 -17 403 -17 l 309 -17 q 246 -7 276 -17 q 182 34 216 2 q 123 116 147 65 q 82 259 98 168 q 66 472 66 351 l 66 517 q 309 966 66 966 l 330 966 q 398 956 367 966 q 451 930 430 945 q 491 891 473 915 q 518 849 509 867 q 537 805 528 831 q 548 769 545 779 q 553 743 550 759 l 454 722 q 432 795 446 766 q 401 839 418 825 q 367 859 384 854 q 330 865 351 865 l 309 865 q 202 780 237 865 q 168 517 168 695 l 168 472 q 170 376 168 422 q 182 275 173 330 q 206 179 191 220 q 247 112 220 139 q 309 85 274 85 l 330 85 q 405 112 373 85 q 451 182 437 140 l 451 368 l 342 368 l 342 469 l 553 469 l 553 168 z "},"ġ":{"ha":625,"x_min":73,"x_max":564,"o":"m 229 831 q 218 842 229 831 q 206 887 206 854 q 229 943 206 920 q 285 966 252 966 q 341 943 318 966 q 365 887 365 920 q 341 831 365 854 q 285 808 318 808 q 229 831 252 808 m 451 -59 q 443 -41 451 -52 q 420 -16 435 -29 q 378 6 406 -3 q 319 16 351 16 l 307 16 q 215 -9 256 16 q 174 -59 174 -34 l 174 -73 q 210 -131 174 -103 q 307 -159 246 -159 l 319 -159 q 407 -135 363 -159 q 451 -73 451 -112 l 451 -59 m 319 610 l 307 610 q 217 572 259 610 q 174 488 174 534 l 174 450 q 216 358 174 400 q 307 316 258 316 l 319 316 q 409 358 367 316 q 451 450 451 400 l 451 488 q 409 572 451 534 q 319 610 366 610 m 117 42 q 73 146 73 85 l 73 191 q 126 310 73 257 q 73 450 73 379 l 73 488 q 144 643 73 575 q 307 711 215 711 l 319 711 q 458 663 393 711 q 564 701 509 701 l 564 600 q 526 587 544 600 q 553 488 553 538 l 553 450 q 480 285 553 356 q 319 214 408 214 l 307 214 q 203 243 254 214 q 174 194 174 220 l 174 146 q 206 99 174 121 q 307 117 256 117 l 319 117 q 420 100 374 117 q 494 57 466 83 q 537 0 522 30 q 553 -59 553 -31 l 553 -73 q 482 -205 553 -149 q 319 -261 412 -261 l 307 -261 q 200 -242 248 -261 q 126 -195 153 -224 q 86 -134 100 -165 q 73 -73 73 -102 l 73 -59 q 117 42 73 -9 z "},"Ģ":{"ha":625,"x_min":66,"x_max":553,"o":"m 553 168 q 464 29 525 75 q 330 -17 403 -17 l 309 -17 q 246 -7 276 -17 q 182 34 216 2 q 123 116 147 65 q 82 259 98 168 q 66 472 66 351 l 66 517 q 309 966 66 966 l 330 966 q 398 956 367 966 q 451 930 430 945 q 491 891 473 915 q 518 849 509 867 q 537 805 528 831 q 548 769 545 779 q 553 743 550 759 l 454 722 q 432 795 446 766 q 401 839 418 825 q 367 859 384 854 q 330 865 351 865 l 309 865 q 202 780 237 865 q 168 517 168 695 l 168 472 q 170 376 168 422 q 182 275 173 330 q 206 179 191 220 q 247 112 220 139 q 309 85 274 85 l 330 85 q 405 112 373 85 q 451 182 437 140 l 451 368 l 342 368 l 342 469 l 553 469 l 553 168 z "},"ģ":{"ha":625,"x_min":73,"x_max":564,"o":"m 451 -59 q 443 -41 451 -52 q 420 -16 435 -29 q 378 6 406 -3 q 319 16 351 16 l 307 16 q 215 -9 256 16 q 174 -59 174 -34 l 174 -73 q 210 -131 174 -103 q 307 -159 246 -159 l 319 -159 q 407 -135 363 -159 q 451 -73 451 -112 l 451 -59 m 319 610 l 307 610 q 217 572 259 610 q 174 488 174 534 l 174 450 q 216 358 174 400 q 307 316 258 316 l 319 316 q 409 358 367 316 q 451 450 451 400 l 451 488 q 409 572 451 534 q 319 610 366 610 m 117 42 q 73 146 73 85 l 73 191 q 126 310 73 257 q 73 450 73 379 l 73 488 q 144 643 73 575 q 307 711 215 711 l 319 711 q 458 663 393 711 q 564 701 509 701 l 564 600 q 526 587 544 600 q 553 488 553 538 l 553 450 q 480 285 553 356 q 319 214 408 214 l 307 214 q 203 243 254 214 q 174 194 174 220 l 174 146 q 206 99 174 121 q 307 117 256 117 l 319 117 q 420 100 374 117 q 494 57 466 83 q 537 0 522 30 q 553 -59 553 -31 l 553 -73 q 482 -205 553 -149 q 319 -261 412 -261 l 307 -261 q 200 -242 248 -261 q 126 -195 153 -224 q 86 -134 100 -165 q 73 -73 73 -102 l 73 -59 q 117 42 73 -9 z "},"Ĥ":{"ha":625,"x_min":73,"x_max":553,"o":"m 365 1156 l 477 1077 l 419 995 l 313 1068 l 206 995 l 148 1077 l 260 1156 l 365 1156 m 174 0 l 73 0 l 73 949 l 174 949 l 174 547 l 451 547 l 451 949 l 553 949 l 553 0 l 451 0 l 451 446 l 174 446 l 174 0 z "},"ĥ":{"ha":625,"x_min":73,"x_max":559,"o":"m 446 1155 l 559 1076 l 500 994 l 394 1067 l 288 994 l 229 1076 l 342 1155 l 446 1155 m 174 0 l 73 0 l 73 949 l 174 949 l 174 649 q 307 711 235 711 l 319 711 q 415 699 373 711 q 482 665 456 686 q 524 614 508 644 q 547 554 541 585 q 553 488 553 524 l 553 0 l 451 0 l 451 488 q 422 582 451 554 q 319 610 393 610 l 307 610 q 242 573 274 610 q 193 490 211 537 q 174 405 174 442 l 174 0 z "},"Ħ":{"ha":625,"x_min":41,"x_max":585,"o":"m 174 547 l 451 547 l 451 743 l 174 743 l 174 547 m 174 0 l 73 0 l 73 743 l 41 743 l 41 844 l 73 844 l 73 949 l 174 949 l 174 844 l 451 844 l 451 949 l 553 949 l 553 844 l 585 844 l 585 743 l 553 743 l 553 0 l 451 0 l 451 446 l 174 446 l 174 0 z "},"ħ":{"ha":625,"x_min":41,"x_max":553,"o":"m 174 0 l 73 0 l 73 817 l 41 817 l 41 919 l 73 919 l 73 949 l 174 949 l 174 919 l 374 919 l 374 817 l 174 817 l 174 649 q 307 711 235 711 l 319 711 q 415 699 373 711 q 482 665 456 686 q 524 614 508 644 q 547 554 541 585 q 553 488 553 524 l 553 0 l 451 0 l 451 488 q 422 582 451 554 q 319 610 393 610 l 307 610 q 242 573 274 610 q 193 490 211 537 q 174 405 174 442 l 174 0 z "},"Ĩ":{"ha":625,"x_min":61,"x_max":564,"o":"m 87 1113 q 218 1191 149 1191 l 229 1191 q 332 1154 288 1191 l 345 1142 q 379 1130 359 1130 l 391 1130 q 416 1138 406 1131 q 441 1166 427 1144 l 452 1182 l 536 1125 l 525 1109 q 391 1028 471 1028 l 379 1028 q 327 1038 357 1028 q 277 1066 298 1048 l 262 1078 q 229 1089 250 1089 l 218 1089 q 196 1081 207 1089 q 169 1053 186 1074 l 156 1035 l 75 1096 l 87 1113 m 564 949 l 564 848 l 363 848 l 363 102 l 564 102 l 564 0 l 61 0 l 61 102 l 262 102 l 262 848 l 61 848 l 61 949 l 564 949 z "},"ĩ":{"ha":625,"x_min":80,"x_max":541,"o":"m 93 897 q 224 975 155 975 l 235 975 q 337 938 294 975 l 350 926 q 385 914 365 914 l 396 914 q 422 922 412 916 q 446 950 432 928 l 457 966 l 541 909 l 530 893 q 396 812 476 812 l 385 812 q 333 822 362 812 q 282 850 303 832 l 268 863 q 235 873 256 873 l 224 873 q 202 866 212 873 q 174 837 191 858 l 161 819 l 80 880 l 93 897 m 123 694 l 363 694 l 363 102 l 502 102 l 502 0 l 123 0 l 123 102 l 262 102 l 262 593 l 123 593 l 123 694 z "},"Ī":{"ha":625,"x_min":61,"x_max":564,"o":"m 159 1019 l 159 1121 l 467 1121 l 467 1019 l 159 1019 m 564 949 l 564 848 l 363 848 l 363 102 l 564 102 l 564 0 l 61 0 l 61 102 l 262 102 l 262 848 l 61 848 l 61 949 l 564 949 z "},"ī":{"ha":625,"x_min":123,"x_max":502,"o":"m 165 770 l 165 871 l 472 871 l 472 770 l 165 770 m 123 694 l 363 694 l 363 102 l 502 102 l 502 0 l 123 0 l 123 102 l 262 102 l 262 593 l 123 593 l 123 694 z "},"Ĭ":{"ha":625,"x_min":61,"x_max":564,"o":"m 311 995 q 204 1020 254 995 q 117 1089 153 1045 l 195 1154 q 311 1097 242 1097 q 432 1155 382 1097 l 509 1089 q 420 1020 472 1045 q 311 995 369 995 m 564 949 l 564 848 l 363 848 l 363 102 l 564 102 l 564 0 l 61 0 l 61 102 l 262 102 l 262 848 l 61 848 l 61 949 l 564 949 z "},"ĭ":{"ha":625,"x_min":122,"x_max":515,"o":"m 317 793 q 209 818 260 793 q 122 887 159 843 l 200 952 q 317 895 248 895 q 437 953 388 895 l 515 887 q 426 818 477 843 q 317 793 374 793 m 123 694 l 363 694 l 363 102 l 502 102 l 502 0 l 123 0 l 123 102 l 262 102 l 262 593 l 123 593 l 123 694 z "},"Į":{"ha":625,"x_min":61,"x_max":564,"o":"m 380 -243 q 290 -276 340 -276 q 192 -235 233 -276 q 152 -138 152 -195 q 191 -41 152 -82 l 262 30 l 262 58 l 363 58 l 363 -12 l 264 -112 q 254 -138 254 -123 q 264 -163 254 -153 q 290 -174 275 -174 q 313 -165 302 -174 l 332 -150 l 398 -227 l 380 -243 m 564 949 l 564 848 l 363 848 l 363 102 l 564 102 l 564 0 l 61 0 l 61 102 l 262 102 l 262 848 l 61 848 l 61 949 l 564 949 z "},"į":{"ha":625,"x_min":123,"x_max":502,"o":"m 380 -243 q 290 -276 340 -276 q 192 -235 233 -276 q 152 -138 152 -195 q 191 -41 152 -82 l 262 30 l 262 58 l 363 58 l 363 -12 l 264 -112 q 254 -138 254 -123 q 264 -163 254 -153 q 290 -174 275 -174 q 313 -165 302 -174 l 332 -150 l 398 -227 l 380 -243 m 261 823 q 250 835 261 823 q 239 880 239 846 q 261 936 239 913 q 317 959 284 959 q 374 936 351 959 q 397 880 397 913 q 374 823 397 846 q 317 800 351 800 q 261 823 284 800 m 123 694 l 363 694 l 363 102 l 502 102 l 502 0 l 123 0 l 123 102 l 262 102 l 262 593 l 123 593 l 123 694 z "},"İ":{"ha":625,"x_min":61,"x_max":564,"o":"m 254 1011 q 243 1023 254 1011 q 231 1067 231 1034 q 254 1124 231 1101 q 310 1147 277 1147 q 367 1124 343 1147 q 390 1067 390 1101 q 367 1011 390 1034 q 310 988 343 988 q 254 1011 277 988 m 564 949 l 564 848 l 363 848 l 363 102 l 564 102 l 564 0 l 61 0 l 61 102 l 262 102 l 262 848 l 61 848 l 61 949 l 564 949 z "},"ı":{"ha":625,"x_min":123,"x_max":502,"o":"m 123 694 l 363 694 l 363 102 l 502 102 l 502 0 l 123 0 l 123 102 l 262 102 l 262 593 l 123 593 l 123 694 z "},"Ĳ":{"ha":625,"x_min":27,"x_max":598,"o":"m 349 279 q 390 405 390 279 l 390 848 l 235 848 l 235 102 l 381 102 l 381 0 l 27 0 l 27 102 l 133 102 l 133 848 l 27 848 l 27 949 l 598 949 l 598 848 l 492 848 l 492 405 q 482 306 492 349 q 458 239 473 263 q 424 201 444 216 q 386 182 404 186 q 349 178 369 178 l 290 178 l 290 279 l 349 279 z "},"ĳ":{"ha":625,"x_min":38,"x_max":689,"o":"m 553 836 q 542 847 553 836 q 530 892 530 859 q 553 948 530 925 q 609 971 576 971 q 666 948 642 971 q 689 892 689 925 q 666 836 689 859 q 609 812 642 812 q 553 836 576 812 m 492 -136 q 546 -117 526 -136 q 566 -62 566 -98 l 566 605 l 350 605 l 350 707 l 667 707 l 667 -62 q 617 -190 667 -141 q 492 -238 568 -238 q 368 -185 419 -238 q 316 -62 316 -133 l 418 -62 q 440 -114 418 -91 q 492 -136 462 -136 m 176 824 q 165 836 176 824 q 153 880 153 847 q 176 937 153 913 q 232 960 199 960 q 289 937 265 960 q 312 880 312 913 q 289 824 312 847 q 232 801 265 801 q 176 824 199 801 m 38 695 l 278 695 l 278 102 l 416 102 l 416 1 l 38 1 l 38 102 l 176 102 l 176 593 l 38 593 l 38 695 z "},"Ĵ":{"ha":625,"x_min":51,"x_max":578,"o":"m 448 1156 l 560 1077 l 502 995 l 395 1068 l 289 995 l 231 1077 l 343 1156 l 448 1156 m 578 949 l 578 848 l 461 848 l 461 229 q 405 50 461 117 q 258 -17 349 -17 l 245 -17 q 178 -9 208 -17 q 127 14 147 -1 q 93 43 107 28 q 70 77 79 58 q 57 107 61 96 q 51 130 54 117 l 150 153 q 180 101 158 117 q 245 85 202 85 l 258 85 q 308 98 287 85 q 339 133 329 111 q 355 179 350 155 q 359 229 359 202 l 359 848 l 216 848 l 216 949 l 578 949 z "},"ĵ":{"ha":625,"x_min":147,"x_max":613,"o":"m 500 954 l 613 875 l 555 793 l 448 866 l 342 793 l 283 875 l 396 954 l 500 954 m 323 -149 q 377 -130 357 -149 q 397 -74 397 -111 l 397 593 l 181 593 l 181 694 l 498 694 l 498 -74 q 449 -202 498 -153 q 323 -250 399 -250 q 199 -198 250 -250 q 147 -75 147 -145 l 249 -75 q 271 -126 249 -103 q 323 -149 293 -149 z "},"Ķ":{"ha":625,"x_min":73,"x_max":575,"o":"m 73 0 l 73 949 l 175 949 l 175 510 l 444 949 l 564 949 l 315 545 l 575 0 l 462 0 l 252 441 l 175 316 l 175 0 l 73 0 z "},"ķ":{"ha":625,"x_min":73,"x_max":562,"o":"m 73 0 l 73 966 l 174 966 l 174 402 l 463 753 l 541 688 l 319 418 l 562 0 l 444 0 l 250 334 l 174 241 l 174 0 l 73 0 z "},"ĸ":{"ha":625,"x_min":73,"x_max":565,"o":"z "},"Ĺ":{"ha":625,"x_min":73,"x_max":564,"o":"m 289 938 l 194 1029 l 369 1214 l 464 1122 l 289 938 m 174 102 l 564 102 l 564 0 l 73 0 l 73 949 l 174 949 l 174 102 z "},"ĺ":{"ha":625,"x_min":123,"x_max":502,"o":"m 323 939 l 228 1030 l 403 1215 l 498 1123 l 323 939 m 123 930 l 363 930 l 363 100 l 502 100 l 502 0 l 123 0 l 123 100 l 262 100 l 262 830 l 123 830 l 123 930 z "},"Ļ":{"ha":625,"x_min":73,"x_max":564,"o":"m 174 102 l 564 102 l 564 0 l 73 0 l 73 949 l 174 949 l 174 102 z "},"ļ":{"ha":625,"x_min":123,"x_max":502,"o":"m 123 949 l 363 949 l 363 102 l 502 102 l 502 0 l 123 0 l 123 102 l 262 102 l 262 848 l 123 848 l 123 949 z "},"Ľ":{"ha":625,"x_min":73,"x_max":564,"o":"m 174 102 l 564 102 l 564 0 l 73 0 l 73 949 l 174 949 l 174 102 z "},"ľ":{"ha":625,"x_min":76,"x_max":597,"o":"m 76 949 l 316 949 l 316 102 l 454 102 l 454 0 l 76 0 l 76 102 l 214 102 l 214 848 l 76 848 l 76 949 z "},"Ŀ":{"ha":625,"x_min":73,"x_max":564,"o":"m 532 552 q 546 538 532 552 q 560 482 560 523 q 532 412 560 441 q 461 383 505 383 q 391 412 419 383 q 362 482 362 441 q 390 552 362 522 q 461 582 418 582 q 532 552 504 582 m 174 102 l 564 102 l 564 0 l 73 0 l 73 949 l 174 949 l 174 102 z "},"ŀ":{"ha":625,"x_min":76,"x_max":595,"o":"m 567 577 q 581 562 567 577 q 595 507 595 547 q 568 437 595 466 q 496 408 540 408 q 426 437 454 408 q 397 507 397 466 q 426 576 397 547 q 496 606 454 606 q 567 577 539 606 m 76 949 l 316 949 l 316 102 l 454 102 l 454 0 l 76 0 l 76 102 l 214 102 l 214 848 l 76 848 l 76 949 z "},"Ł":{"ha":625,"x_min":9,"x_max":564,"o":"m 174 102 l 564 102 l 564 0 l 73 0 l 73 309 l 45 299 l 9 395 l 73 418 l 73 949 l 174 949 l 174 455 l 418 543 l 453 447 l 174 346 l 174 102 z "},"ł":{"ha":625,"x_min":91,"x_max":534,"o":"m 499 543 l 534 447 l 363 385 l 363 102 l 502 102 l 502 0 l 123 0 l 123 102 l 262 102 l 262 348 l 126 299 l 91 395 l 262 457 l 262 848 l 123 848 l 123 949 l 363 949 l 363 494 l 499 543 z "},"Ń":{"ha":625,"x_min":73,"x_max":553,"o":"m 323 939 l 228 1030 l 403 1215 l 498 1123 l 323 939 m 174 0 l 73 0 l 73 949 l 164 949 l 451 281 l 451 949 l 553 949 l 553 0 l 460 0 l 174 668 l 174 0 z "},"ń":{"ha":625,"x_min":73,"x_max":553,"o":"m 288 786 l 193 878 l 368 1062 l 463 970 l 288 786 m 174 0 l 73 0 l 73 694 l 174 694 l 174 649 q 307 711 235 711 l 319 711 q 415 699 373 711 q 482 665 456 686 q 524 614 508 644 q 547 554 541 585 q 553 488 553 524 l 553 0 l 451 0 l 451 488 q 422 582 451 554 q 319 610 393 610 l 307 610 q 242 573 274 610 q 193 490 211 537 q 174 405 174 442 l 174 0 z "},"Ņ":{"ha":625,"x_min":73,"x_max":553,"o":"m 174 0 l 73 0 l 73 949 l 164 949 l 451 281 l 451 949 l 553 949 l 553 0 l 460 0 l 174 668 l 174 0 z "},"ņ":{"ha":625,"x_min":73,"x_max":553,"o":"m 174 0 l 73 0 l 73 694 l 174 694 l 174 649 q 307 711 235 711 l 319 711 q 415 699 373 711 q 482 665 456 686 q 524 614 508 644 q 547 554 541 585 q 553 488 553 524 l 553 0 l 451 0 l 451 488 q 422 582 451 554 q 319 610 393 610 l 307 610 q 242 573 274 610 q 193 490 211 537 q 174 405 174 442 l 174 0 z "},"Ň":{"ha":625,"x_min":73,"x_max":553,"o":"m 313 1095 l 419 1168 l 477 1086 l 365 1006 l 260 1006 l 148 1086 l 206 1168 l 313 1095 m 174 0 l 73 0 l 73 949 l 164 949 l 451 281 l 451 949 l 553 949 l 553 0 l 460 0 l 174 668 l 174 0 z "},"ň":{"ha":625,"x_min":73,"x_max":553,"o":"m 313 897 l 419 971 l 477 888 l 365 809 l 260 809 l 148 888 l 206 971 l 313 897 m 174 0 l 73 0 l 73 694 l 174 694 l 174 649 q 307 711 235 711 l 319 711 q 415 699 373 711 q 482 665 456 686 q 524 614 508 644 q 547 554 541 585 q 553 488 553 524 l 553 0 l 451 0 l 451 488 q 422 582 451 554 q 319 610 393 610 l 307 610 q 242 573 274 610 q 193 490 211 537 q 174 405 174 442 l 174 0 z "},"ŉ":{"ha":625,"x_min":-8,"x_max":607,"o":"m 87 747 q 37 715 68 715 q 5 728 18 715 q -8 765 -8 742 q -5 786 -8 777 l 48 1002 q 80 1045 54 1028 q 134 1062 106 1062 q 190 1037 169 1062 q 210 979 210 1011 q 200 939 210 956 l 87 747 m 229 0 l 127 0 l 127 694 l 229 694 l 229 649 q 361 711 289 711 l 373 711 q 469 699 427 711 q 536 665 511 686 q 578 614 562 644 q 601 554 595 585 q 607 488 607 524 l 607 0 l 505 0 l 505 488 q 476 582 505 554 q 373 610 447 610 l 361 610 q 297 573 328 610 q 247 490 265 537 q 229 405 229 442 l 229 0 z "},"Ŋ":{"ha":625,"x_min":73,"x_max":553,"o":"m 174 0 l 73 0 l 73 949 l 174 949 l 174 901 q 307 966 235 966 l 319 966 q 490 901 428 966 q 553 721 553 836 l 553 -19 q 498 -183 553 -117 q 357 -250 443 -250 l 322 -250 q 184 -186 235 -250 l 264 -123 q 322 -149 285 -149 l 357 -149 q 425 -111 399 -149 q 451 -19 451 -74 l 451 721 q 417 831 451 798 q 319 865 382 865 l 307 865 q 243 826 275 865 q 193 737 211 787 q 174 650 174 687 l 174 0 z "},"ŋ":{"ha":625,"x_min":73,"x_max":553,"o":"m 174 0 l 73 0 l 73 694 l 174 694 l 174 649 q 307 711 235 711 l 319 711 q 415 699 373 711 q 482 665 456 686 q 524 614 508 644 q 547 554 541 585 q 553 488 553 524 l 553 -19 q 498 -183 553 -117 q 357 -250 443 -250 l 322 -250 q 184 -186 235 -250 l 264 -123 q 322 -149 285 -149 l 357 -149 q 425 -111 399 -149 q 451 -19 451 -74 l 451 488 q 422 582 451 554 q 319 610 393 610 l 307 610 q 242 573 274 610 q 193 490 211 537 q 174 405 174 442 l 174 0 z "},"Ō":{"ha":625,"x_min":66,"x_max":559,"o":"m 163 1019 l 163 1121 l 470 1121 l 470 1019 l 163 1019 m 559 519 l 559 472 q 543 259 559 351 q 503 117 527 168 q 444 34 478 66 q 380 -7 410 3 q 317 -17 350 -17 l 309 -17 q 246 -7 276 -17 q 182 34 216 2 q 123 116 147 65 q 82 259 98 168 q 66 472 66 351 l 66 517 q 309 966 66 966 l 317 966 q 559 519 559 966 m 317 865 l 309 865 q 202 780 237 865 q 168 517 168 695 l 168 472 q 170 376 168 422 q 182 275 173 330 q 206 179 191 220 q 247 112 220 139 q 309 85 274 85 l 317 85 q 379 112 352 85 q 420 180 406 140 q 444 275 435 220 q 455 376 452 330 q 458 472 458 422 l 458 519 q 423 780 458 696 q 317 865 389 865 z "},"ō":{"ha":625,"x_min":66,"x_max":559,"o":"m 167 770 l 167 871 l 474 871 l 474 770 l 167 770 m 559 381 l 559 319 q 544 179 559 240 q 504 81 528 117 q 447 22 479 45 q 384 -9 414 -1 q 323 -17 354 -17 l 299 -17 q 125 77 185 -17 q 66 319 66 170 l 66 380 q 79 506 66 448 q 119 610 92 564 q 192 684 146 657 q 298 711 238 711 l 324 711 q 431 684 385 711 q 504 612 477 658 q 546 507 532 566 q 559 381 559 449 m 324 609 l 298 609 q 234 588 260 609 q 193 532 207 568 q 174 460 180 497 q 168 380 168 422 l 168 319 q 174 238 168 277 q 194 164 180 200 q 235 106 208 127 q 299 85 262 85 l 323 85 q 378 99 354 85 q 417 135 402 113 q 441 189 432 158 q 454 252 450 220 q 458 319 458 283 l 458 381 q 454 445 458 414 q 441 506 451 475 q 417 559 432 536 q 379 595 403 581 q 324 609 355 609 z "},"Ŏ":{"ha":625,"x_min":66,"x_max":559,"o":"m 315 996 q 207 1021 258 996 q 120 1090 157 1046 l 198 1156 q 315 1098 245 1098 q 435 1156 386 1098 l 513 1090 q 424 1021 475 1046 q 315 996 372 996 m 559 519 l 559 472 q 543 259 559 351 q 503 117 527 168 q 444 34 478 66 q 380 -7 410 3 q 317 -17 350 -17 l 309 -17 q 246 -7 276 -17 q 182 34 216 2 q 123 116 147 65 q 82 259 98 168 q 66 472 66 351 l 66 517 q 309 966 66 966 l 317 966 q 559 519 559 966 m 317 865 l 309 865 q 202 780 237 865 q 168 517 168 695 l 168 472 q 170 376 168 422 q 182 275 173 330 q 206 179 191 220 q 247 112 220 139 q 309 85 274 85 l 317 85 q 379 112 352 85 q 420 180 406 140 q 444 275 435 220 q 455 376 452 330 q 458 472 458 422 l 458 519 q 423 780 458 696 q 317 865 389 865 z "},"ŏ":{"ha":625,"x_min":66,"x_max":559,"o":"m 319 793 q 211 818 262 793 q 124 887 161 843 l 202 952 q 319 895 250 895 q 439 953 390 895 l 517 887 q 428 818 479 843 q 319 793 376 793 m 559 381 l 559 319 q 544 179 559 240 q 504 81 528 117 q 447 22 479 45 q 384 -9 414 -1 q 323 -17 354 -17 l 299 -17 q 125 77 185 -17 q 66 319 66 170 l 66 380 q 79 506 66 448 q 119 610 92 564 q 192 684 146 657 q 298 711 238 711 l 324 711 q 431 684 385 711 q 504 612 477 658 q 546 507 532 566 q 559 381 559 449 m 324 609 l 298 609 q 234 588 260 609 q 193 532 207 568 q 174 460 180 497 q 168 380 168 422 l 168 319 q 174 238 168 277 q 194 164 180 200 q 235 106 208 127 q 299 85 262 85 l 323 85 q 378 99 354 85 q 417 135 402 113 q 441 189 432 158 q 454 252 450 220 q 458 319 458 283 l 458 381 q 454 445 458 414 q 441 506 451 475 q 417 559 432 536 q 379 595 403 581 q 324 609 355 609 z "},"Ő":{"ha":625,"x_min":30,"x_max":610,"o":"m 559 519 l 559 472 q 543 259 559 351 q 503 117 527 168 q 444 34 478 66 q 380 -7 410 3 q 317 -17 350 -17 l 309 -17 q 246 -7 276 -17 q 182 34 216 2 q 123 116 147 65 q 82 259 98 168 q 66 472 66 351 l 66 517 q 309 966 66 966 l 317 966 q 559 519 559 966 m 317 865 l 309 865 q 202 780 237 865 q 168 517 168 695 l 168 472 q 170 376 168 422 q 182 275 173 330 q 206 179 191 220 q 247 112 220 139 q 309 85 274 85 l 317 85 q 379 112 352 85 q 420 180 406 140 q 444 275 435 220 q 455 376 452 330 q 458 472 458 422 l 458 519 q 423 780 458 696 q 317 865 389 865 z "},"ő":{"ha":625,"x_min":17,"x_max":597,"o":"m 559 381 l 559 319 q 544 179 559 240 q 504 81 528 117 q 447 22 479 45 q 384 -9 414 -1 q 323 -17 354 -17 l 299 -17 q 125 77 185 -17 q 66 319 66 170 l 66 380 q 79 506 66 448 q 119 610 92 564 q 192 684 146 657 q 298 711 238 711 l 324 711 q 431 684 385 711 q 504 612 477 658 q 546 507 532 566 q 559 381 559 449 m 324 609 l 298 609 q 234 588 260 609 q 193 532 207 568 q 174 460 180 497 q 168 380 168 422 l 168 319 q 174 238 168 277 q 194 164 180 200 q 235 106 208 127 q 299 85 262 85 l 323 85 q 378 99 354 85 q 417 135 402 113 q 441 189 432 158 q 454 252 450 220 q 458 319 458 283 l 458 381 q 454 445 458 414 q 441 506 451 475 q 417 559 432 536 q 379 595 403 581 q 324 609 355 609 z "},"Œ":{"ha":625,"x_min":18,"x_max":557,"o":"m 193 949 l 231 949 q 302 935 267 949 l 302 949 l 557 949 l 557 848 l 404 848 l 404 547 l 522 547 l 522 446 l 404 446 l 404 102 l 557 102 l 557 0 l 302 0 l 302 16 q 231 0 268 0 l 193 0 q 70 48 121 0 q 18 165 18 97 l 18 784 q 70 902 18 854 q 193 949 121 949 m 119 784 l 119 165 q 140 121 119 141 q 193 102 161 102 l 231 102 q 280 120 257 102 q 302 165 302 139 l 302 784 q 280 830 302 812 q 231 848 258 848 l 193 848 q 140 828 161 848 q 119 784 119 809 z "},"œ":{"ha":625,"x_min":18,"x_max":608,"o":"m 363 546 l 363 418 l 506 418 l 506 546 q 486 593 506 576 q 435 610 465 610 q 386 591 409 610 q 363 546 363 572 m 363 149 q 386 102 363 120 q 435 85 408 85 q 485 102 465 85 q 506 149 506 119 l 608 149 q 557 30 608 76 q 435 -17 507 -17 q 312 32 363 -17 q 191 -17 261 -17 q 68 30 118 -17 q 18 149 18 76 l 18 546 q 68 665 18 618 q 191 711 119 711 q 313 663 262 711 q 435 711 364 711 q 558 665 508 711 q 608 546 608 619 l 608 317 l 363 317 l 363 149 m 119 546 l 119 149 q 139 102 119 119 q 191 85 159 85 q 239 103 216 85 q 262 149 262 122 l 262 546 q 239 592 262 574 q 191 610 217 610 q 140 593 161 610 q 119 546 119 576 z "},"Ŕ":{"ha":625,"x_min":60,"x_max":583,"o":"m 183 939 l 88 1030 l 263 1215 l 358 1123 l 183 939 m 319 537 q 431 568 400 537 q 463 660 463 600 l 463 721 q 432 820 463 792 q 319 848 401 848 l 162 848 l 162 537 l 319 537 m 60 0 l 60 949 l 319 949 q 395 943 361 949 q 461 922 429 937 q 516 881 494 906 q 551 815 538 855 q 564 721 564 774 l 564 660 q 556 590 564 623 q 528 526 547 557 q 473 472 509 494 q 387 441 437 450 l 583 0 l 471 0 l 278 435 l 162 435 l 162 0 l 60 0 z "},"ŕ":{"ha":625,"x_min":73,"x_max":552,"o":"m 276 782 l 181 873 l 356 1058 l 451 966 l 276 782 m 174 0 l 73 0 l 73 694 l 174 694 l 174 610 q 354 711 255 711 l 366 711 q 552 610 501 711 l 461 564 q 428 598 449 587 q 366 610 407 610 l 354 610 q 270 565 313 610 q 201 451 228 519 q 174 319 174 382 l 174 0 z "},"Ŗ":{"ha":625,"x_min":60,"x_max":583,"o":"m 319 537 q 431 568 400 537 q 463 660 463 600 l 463 721 q 432 820 463 792 q 319 848 401 848 l 162 848 l 162 537 l 319 537 m 60 0 l 60 949 l 319 949 q 395 943 361 949 q 461 922 429 937 q 516 881 494 906 q 551 815 538 855 q 564 721 564 774 l 564 660 q 556 590 564 623 q 528 526 547 557 q 473 472 509 494 q 387 441 437 450 l 583 0 l 471 0 l 278 435 l 162 435 l 162 0 l 60 0 z "},"ŗ":{"ha":625,"x_min":43,"x_max":552,"o":"m 174 0 l 73 0 l 73 694 l 174 694 l 174 610 q 354 711 255 711 l 366 711 q 552 610 501 711 l 461 564 q 428 598 449 587 q 366 610 407 610 l 354 610 q 270 565 313 610 q 201 451 228 519 q 174 319 174 382 l 174 0 z "},"Ř":{"ha":625,"x_min":60,"x_max":583,"o":"m 282 1097 l 389 1171 l 447 1088 l 334 1009 l 230 1009 l 117 1088 l 176 1171 l 282 1097 m 319 537 q 431 568 400 537 q 463 660 463 600 l 463 721 q 432 820 463 792 q 319 848 401 848 l 162 848 l 162 537 l 319 537 m 60 0 l 60 949 l 319 949 q 395 943 361 949 q 461 922 429 937 q 516 881 494 906 q 551 815 538 855 q 564 721 564 774 l 564 660 q 556 590 564 623 q 528 526 547 557 q 473 472 509 494 q 387 441 437 450 l 583 0 l 471 0 l 278 435 l 162 435 l 162 0 l 60 0 z "},"ř":{"ha":625,"x_min":73,"x_max":552,"o":"m 311 897 l 417 971 l 475 888 l 363 809 l 258 809 l 146 888 l 204 971 l 311 897 m 174 0 l 73 0 l 73 694 l 174 694 l 174 610 q 354 711 255 711 l 366 711 q 552 610 501 711 l 461 564 q 428 598 449 587 q 366 610 407 610 l 354 610 q 270 565 313 610 q 201 451 228 519 q 174 319 174 382 l 174 0 z "},"Ś":{"ha":625,"x_min":43,"x_max":566,"o":"m 276 939 l 181 1030 l 356 1215 l 451 1123 l 276 939 m 307 85 l 319 85 q 420 128 376 85 q 465 229 465 171 l 465 249 q 440 353 465 300 q 372 427 415 406 l 194 517 q 107 596 137 547 q 77 701 77 646 l 77 721 q 141 894 77 822 q 304 966 205 966 l 322 966 q 468 928 406 966 q 553 813 530 889 q 564 721 564 780 l 462 721 q 456 783 462 762 q 322 865 431 865 l 304 865 q 214 823 249 865 q 178 721 178 781 l 178 701 q 192 652 178 677 q 240 608 205 626 l 419 517 q 528 403 489 481 q 566 249 566 326 l 566 229 q 492 56 566 128 q 319 -17 417 -17 l 307 -17 q 180 19 241 -17 q 81 116 119 56 q 43 242 43 176 l 145 242 q 197 134 145 184 q 307 85 248 85 z "},"ś":{"ha":625,"x_min":52,"x_max":553,"o":"m 279 776 l 184 867 l 359 1052 l 454 960 l 279 776 m 451 488 q 416 575 451 541 q 319 610 381 610 l 307 610 q 208 588 241 610 q 174 535 174 566 l 174 527 q 186 489 176 503 q 205 471 196 474 l 461 352 q 526 296 498 334 q 553 204 553 258 l 553 173 q 486 36 553 89 q 319 -17 418 -17 l 286 -17 q 161 20 216 -17 q 79 112 106 56 q 52 229 52 167 l 154 229 q 190 130 154 174 q 286 85 227 85 l 319 85 q 411 108 372 85 q 451 173 451 131 l 451 204 q 440 238 451 222 q 418 260 429 254 l 163 377 q 119 411 138 389 q 91 455 100 432 q 77 496 81 477 q 73 527 73 514 l 73 535 q 96 615 73 580 q 156 671 119 650 q 231 701 193 691 q 307 711 270 711 l 319 711 q 450 680 395 711 q 528 599 504 648 q 553 488 553 549 l 451 488 z "},"Ŝ":{"ha":625,"x_min":43,"x_max":566,"o":"m 378 1156 l 491 1076 l 433 994 l 326 1067 l 220 994 l 161 1076 l 274 1156 l 378 1156 m 307 85 l 319 85 q 420 128 376 85 q 465 229 465 171 l 465 249 q 440 353 465 300 q 372 427 415 406 l 194 517 q 107 596 137 547 q 77 701 77 646 l 77 721 q 141 894 77 822 q 304 966 205 966 l 322 966 q 468 928 406 966 q 553 813 530 889 q 564 721 564 780 l 462 721 q 456 783 462 762 q 322 865 431 865 l 304 865 q 214 823 249 865 q 178 721 178 781 l 178 701 q 192 652 178 677 q 240 608 205 626 l 419 517 q 528 403 489 481 q 566 249 566 326 l 566 229 q 492 56 566 128 q 319 -17 417 -17 l 307 -17 q 180 19 241 -17 q 81 116 119 56 q 43 242 43 176 l 145 242 q 197 134 145 184 q 307 85 248 85 z "},"ŝ":{"ha":625,"x_min":52,"x_max":553,"o":"m 384 956 l 496 876 l 438 794 l 332 867 l 225 794 l 167 876 l 279 956 l 384 956 m 451 488 q 416 575 451 541 q 319 610 381 610 l 307 610 q 208 588 241 610 q 174 535 174 566 l 174 527 q 186 489 176 503 q 205 471 196 474 l 461 352 q 526 296 498 334 q 553 204 553 258 l 553 173 q 486 36 553 89 q 319 -17 418 -17 l 286 -17 q 161 20 216 -17 q 79 112 106 56 q 52 229 52 167 l 154 229 q 190 130 154 174 q 286 85 227 85 l 319 85 q 411 108 372 85 q 451 173 451 131 l 451 204 q 440 238 451 222 q 418 260 429 254 l 163 377 q 119 411 138 389 q 91 455 100 432 q 77 496 81 477 q 73 527 73 514 l 73 535 q 96 615 73 580 q 156 671 119 650 q 231 701 193 691 q 307 711 270 711 l 319 711 q 450 680 395 711 q 528 599 504 648 q 553 488 553 549 l 451 488 z "},"Ş":{"ha":625,"x_min":43,"x_max":566,"o":"m 392 -191 q 364 -149 392 -164 q 309 -134 336 -134 l 254 -134 l 264 -5 l 264 5 l 366 5 l 366 -9 l 363 -50 q 494 -191 494 -74 q 475 -260 494 -230 q 427 -307 456 -291 q 369 -330 397 -322 q 317 -337 341 -337 q 147 -273 222 -337 l 214 -202 q 317 -242 260 -242 q 366 -228 340 -242 q 392 -191 392 -214 m 307 85 l 319 85 q 420 128 376 85 q 465 229 465 171 l 465 249 q 440 353 465 300 q 372 427 415 406 l 194 517 q 107 596 137 547 q 77 701 77 646 l 77 721 q 141 894 77 822 q 304 966 205 966 l 322 966 q 468 928 406 966 q 553 813 530 889 q 564 721 564 780 l 462 721 q 456 783 462 762 q 322 865 431 865 l 304 865 q 214 823 249 865 q 178 721 178 781 l 178 701 q 192 652 178 677 q 240 608 205 626 l 419 517 q 528 403 489 481 q 566 249 566 326 l 566 229 q 492 56 566 128 q 319 -17 417 -17 l 307 -17 q 180 19 241 -17 q 81 116 119 56 q 43 242 43 176 l 145 242 q 197 134 145 184 q 307 85 248 85 z "},"ş":{"ha":625,"x_min":52,"x_max":553,"o":"m 400 -191 q 372 -149 400 -164 q 317 -134 345 -134 l 262 -134 l 272 -5 l 272 5 l 374 5 l 374 -9 l 371 -50 q 502 -191 502 -74 q 483 -260 502 -230 q 435 -307 464 -291 q 377 -330 406 -322 q 325 -337 349 -337 q 155 -273 230 -337 l 222 -202 q 325 -242 268 -242 q 374 -228 349 -242 q 400 -191 400 -214 m 451 488 q 416 575 451 541 q 319 610 381 610 l 307 610 q 208 588 241 610 q 174 535 174 566 l 174 527 q 186 489 176 503 q 205 471 196 474 l 461 352 q 526 296 498 334 q 553 204 553 258 l 553 173 q 486 36 553 89 q 319 -17 418 -17 l 286 -17 q 161 20 216 -17 q 79 112 106 56 q 52 229 52 167 l 154 229 q 190 130 154 174 q 286 85 227 85 l 319 85 q 411 108 372 85 q 451 173 451 131 l 451 204 q 440 238 451 222 q 418 260 429 254 l 163 377 q 119 411 138 389 q 91 455 100 432 q 77 496 81 477 q 73 527 73 514 l 73 535 q 96 615 73 580 q 156 671 119 650 q 231 701 193 691 q 307 711 270 711 l 319 711 q 450 680 395 711 q 528 599 504 648 q 553 488 553 549 l 451 488 z "},"Š":{"ha":625,"x_min":43,"x_max":566,"o":"m 326 1096 l 433 1170 l 491 1087 l 378 1008 l 274 1008 l 161 1087 l 220 1170 l 326 1096 m 307 85 l 319 85 q 420 128 376 85 q 465 229 465 171 l 465 249 q 440 353 465 300 q 372 427 415 406 l 194 517 q 107 596 137 547 q 77 701 77 646 l 77 721 q 141 894 77 822 q 304 966 205 966 l 322 966 q 468 928 406 966 q 553 813 530 889 q 564 721 564 780 l 462 721 q 456 783 462 762 q 322 865 431 865 l 304 865 q 214 823 249 865 q 178 721 178 781 l 178 701 q 192 652 178 677 q 240 608 205 626 l 419 517 q 528 403 489 481 q 566 249 566 326 l 566 229 q 492 56 566 128 q 319 -17 417 -17 l 307 -17 q 180 19 241 -17 q 81 116 119 56 q 43 242 43 176 l 145 242 q 197 134 145 184 q 307 85 248 85 z "},"š":{"ha":625,"x_min":52,"x_max":553,"o":"m 332 897 l 438 971 l 496 888 l 384 809 l 279 809 l 167 888 l 225 971 l 332 897 m 451 488 q 416 575 451 541 q 319 610 381 610 l 307 610 q 208 588 241 610 q 174 535 174 566 l 174 527 q 186 489 176 503 q 205 471 196 474 l 461 352 q 526 296 498 334 q 553 204 553 258 l 553 173 q 486 36 553 89 q 319 -17 418 -17 l 286 -17 q 161 20 216 -17 q 79 112 106 56 q 52 229 52 167 l 154 229 q 190 130 154 174 q 286 85 227 85 l 319 85 q 411 108 372 85 q 451 173 451 131 l 451 204 q 440 238 451 222 q 418 260 429 254 l 163 377 q 119 411 138 389 q 91 455 100 432 q 77 496 81 477 q 73 527 73 514 l 73 535 q 96 615 73 580 q 156 671 119 650 q 231 701 193 691 q 307 711 270 711 l 319 711 q 450 680 395 711 q 528 599 504 648 q 553 488 553 549 l 451 488 z "},"Ţ":{"ha":625,"x_min":47,"x_max":578,"o":"m 390 -174 q 362 -133 390 -148 q 307 -117 334 -117 l 252 -117 l 262 11 l 262 21 l 363 21 l 363 7 l 361 -34 q 492 -174 492 -58 q 473 -244 492 -214 q 425 -290 454 -275 q 367 -313 395 -306 q 315 -321 339 -321 q 145 -256 220 -321 l 212 -186 q 315 -226 258 -226 q 364 -212 338 -226 q 390 -174 390 -198 m 578 949 l 578 848 l 363 848 l 363 0 l 262 0 l 262 848 l 47 848 l 47 949 l 578 949 z "},"ţ":{"ha":625,"x_min":61,"x_max":547,"o":"m 445 -187 q 417 -145 445 -161 q 361 -130 389 -130 l 307 -130 l 317 -2 l 317 8 l 418 8 l 418 -6 l 416 -47 q 547 -187 547 -71 q 528 -257 547 -227 q 479 -303 509 -288 q 422 -326 450 -319 q 370 -334 394 -334 q 200 -269 275 -334 l 267 -199 q 370 -239 313 -239 q 419 -225 393 -239 q 445 -187 445 -211 m 366 85 q 413 100 391 85 q 437 146 435 116 l 539 146 q 521 75 536 106 q 487 27 506 44 q 443 0 467 11 q 400 -14 418 -11 q 366 -17 382 -17 l 354 -17 q 235 30 288 -17 q 181 143 181 77 l 181 154 l 202 582 l 61 582 l 61 684 l 207 684 l 221 966 l 323 966 l 309 684 l 502 684 l 502 582 l 304 582 l 283 149 l 283 143 q 303 104 283 123 q 354 85 323 85 l 366 85 z "},"Ť":{"ha":625,"x_min":47,"x_max":578,"o":"m 313 1097 l 419 1171 l 477 1088 l 365 1009 l 260 1009 l 148 1088 l 206 1171 l 313 1097 m 578 949 l 578 848 l 363 848 l 363 0 l 262 0 l 262 848 l 47 848 l 47 949 l 578 949 z "},"ť":{"ha":625,"x_min":61,"x_max":578,"o":"m 366 85 q 413 100 391 85 q 437 146 435 116 l 539 146 q 521 75 536 106 q 487 27 506 44 q 443 0 467 11 q 400 -14 418 -11 q 366 -17 382 -17 l 354 -17 q 235 30 288 -17 q 181 143 181 77 l 181 154 l 202 582 l 61 582 l 61 684 l 207 684 l 221 966 l 323 966 l 309 684 l 502 684 l 502 582 l 304 582 l 283 149 l 283 143 q 303 104 283 123 q 354 85 323 85 l 366 85 z "},"Ŧ":{"ha":625,"x_min":47,"x_max":578,"o":"m 578 949 l 578 848 l 363 848 l 363 431 l 546 431 l 546 329 l 363 329 l 363 0 l 262 0 l 262 329 l 78 329 l 78 431 l 262 431 l 262 848 l 47 848 l 47 949 l 578 949 z "},"ŧ":{"ha":625,"x_min":61,"x_max":546,"o":"m 283 143 q 302 105 283 123 q 354 85 321 87 l 366 85 q 406 95 388 85 q 432 123 425 106 l 524 81 q 459 9 503 35 q 366 -17 415 -17 l 354 -17 q 235 30 288 -17 q 181 143 181 77 l 181 161 l 190 329 l 78 329 l 78 431 l 195 431 l 202 582 l 61 582 l 61 684 l 207 684 l 221 966 l 323 966 l 309 684 l 502 684 l 502 582 l 304 582 l 297 431 l 546 431 l 546 329 l 292 329 l 283 156 l 283 143 z "},"Ũ":{"ha":625,"x_min":73,"x_max":553,"o":"m 87 1108 q 218 1186 149 1186 l 229 1186 q 332 1149 288 1186 l 345 1137 q 379 1125 359 1125 l 391 1125 q 416 1133 406 1126 q 441 1161 427 1139 l 452 1177 l 536 1120 l 525 1104 q 391 1023 471 1023 l 379 1023 q 327 1033 357 1023 q 277 1061 298 1043 l 262 1074 q 229 1084 250 1084 l 218 1084 q 196 1077 207 1084 q 169 1048 186 1069 l 156 1030 l 75 1091 l 87 1108 m 174 229 q 209 118 174 151 q 307 85 243 85 l 319 85 q 417 118 382 85 q 451 229 451 151 l 451 949 l 553 949 l 553 229 q 491 47 553 112 q 319 -17 429 -17 l 307 -17 q 135 47 197 -17 q 73 229 73 111 l 73 949 l 174 949 l 174 229 z "},"ũ":{"ha":625,"x_min":73,"x_max":553,"o":"m 87 897 q 218 975 149 975 l 229 975 q 332 938 288 975 l 345 926 q 379 914 359 914 l 391 914 q 416 922 406 916 q 441 950 427 928 l 452 966 l 536 909 l 525 893 q 391 812 471 812 l 379 812 q 327 822 357 812 q 277 850 298 832 l 262 863 q 229 873 250 873 l 218 873 q 196 866 207 873 q 169 837 186 858 l 156 819 l 75 880 l 87 897 m 451 694 l 553 694 l 553 0 l 451 0 l 451 60 q 305 -17 383 -17 l 293 -17 q 211 -5 248 -17 q 141 34 173 7 q 91 111 109 61 q 73 229 73 160 l 73 694 l 174 694 l 174 229 q 204 116 174 147 q 293 85 233 85 l 305 85 q 372 124 337 85 q 429 215 408 163 q 451 303 451 267 l 451 694 z "},"Ū":{"ha":625,"x_min":73,"x_max":553,"o":"m 159 1019 l 159 1121 l 466 1121 l 466 1019 l 159 1019 m 174 229 q 209 118 174 151 q 307 85 243 85 l 319 85 q 417 118 382 85 q 451 229 451 151 l 451 949 l 553 949 l 553 229 q 491 47 553 112 q 319 -17 429 -17 l 307 -17 q 135 47 197 -17 q 73 229 73 111 l 73 949 l 174 949 l 174 229 z "},"ū":{"ha":625,"x_min":73,"x_max":553,"o":"m 159 770 l 159 871 l 466 871 l 466 770 l 159 770 m 451 694 l 553 694 l 553 0 l 451 0 l 451 60 q 305 -17 383 -17 l 293 -17 q 211 -5 248 -17 q 141 34 173 7 q 91 111 109 61 q 73 229 73 160 l 73 694 l 174 694 l 174 229 q 204 116 174 147 q 293 85 233 85 l 305 85 q 372 124 337 85 q 429 215 408 163 q 451 303 451 267 l 451 694 z "},"Ŭ":{"ha":625,"x_min":73,"x_max":553,"o":"m 311 995 q 203 1020 254 995 q 116 1089 153 1045 l 194 1154 q 311 1097 241 1097 q 431 1155 382 1097 l 509 1089 q 420 1020 471 1045 q 311 995 368 995 m 174 229 q 209 118 174 151 q 307 85 243 85 l 319 85 q 417 118 382 85 q 451 229 451 151 l 451 949 l 553 949 l 553 229 q 491 47 553 112 q 319 -17 429 -17 l 307 -17 q 135 47 197 -17 q 73 229 73 111 l 73 949 l 174 949 l 174 229 z "},"ŭ":{"ha":625,"x_min":73,"x_max":553,"o":"m 311 793 q 203 818 254 793 q 116 887 153 843 l 194 952 q 311 895 241 895 q 431 953 382 895 l 509 887 q 420 818 471 843 q 311 793 368 793 m 451 694 l 553 694 l 553 0 l 451 0 l 451 60 q 305 -17 383 -17 l 293 -17 q 211 -5 248 -17 q 141 34 173 7 q 91 111 109 61 q 73 229 73 160 l 73 694 l 174 694 l 174 229 q 204 116 174 147 q 293 85 233 85 l 305 85 q 372 124 337 85 q 429 215 408 163 q 451 303 451 267 l 451 694 z "},"Ů":{"ha":625,"x_min":73,"x_max":553,"o":"m 210 915 q 190 935 210 915 q 170 1012 170 955 q 210 1109 170 1069 q 306 1149 249 1149 q 404 1109 363 1149 q 444 1012 444 1069 q 404 915 444 955 q 306 875 363 875 q 210 915 249 875 m 263 1056 q 254 1047 263 1056 q 245 1012 245 1038 q 263 968 245 986 q 307 949 281 949 q 351 968 332 949 q 370 1012 370 986 q 351 1056 370 1038 q 307 1074 332 1074 q 263 1056 281 1074 m 174 209 q 209 107 174 137 q 307 77 243 77 l 319 77 q 417 107 382 77 q 451 209 451 137 l 451 871 l 553 871 l 553 209 q 491 42 553 101 q 319 -17 429 -17 l 307 -17 q 135 42 197 -17 q 73 209 73 101 l 73 871 l 174 871 l 174 209 z "},"ů":{"ha":625,"x_min":73,"x_max":553,"o":"m 210 831 q 190 851 210 831 q 170 928 170 871 q 210 1025 170 985 q 306 1065 249 1065 q 404 1025 363 1065 q 444 928 444 985 q 404 831 444 871 q 306 791 363 791 q 210 831 249 791 m 263 972 q 254 963 263 972 q 245 928 245 954 q 263 884 245 903 q 307 866 281 866 q 351 884 332 866 q 370 928 370 903 q 351 972 370 954 q 307 991 332 991 q 263 972 281 991 m 451 694 l 553 694 l 553 0 l 451 0 l 451 60 q 305 -17 383 -17 l 293 -17 q 211 -5 248 -17 q 141 34 173 7 q 91 111 109 61 q 73 229 73 160 l 73 694 l 174 694 l 174 229 q 204 116 174 147 q 293 85 233 85 l 305 85 q 372 124 337 85 q 429 215 408 163 q 451 303 451 267 l 451 694 z "},"Ű":{"ha":625,"x_min":39,"x_max":620,"o":"m 174 229 q 209 118 174 151 q 307 85 243 85 l 319 85 q 417 118 382 85 q 451 229 451 151 l 451 949 l 553 949 l 553 229 q 491 47 553 112 q 319 -17 429 -17 l 307 -17 q 135 47 197 -17 q 73 229 73 111 l 73 949 l 174 949 l 174 229 z "},"ű":{"ha":625,"x_min":46,"x_max":627,"o":"m 451 694 l 553 694 l 553 0 l 451 0 l 451 60 q 305 -17 383 -17 l 293 -17 q 211 -5 248 -17 q 141 34 173 7 q 91 111 109 61 q 73 229 73 160 l 73 694 l 174 694 l 174 229 q 204 116 174 147 q 293 85 233 85 l 305 85 q 372 124 337 85 q 429 215 408 163 q 451 303 451 267 l 451 694 z "},"Ų":{"ha":625,"x_min":73,"x_max":553,"o":"m 379 -260 q 289 -294 339 -294 q 192 -253 232 -294 q 151 -155 151 -212 q 190 -59 151 -100 l 261 12 l 261 40 l 363 40 l 363 -30 l 263 -130 q 253 -155 253 -141 q 264 -181 253 -170 q 289 -192 275 -192 q 313 -183 302 -192 l 331 -168 l 397 -244 l 379 -260 m 174 229 q 209 118 174 151 q 307 85 243 85 l 319 85 q 417 118 382 85 q 451 229 451 151 l 451 949 l 553 949 l 553 229 q 491 47 553 112 q 319 -17 429 -17 l 307 -17 q 135 47 197 -17 q 73 229 73 111 l 73 949 l 174 949 l 174 229 z "},"ų":{"ha":625,"x_min":73,"x_max":587,"o":"m 569 -260 q 479 -294 529 -294 q 381 -253 422 -294 q 341 -155 341 -212 q 380 -59 341 -100 l 451 12 l 451 40 l 553 40 l 553 -30 l 453 -130 q 443 -155 443 -141 q 454 -181 443 -170 q 479 -192 465 -192 q 503 -183 492 -192 l 521 -168 l 587 -244 l 569 -260 m 451 694 l 553 694 l 553 0 l 451 0 l 451 60 q 305 -17 383 -17 l 293 -17 q 211 -5 248 -17 q 141 34 173 7 q 91 111 109 61 q 73 229 73 160 l 73 694 l 174 694 l 174 229 q 204 116 174 147 q 293 85 233 85 l 305 85 q 372 124 337 85 q 429 215 408 163 q 451 303 451 267 l 451 694 z "},"Ŵ":{"ha":625,"x_min":18,"x_max":608,"o":"m 366 1154 l 478 1074 l 420 992 l 313 1065 l 207 992 l 149 1074 l 261 1154 l 366 1154 m 86 0 l 18 949 l 120 949 l 165 324 l 284 807 l 341 807 l 460 324 l 505 949 l 608 949 l 539 0 l 435 0 l 313 499 l 190 0 l 86 0 z "},"ŵ":{"ha":625,"x_min":19,"x_max":606,"o":"m 366 954 l 478 875 l 420 793 l 313 866 l 207 793 l 149 875 l 261 954 l 366 954 m 91 0 l 19 694 l 122 694 l 163 292 l 280 644 l 345 644 l 462 292 l 503 694 l 606 694 l 534 0 l 452 0 l 313 418 l 174 0 l 91 0 z "},"Ŷ":{"ha":625,"x_min":61,"x_max":564,"o":"m 366 1149 l 478 1070 l 420 988 l 313 1061 l 207 988 l 149 1070 l 261 1149 l 366 1149 m 262 -17 l 262 340 l 61 949 l 168 949 l 313 510 l 458 949 l 564 949 l 364 340 l 363 -17 l 262 -17 z "},"ŷ":{"ha":625,"x_min":56,"x_max":570,"o":"m 378 954 l 491 875 l 433 793 l 326 866 l 220 793 l 161 875 l 274 954 l 378 954 m 570 694 l 393 -88 q 365 -164 383 -132 q 328 -213 347 -197 q 286 -238 309 -229 q 249 -249 262 -247 q 220 -250 235 -250 q 121 -216 166 -250 q 56 -134 76 -182 l 150 -96 q 179 -133 159 -117 q 220 -149 199 -149 q 265 -123 243 -149 q 296 -61 288 -98 l 326 71 l 73 694 l 184 694 l 365 247 l 466 694 l 570 694 z "},"Ÿ":{"ha":625,"x_min":61,"x_max":564,"o":"m 200 1134 q 211 1122 200 1134 q 222 1080 222 1111 q 200 1025 222 1048 q 148 1002 178 1002 q 94 1024 117 1002 q 72 1080 72 1047 q 95 1135 72 1113 q 146 1156 117 1156 q 200 1134 178 1156 m 531 1135 q 543 1124 531 1135 q 554 1080 554 1113 q 532 1024 554 1046 q 480 1002 509 1002 q 427 1025 450 1002 q 405 1080 405 1048 q 427 1134 405 1112 q 480 1156 450 1156 q 531 1135 509 1156 m 262 -17 l 262 340 l 61 949 l 168 949 l 313 510 l 458 949 l 564 949 l 364 340 l 363 -17 l 262 -17 z "},"Ź":{"ha":625,"x_min":61,"x_max":564,"o":"m 321 938 l 226 1029 l 401 1214 l 496 1122 l 321 938 m 61 848 l 61 949 l 564 949 l 564 855 l 180 102 l 564 102 l 564 0 l 61 0 l 61 95 l 446 848 l 61 848 z "},"ź":{"ha":625,"x_min":59,"x_max":568,"o":"m 281 781 l 186 872 l 361 1057 l 456 965 l 281 781 m 59 77 l 430 593 l 95 593 l 95 694 l 568 694 l 568 610 l 202 102 l 568 102 l 568 0 l 59 0 l 59 77 z "},"Ż":{"ha":625,"x_min":61,"x_max":564,"o":"m 251 1012 q 240 1023 251 1012 q 229 1068 229 1035 q 251 1124 229 1101 q 307 1147 274 1147 q 364 1124 340 1147 q 387 1068 387 1101 q 364 1012 387 1035 q 307 989 340 989 q 251 1012 274 989 m 61 848 l 61 949 l 564 949 l 564 855 l 180 102 l 564 102 l 564 0 l 61 0 l 61 95 l 446 848 l 61 848 z "},"ż":{"ha":625,"x_min":59,"x_max":568,"o":"m 252 823 q 241 835 252 823 q 229 880 229 846 q 252 936 229 913 q 308 959 275 959 q 365 936 341 959 q 388 880 388 913 q 365 823 388 846 q 308 800 341 800 q 252 823 275 800 m 59 77 l 430 593 l 95 593 l 95 694 l 568 694 l 568 610 l 202 102 l 568 102 l 568 0 l 59 0 l 59 77 z "},"Ž":{"ha":625,"x_min":61,"x_max":564,"o":"m 311 1096 l 417 1170 l 475 1087 l 363 1008 l 258 1008 l 146 1087 l 204 1170 l 311 1096 m 61 848 l 61 949 l 564 949 l 564 855 l 180 102 l 564 102 l 564 0 l 61 0 l 61 95 l 446 848 l 61 848 z "},"ž":{"ha":625,"x_min":59,"x_max":568,"o":"m 311 896 l 418 970 l 476 887 l 363 808 l 259 808 l 146 887 l 205 970 l 311 896 m 59 77 l 430 593 l 95 593 l 95 694 l 568 694 l 568 610 l 202 102 l 568 102 l 568 0 l 59 0 l 59 77 z "},"ſ":{"ha":625,"x_min":52,"x_max":553,"o":"m 451 488 q 416 575 451 541 q 319 610 381 610 l 307 610 q 208 588 241 610 q 174 535 174 566 l 174 527 q 186 489 176 503 q 205 471 196 474 l 461 352 q 526 296 498 334 q 553 204 553 258 l 553 173 q 486 36 553 89 q 319 -17 418 -17 l 286 -17 q 161 20 216 -17 q 79 112 106 56 q 52 229 52 167 l 154 229 q 190 130 154 174 q 286 85 227 85 l 319 85 q 411 108 372 85 q 451 173 451 131 l 451 204 q 440 238 451 222 q 418 260 429 254 l 163 377 q 119 411 138 389 q 91 455 100 432 q 77 496 81 477 q 73 527 73 514 l 73 535 q 96 615 73 580 q 156 671 119 650 q 231 701 193 691 q 307 711 270 711 l 319 711 q 450 680 395 711 q 528 599 504 648 q 553 488 553 549 l 451 488 z "},"ƒ":{"ha":625,"x_min":17,"x_max":607,"o":"m 522 841 q 458 865 503 865 q 406 847 427 865 q 384 798 385 829 l 375 612 l 524 612 l 524 510 l 371 510 l 343 -89 q 290 -207 340 -153 q 168 -261 240 -261 q 83 -238 124 -261 q 17 -176 41 -216 l 104 -122 q 131 -149 113 -137 q 168 -160 149 -160 q 218 -136 195 -160 q 241 -83 240 -111 l 269 510 l 122 510 l 122 612 l 273 612 l 282 804 q 335 920 286 874 q 458 966 385 966 q 516 957 488 966 q 563 934 544 948 q 591 911 582 920 q 607 895 601 903 l 522 841 z "},"ȷ":{"ha":625,"x_min":147,"x_max":498,"o":"m 323 -149 q 377 -130 357 -149 q 397 -74 397 -111 l 397 593 l 181 593 l 181 694 l 498 694 l 498 -74 q 449 -202 498 -153 q 323 -250 399 -250 q 199 -198 250 -250 q 147 -75 147 -145 l 249 -75 q 271 -126 249 -103 q 323 -149 293 -149 z "},"ˆ":{"ha":625,"x_min":148,"x_max":477,"o":"m 365 1111 l 477 1031 l 419 949 l 313 1023 l 206 949 l 148 1031 l 260 1111 l 365 1111 z "},"ˇ":{"ha":625,"x_min":148,"x_max":477,"o":"m 313 1053 l 419 1126 l 477 1044 l 365 964 l 260 964 l 148 1044 l 206 1126 l 313 1053 z "},"ˉ":{"ha":625,"x_min":159,"x_max":466,"o":"m 159 992 l 159 1094 l 466 1094 l 466 992 l 159 992 z "},"ˋ":{"ha":625,"x_min":198,"x_max":468,"o":"m 468 986 l 373 895 l 198 1079 l 293 1171 l 468 986 z "},"˘":{"ha":625,"x_min":116,"x_max":509,"o":"m 311 953 q 203 978 254 953 q 116 1047 153 1003 l 194 1112 q 311 1055 241 1055 q 431 1113 382 1055 l 509 1047 q 420 978 471 1003 q 311 953 368 953 z "},"˙":{"ha":625,"x_min":231,"x_max":389,"o":"m 253 966 q 242 977 253 966 q 231 1022 231 989 q 253 1078 231 1055 q 309 1101 276 1101 q 366 1078 342 1101 q 389 1022 389 1055 q 366 966 389 989 q 309 943 342 943 q 253 966 276 943 z "},"˚":{"ha":625,"x_min":170,"x_max":444,"o":"m 210 869 q 190 889 210 869 q 170 966 170 909 q 210 1063 170 1023 q 306 1103 249 1103 q 404 1063 363 1103 q 444 966 444 1023 q 404 869 444 909 q 306 829 363 829 q 210 869 249 829 m 263 1010 q 254 1001 263 1010 q 245 966 245 992 q 263 922 245 941 q 307 904 281 904 q 351 922 332 904 q 370 966 370 941 q 351 1010 370 992 q 307 1029 332 1029 q 263 1010 281 1029 z "},"˛":{"ha":625,"x_min":199,"x_max":445,"o":"m 427 -252 q 336 -285 387 -285 q 239 -244 279 -285 q 199 -146 199 -203 q 237 -50 199 -91 l 309 21 l 309 49 l 410 49 l 410 -21 l 311 -121 q 300 -146 300 -132 q 311 -172 300 -161 q 336 -183 322 -183 q 360 -174 349 -183 l 378 -159 l 445 -235 l 427 -252 z "},"˜":{"ha":625,"x_min":83,"x_max":544,"o":"m 96 1066 q 227 1144 157 1144 l 237 1144 q 340 1107 296 1144 l 353 1095 q 387 1083 368 1083 l 399 1083 q 425 1091 414 1084 q 449 1119 435 1097 l 460 1135 l 544 1078 l 533 1062 q 399 981 479 981 l 387 981 q 335 991 365 981 q 285 1019 306 1001 l 271 1031 q 237 1042 258 1042 l 227 1042 q 204 1035 215 1042 q 177 1006 194 1027 l 164 988 l 83 1049 l 96 1066 z "},"˝":{"ha":625,"x_min":-1,"x_max":579,"o":"m 94 890 l -1 982 l 174 1166 l 269 1075 l 94 890 m 404 895 l 309 986 l 484 1171 l 579 1079 l 404 895 z "},"̀":{"ha":625,"x_min":198,"x_max":468,"o":"m 468 986 l 373 895 l 198 1079 l 293 1171 l 468 986 z "},"́":{"ha":625,"x_min":157,"x_max":427,"o":"m 252 895 l 157 986 l 332 1171 l 427 1079 l 252 895 z "},"̃":{"ha":625,"x_min":83,"x_max":544,"o":"m 96 1066 q 227 1144 157 1144 l 237 1144 q 340 1107 296 1144 l 353 1095 q 387 1083 368 1083 l 399 1083 q 425 1091 414 1084 q 449 1119 435 1097 l 460 1135 l 544 1078 l 533 1062 q 399 981 479 981 l 387 981 q 335 991 365 981 q 285 1019 306 1001 l 271 1031 q 237 1042 258 1042 l 227 1042 q 204 1035 215 1042 q 177 1006 194 1027 l 164 988 l 83 1049 l 96 1066 z "},"̈":{"ha":625,"x_min":71,"x_max":553,"o":"m 222 927 q 200 872 222 896 q 147 848 178 848 q 94 871 117 848 q 71 927 71 895 q 94 981 71 960 q 146 1002 117 1002 q 200 980 178 1002 q 222 927 222 958 m 553 927 q 531 870 553 893 q 479 848 509 848 q 427 871 449 848 q 404 927 404 895 q 427 981 404 960 q 479 1002 449 1002 q 531 981 508 1002 q 553 927 553 960 z "},"̉":{"ha":625,"x_min":161,"x_max":503,"o":"m 503 1014 q 491 964 503 986 q 464 929 479 942 q 428 908 449 917 q 394 897 407 899 q 368 892 381 894 l 368 851 l 267 851 l 267 978 l 317 978 q 401 1014 401 978 q 378 1042 401 1033 q 326 1052 356 1052 q 217 1021 264 1052 l 161 1093 q 326 1140 233 1140 q 460 1104 418 1140 q 503 1014 503 1067 z "},"̌":{"ha":625,"x_min":148,"x_max":477,"o":"m 313 1053 l 419 1126 l 477 1044 l 365 964 l 260 964 l 148 1044 l 206 1126 l 313 1053 z "},"̒":{"ha":625,"x_min":170,"x_max":517,"o":"m 415 -183 q 388 -142 415 -157 q 332 -127 360 -127 l 277 -127 l 287 2 l 287 12 l 389 12 l 389 -2 l 386 -43 q 517 -183 517 -66 q 496 -256 517 -225 q 446 -302 476 -287 q 388 -323 415 -317 q 340 -330 361 -330 q 170 -265 245 -330 l 237 -201 q 340 -241 283 -241 q 389 -225 362 -241 q 415 -183 415 -208 z "},"̕":{"ha":625,"x_min":395,"x_max":608,"o":"m 608 875 q 406 617 608 640 l 395 654 q 461 694 429 667 q 493 752 493 722 q 470 797 493 790 q 424 827 439 806 q 409 875 409 848 q 437 944 409 915 q 508 973 465 973 q 579 945 551 973 q 608 875 608 916 z "},"̣":{"ha":625,"x_min":234,"x_max":393,"o":"m 257 -228 q 245 -216 257 -228 q 234 -172 234 -205 q 257 -115 234 -138 q 313 -92 279 -92 q 369 -115 346 -92 q 393 -172 393 -138 q 369 -228 393 -205 q 313 -251 346 -251 q 257 -228 279 -251 z "},"̦":{"ha":625,"x_min":210,"x_max":422,"o":"m 422 -147 q 220 -405 422 -382 l 210 -368 q 275 -328 243 -355 q 307 -270 307 -300 q 284 -225 307 -232 q 238 -195 254 -216 q 223 -147 223 -174 q 251 -78 223 -107 q 322 -49 279 -49 q 393 -77 365 -49 q 422 -147 422 -106 z "},"΄":{"ha":625,"x_min":157,"x_max":427,"o":"m 252 895 l 157 986 l 332 1171 l 427 1079 l 252 895 z "},"Α":{"ha":625,"x_min":60,"x_max":565,"o":"m 223 271 l 402 271 l 313 681 l 223 271 m 163 0 l 60 0 l 271 966 l 355 966 l 565 0 l 461 0 l 425 169 l 201 169 l 163 0 z "},"Β":{"ha":625,"x_min":73,"x_max":553,"o":"m 285 949 q 325 949 309 949 q 368 944 340 948 q 413 932 395 940 q 453 910 431 925 q 488 873 475 895 q 510 818 500 852 q 519 743 519 785 l 519 694 q 469 541 519 593 q 553 336 553 478 l 553 235 q 494 63 553 125 q 319 0 435 0 l 73 0 l 73 949 l 285 949 m 451 235 l 451 336 q 443 410 451 380 q 417 455 435 439 q 376 477 399 471 q 319 483 353 483 l 174 483 l 174 102 l 319 102 q 420 134 390 102 q 451 235 451 166 m 417 743 q 391 829 417 810 q 285 848 366 848 l 174 848 l 174 585 l 285 585 q 391 608 364 585 q 417 694 417 631 l 417 743 z "},"Γ":{"ha":625,"x_min":73,"x_max":564,"o":"m 73 0 l 73 949 l 564 949 l 564 847 l 174 847 l 174 0 l 73 0 z "},"Δ":{"ha":625,"x_min":60,"x_max":565,"o":"m 439 102 l 313 681 l 186 102 l 439 102 m 60 0 l 271 966 l 355 966 l 565 0 l 60 0 z "},"Ε":{"ha":625,"x_min":73,"x_max":564,"o":"m 174 483 l 174 102 l 564 102 l 564 0 l 73 0 l 73 949 l 564 949 l 564 848 l 174 848 l 174 585 l 502 585 l 502 483 l 174 483 z "},"Ζ":{"ha":625,"x_min":61,"x_max":564,"o":"m 61 848 l 61 949 l 564 949 l 564 855 l 180 102 l 564 102 l 564 0 l 61 0 l 61 95 l 446 848 l 61 848 z "},"Η":{"ha":625,"x_min":73,"x_max":553,"o":"m 174 0 l 73 0 l 73 949 l 174 949 l 174 547 l 451 547 l 451 949 l 553 949 l 553 0 l 451 0 l 451 446 l 174 446 l 174 0 z "},"Θ":{"ha":625,"x_min":66,"x_max":559,"o":"m 559 519 l 559 472 q 543 259 559 351 q 503 117 527 168 q 444 34 478 66 q 380 -7 410 3 q 317 -17 350 -17 l 309 -17 q 246 -7 276 -17 q 182 34 216 2 q 123 116 147 65 q 82 259 98 168 q 66 472 66 351 l 66 517 q 309 966 66 966 l 317 966 q 559 519 559 966 m 317 865 l 309 865 q 202 780 237 865 q 168 517 168 695 l 168 472 q 170 376 168 422 q 182 275 173 330 q 206 179 191 220 q 247 112 220 139 q 309 85 274 85 l 317 85 q 379 112 352 85 q 420 180 406 140 q 444 275 435 220 q 455 376 452 330 q 458 472 458 422 l 458 519 q 423 780 458 696 q 317 865 389 865 m 395 525 l 395 423 l 231 423 l 231 525 l 395 525 z "},"Ι":{"ha":625,"x_min":61,"x_max":564,"o":"m 564 949 l 564 848 l 363 848 l 363 102 l 564 102 l 564 0 l 61 0 l 61 102 l 262 102 l 262 848 l 61 848 l 61 949 l 564 949 z "},"Κ":{"ha":625,"x_min":73,"x_max":575,"o":"m 73 0 l 73 949 l 175 949 l 175 510 l 444 949 l 564 949 l 315 545 l 575 0 l 462 0 l 252 441 l 175 316 l 175 0 l 73 0 z "},"Λ":{"ha":625,"x_min":57,"x_max":566,"o":"m 161 0 l 57 0 l 271 966 l 354 966 l 566 0 l 463 0 l 313 684 l 161 0 z "},"Μ":{"ha":625,"x_min":18,"x_max":608,"o":"m 18 0 l 86 949 l 190 949 l 313 451 l 435 949 l 539 949 l 608 0 l 505 0 l 460 626 l 341 143 l 284 143 l 165 626 l 120 0 l 18 0 z "},"Ν":{"ha":625,"x_min":73,"x_max":553,"o":"m 174 0 l 73 0 l 73 949 l 164 949 l 451 281 l 451 949 l 553 949 l 553 0 l 460 0 l 174 668 l 174 0 z "},"Ξ":{"ha":625,"x_min":73,"x_max":553,"o":"m 174 102 l 451 102 l 451 229 l 553 229 l 553 0 l 73 0 l 73 229 l 174 229 l 174 102 m 441 526 l 441 424 l 184 424 l 184 526 l 441 526 m 73 711 l 73 949 l 553 949 l 553 711 l 451 711 l 451 848 l 174 848 l 174 711 l 73 711 z "},"Ο":{"ha":625,"x_min":66,"x_max":559,"o":"m 559 519 l 559 472 q 543 259 559 351 q 503 117 527 168 q 444 34 478 66 q 380 -7 410 3 q 317 -17 350 -17 l 309 -17 q 246 -7 276 -17 q 182 34 216 2 q 123 116 147 65 q 82 259 98 168 q 66 472 66 351 l 66 517 q 309 966 66 966 l 317 966 q 559 519 559 966 m 317 865 l 309 865 q 202 780 237 865 q 168 517 168 695 l 168 472 q 170 376 168 422 q 182 275 173 330 q 206 179 191 220 q 247 112 220 139 q 309 85 274 85 l 317 85 q 379 112 352 85 q 420 180 406 140 q 444 275 435 220 q 455 376 452 330 q 458 472 458 422 l 458 519 q 423 780 458 696 q 317 865 389 865 z "},"Π":{"ha":625,"x_min":73,"x_max":553,"o":"m 73 0 l 73 949 l 553 949 l 553 0 l 451 0 l 451 848 l 174 848 l 174 0 l 73 0 z "},"Ρ":{"ha":625,"x_min":73,"x_max":553,"o":"m 174 435 l 174 0 l 73 0 l 73 949 l 319 949 q 412 939 372 949 q 485 904 452 929 q 535 833 518 880 q 553 721 553 787 l 553 659 q 542 576 553 614 q 506 506 531 538 q 434 454 481 473 q 319 435 386 435 l 174 435 m 319 537 q 422 565 393 537 q 451 659 451 593 l 451 721 q 424 822 451 795 q 319 848 396 848 l 174 848 l 174 537 l 319 537 z "},"Σ":{"ha":625,"x_min":61,"x_max":564,"o":"m 61 949 l 564 949 l 564 848 l 176 848 l 370 500 l 170 85 l 564 85 l 564 -17 l 61 -17 l 61 91 l 256 496 l 61 845 l 61 949 z "},"Τ":{"ha":625,"x_min":47,"x_max":578,"o":"m 578 949 l 578 848 l 363 848 l 363 0 l 262 0 l 262 848 l 47 848 l 47 949 l 578 949 z "},"Υ":{"ha":625,"x_min":61,"x_max":564,"o":"m 262 -17 l 262 340 l 61 949 l 168 949 l 313 510 l 458 949 l 564 949 l 364 340 l 363 -17 l 262 -17 z "},"Φ":{"ha":625,"x_min":37,"x_max":589,"o":"m 262 159 l 262 792 q 170 707 201 775 q 138 511 138 640 l 138 473 q 262 159 138 202 m 363 792 l 363 159 q 426 204 400 172 q 464 283 451 237 q 482 375 477 329 q 488 473 488 420 l 488 511 q 456 708 488 641 q 363 792 425 776 m 363 -17 l 262 -17 l 262 54 q 198 75 228 60 q 138 121 168 90 q 85 197 107 153 q 50 313 64 242 q 37 473 37 384 l 37 511 q 51 661 37 595 q 86 769 64 728 q 138 838 108 810 q 198 879 169 866 q 262 897 228 891 l 262 966 l 363 966 l 363 897 q 427 879 397 891 q 487 839 456 867 q 540 769 518 810 q 575 662 562 728 q 589 511 589 596 l 589 473 q 575 312 589 383 q 540 197 562 241 q 487 121 518 153 q 427 75 456 90 q 363 54 397 60 l 363 -17 z "},"Χ":{"ha":625,"x_min":64,"x_max":562,"o":"m 64 0 l 258 475 l 64 949 l 173 949 l 313 608 l 452 949 l 562 949 l 367 475 l 562 0 l 452 0 l 313 341 l 173 0 l 64 0 z "},"Ψ":{"ha":625,"x_min":59,"x_max":566,"o":"m 161 494 q 181 432 161 466 q 235 398 202 398 l 262 398 l 262 966 l 363 966 l 363 398 l 391 398 q 444 426 423 398 q 465 494 465 454 l 465 916 l 566 916 l 566 494 q 517 355 566 413 q 391 296 467 296 l 363 296 l 363 -16 l 262 -16 l 262 296 l 235 296 q 165 311 196 296 q 114 349 134 326 q 82 399 95 371 q 64 450 69 427 q 59 494 59 474 l 59 916 l 161 916 l 161 494 z "},"Ω":{"ha":625,"x_min":61,"x_max":564,"o":"m 164 102 l 164 199 q 66 554 66 311 l 66 591 q 309 967 66 967 l 317 967 q 559 593 559 967 l 559 554 q 461 197 559 300 l 461 102 l 564 102 l 564 0 l 359 0 l 359 243 l 378 258 q 437 367 416 290 q 458 554 458 444 l 458 593 q 449 714 458 663 q 427 794 440 766 q 393 839 413 823 q 356 861 373 856 q 317 865 338 865 l 309 865 q 270 861 287 865 q 232 839 252 856 q 199 793 212 822 q 177 713 186 765 q 168 591 168 662 l 168 554 q 250 256 168 336 l 266 241 l 266 0 l 61 0 l 61 102 l 164 102 z "},"Ϊ":{"ha":625,"x_min":61,"x_max":564,"o":"m 200 1134 q 211 1122 200 1134 q 222 1080 222 1111 q 200 1025 222 1048 q 148 1002 178 1002 q 94 1024 117 1002 q 72 1080 72 1047 q 95 1135 72 1113 q 146 1156 117 1156 q 200 1134 178 1156 m 531 1135 q 543 1124 531 1135 q 554 1080 554 1113 q 532 1024 554 1046 q 480 1002 509 1002 q 427 1025 450 1002 q 405 1080 405 1048 q 427 1134 405 1112 q 480 1156 450 1156 q 531 1135 509 1156 m 564 949 l 564 848 l 363 848 l 363 102 l 564 102 l 564 0 l 61 0 l 61 102 l 262 102 l 262 848 l 61 848 l 61 949 l 564 949 z "},"Ϋ":{"ha":625,"x_min":61,"x_max":564,"o":"m 200 1132 q 211 1121 200 1132 q 222 1078 222 1109 q 200 1024 222 1047 q 148 1000 178 1000 q 94 1023 117 1000 q 72 1078 72 1046 q 95 1133 72 1112 q 146 1155 117 1155 q 200 1132 178 1155 m 531 1133 q 543 1122 531 1133 q 554 1078 554 1112 q 532 1023 554 1045 q 480 1000 509 1000 q 427 1023 450 1000 q 405 1078 405 1046 q 427 1133 405 1111 q 480 1155 450 1155 q 531 1133 509 1155 m 262 -17 l 262 340 l 61 949 l 168 949 l 313 510 l 458 949 l 564 949 l 364 340 l 363 -17 l 262 -17 z "},"ά":{"ha":625,"x_min":66,"x_max":581,"o":"m 252 801 l 157 892 l 332 1077 l 427 985 l 252 801 m 508 350 l 581 11 l 481 -11 l 456 107 q 392 9 439 45 q 279 -27 346 -27 q 194 -4 231 -27 q 133 55 157 18 q 94 141 109 92 q 72 242 78 191 q 66 348 66 293 q 72 453 66 403 q 94 554 78 504 q 133 640 109 604 q 194 699 157 676 q 279 721 231 721 q 391 686 345 721 q 456 592 437 651 l 479 705 l 578 684 l 508 350 m 404 350 l 360 553 q 279 619 345 619 q 198 545 229 619 q 168 348 168 470 q 198 150 168 224 q 279 75 229 75 q 359 140 345 75 l 404 350 z "},"έ":{"ha":625,"x_min":73,"x_max":524,"o":"m 272 788 l 177 880 l 352 1064 l 447 972 l 272 788 m 441 581 q 332 610 416 610 l 307 610 q 203 585 232 610 q 174 518 174 561 q 208 445 174 477 q 309 412 242 412 l 412 412 l 412 311 l 309 311 q 245 300 273 311 q 203 273 218 289 q 181 241 189 256 q 174 215 174 227 l 174 203 q 205 118 174 151 q 307 85 235 85 l 332 85 q 405 91 382 85 q 443 116 428 98 l 522 52 q 446 -2 490 14 q 332 -17 403 -17 l 307 -17 q 135 44 198 -17 q 73 203 73 105 l 73 215 q 93 293 73 254 q 149 361 113 332 q 92 432 112 391 q 73 518 73 474 q 133 660 73 609 q 307 711 194 711 l 332 711 q 406 705 372 711 q 456 692 439 699 q 492 671 474 685 q 512 654 509 658 q 524 640 515 651 l 441 581 z "},"ή":{"ha":625,"x_min":73,"x_max":553,"o":"m 280 795 l 185 886 l 360 1071 l 455 979 l 280 795 m 174 0 l 73 0 l 73 694 l 174 694 l 174 649 q 307 711 235 711 l 319 711 q 415 699 373 711 q 482 665 456 686 q 524 614 508 644 q 547 554 541 585 q 553 488 553 524 l 553 -261 l 451 -261 l 451 488 q 422 582 451 554 q 319 610 393 610 l 307 610 q 242 573 274 610 q 193 490 211 537 q 174 405 174 442 l 174 0 z "},"ί":{"ha":625,"x_min":123,"x_max":502,"o":"m 244 801 l 149 892 l 324 1077 l 419 985 l 244 801 z "},"ΰ":{"ha":625,"x_min":71,"x_max":559,"o":"m 293 939 l 198 1030 l 373 1215 l 468 1123 l 293 939 z "},"α":{"ha":625,"x_min":66,"x_max":581,"o":"m 508 350 l 581 11 l 481 -11 l 456 107 q 392 9 439 45 q 279 -27 346 -27 q 194 -4 231 -27 q 133 55 157 18 q 94 141 109 92 q 72 242 78 191 q 66 348 66 293 q 72 453 66 403 q 94 554 78 504 q 133 640 109 604 q 194 699 157 676 q 279 721 231 721 q 391 686 345 721 q 456 592 437 651 l 479 705 l 578 684 l 508 350 m 404 350 l 360 553 q 279 619 345 619 q 198 545 229 619 q 168 348 168 470 q 198 150 168 224 q 279 75 229 75 q 359 140 345 75 l 404 350 z "},"β":{"ha":625,"x_min":73,"x_max":566,"o":"m 174 176 q 203 109 174 133 q 307 85 231 85 l 332 85 q 435 109 407 85 q 464 176 464 133 l 464 220 q 444 282 464 258 q 395 314 423 306 q 332 321 368 321 l 272 321 l 272 423 l 309 423 q 408 456 374 423 q 441 532 441 488 q 316 610 441 610 l 307 610 q 203 582 233 610 q 174 488 174 554 l 174 176 m 73 488 q 79 554 73 524 q 101 614 85 585 q 143 665 117 644 q 211 699 169 686 q 307 711 252 711 l 316 711 q 398 703 361 711 q 459 681 435 695 q 501 649 484 666 q 527 610 518 631 q 539 570 536 589 q 543 532 543 551 q 480 385 543 446 q 544 316 522 358 q 566 220 566 273 l 566 176 q 560 126 566 150 q 539 75 555 102 q 499 28 524 48 q 431 -4 474 9 q 332 -17 388 -17 l 307 -17 q 174 8 228 -17 l 174 -218 l 73 -218 l 73 488 z "},"γ":{"ha":625,"x_min":71,"x_max":555,"o":"m 262 -261 l 262 26 l 71 694 l 176 694 l 313 218 l 449 694 l 555 694 l 363 26 l 363 -261 l 262 -261 z "},"δ":{"ha":625,"x_min":73,"x_max":553,"o":"m 451 405 q 445 477 451 444 q 425 542 439 511 q 384 591 411 573 q 319 610 357 610 l 307 610 q 241 592 269 610 q 200 543 214 574 q 180 478 186 511 q 174 405 174 444 l 174 290 q 213 141 174 198 q 307 85 252 85 l 319 85 q 384 103 357 85 q 425 152 411 121 q 445 216 439 182 q 451 290 451 250 l 451 405 m 81 949 l 502 949 l 502 848 l 245 848 l 446 694 q 526 576 499 653 q 553 405 553 500 l 553 290 q 491 66 553 149 q 319 -17 430 -17 l 307 -17 q 139 70 206 -17 q 73 290 73 156 l 73 405 q 118 605 73 524 q 253 706 164 686 l 81 856 l 81 949 z "},"ε":{"ha":625,"x_min":73,"x_max":524,"o":"m 441 581 q 332 610 416 610 l 307 610 q 203 585 232 610 q 174 518 174 561 q 208 445 174 477 q 309 412 242 412 l 412 412 l 412 311 l 309 311 q 245 300 273 311 q 203 273 218 289 q 181 241 189 256 q 174 215 174 227 l 174 203 q 205 118 174 151 q 307 85 235 85 l 332 85 q 405 91 382 85 q 443 116 428 98 l 522 52 q 446 -2 490 14 q 332 -17 403 -17 l 307 -17 q 135 44 198 -17 q 73 203 73 105 l 73 215 q 93 293 73 254 q 149 361 113 332 q 92 432 112 391 q 73 518 73 474 q 133 660 73 609 q 307 711 194 711 l 332 711 q 406 705 372 711 q 456 692 439 699 q 492 671 474 685 q 512 654 509 658 q 524 640 515 651 l 441 581 z "},"ζ":{"ha":625,"x_min":73,"x_max":553,"o":"m 451 -71 q 422 -30 451 -42 q 319 -17 394 -17 l 307 -17 q 135 47 197 -17 q 73 229 73 111 l 73 242 q 87 315 73 279 q 126 380 101 350 q 171 427 152 410 q 216 465 191 445 l 356 575 l 391 600 q 218 674 281 616 l 287 749 q 375 706 320 718 q 515 694 429 694 l 551 694 l 551 607 q 417 494 510 566 l 279 385 q 174 242 174 302 l 174 229 q 209 118 174 151 q 307 85 243 85 l 319 85 q 458 63 404 85 q 528 5 503 45 q 553 -71 553 -35 q 547 -118 553 -96 q 526 -165 542 -140 q 484 -208 510 -190 q 414 -238 458 -226 q 313 -250 370 -250 l 313 -149 q 389 -142 359 -149 q 432 -123 419 -136 q 448 -99 444 -110 q 451 -71 451 -88 z "},"η":{"ha":625,"x_min":73,"x_max":553,"o":"m 174 0 l 73 0 l 73 694 l 174 694 l 174 649 q 307 711 235 711 l 319 711 q 415 699 373 711 q 482 665 456 686 q 524 614 508 644 q 547 554 541 585 q 553 488 553 524 l 553 -261 l 451 -261 l 451 488 q 422 582 451 554 q 319 610 393 610 l 307 610 q 242 573 274 610 q 193 490 211 537 q 174 405 174 442 l 174 0 z "},"θ":{"ha":625,"x_min":66,"x_max":559,"o":"m 457 296 l 168 296 q 174 236 170 264 q 188 179 178 208 q 212 130 198 151 q 248 97 226 110 q 299 85 271 85 l 323 85 q 385 103 359 85 q 427 152 412 121 q 449 219 441 184 q 457 296 456 254 m 559 381 l 559 319 q 544 179 559 240 q 504 81 528 117 q 447 22 479 45 q 384 -9 414 -1 q 323 -17 354 -17 l 299 -17 q 125 77 185 -17 q 66 319 66 170 l 66 380 q 79 506 66 448 q 119 610 92 564 q 192 684 146 657 q 298 711 238 711 l 324 711 q 431 684 385 711 q 504 612 477 658 q 546 507 532 566 q 559 381 559 449 m 324 609 l 298 609 q 237 590 262 609 q 197 540 211 572 q 176 473 182 508 q 168 398 169 438 l 457 398 q 449 474 456 439 q 428 541 442 509 q 387 591 414 572 q 324 609 360 609 z "},"ι":{"ha":625,"x_min":123,"x_max":502,"o":"m 123 694 l 363 694 l 363 102 l 502 102 l 502 0 l 123 0 l 123 102 l 262 102 l 262 593 l 123 593 l 123 694 z "},"κ":{"ha":625,"x_min":73,"x_max":565,"o":"m 174 0 l 73 0 l 73 694 l 174 694 l 174 249 l 480 694 l 564 637 l 335 304 l 565 0 l 437 0 l 274 215 l 174 70 l 174 0 z "},"λ":{"ha":625,"x_min":71,"x_max":555,"o":"m 71 0 l 260 662 l 178 956 l 284 956 l 555 0 l 449 0 l 313 477 l 176 0 l 71 0 z "},"μ":{"ha":625,"x_min":47,"x_max":571,"o":"m 451 41 q 319 -17 390 -17 l 307 -17 q 174 28 232 -17 l 174 -17 q 169 -143 174 -96 q 144 -252 163 -190 l 47 -220 q 68 -131 64 -170 q 73 -17 73 -91 l 73 694 l 174 694 l 174 269 q 209 139 174 193 q 307 85 243 85 l 319 85 q 384 116 352 85 q 433 191 415 148 q 451 269 451 233 l 451 694 l 553 694 l 553 67 q 554 44 553 54 q 558 28 556 34 q 564 10 559 22 q 571 -12 568 -2 l 473 -43 q 466 -21 471 -34 q 459 0 462 -7 q 454 18 457 7 q 451 41 452 29 z "},"ν":{"ha":625,"x_min":68,"x_max":558,"o":"m 275 -17 l 68 694 l 174 694 l 313 216 l 452 694 l 558 694 l 351 -17 l 275 -17 z "},"ξ":{"ha":625,"x_min":73,"x_max":553,"o":"m 311 -149 q 409 -122 366 -146 q 451 -81 451 -98 l 451 -63 q 407 -32 451 -47 q 332 -17 362 -17 l 307 -17 q 135 44 198 -17 q 73 203 73 105 l 73 215 q 93 292 73 253 q 149 361 113 332 q 92 432 112 391 q 73 518 73 473 q 80 582 73 553 q 102 630 87 610 q 132 665 117 650 q 173 691 148 680 q 216 708 198 702 q 263 722 235 714 q 152 808 205 753 l 225 879 q 422 781 312 787 l 475 779 l 475 708 l 451 690 q 376 649 418 665 q 300 626 333 633 q 237 609 267 619 q 191 577 207 599 q 174 518 174 555 q 208 445 174 477 q 309 412 242 412 l 439 412 l 439 311 l 309 311 q 245 300 273 311 q 203 273 217 289 q 181 241 189 256 q 174 215 174 227 l 174 203 q 205 118 174 151 q 307 85 236 85 l 332 85 q 361 82 341 85 q 415 71 380 80 q 479 47 450 62 q 531 4 509 33 q 553 -60 553 -24 l 553 -81 q 483 -196 553 -146 q 311 -250 414 -245 l 311 -149 z "},"ο":{"ha":625,"x_min":66,"x_max":559,"o":"m 559 381 l 559 319 q 544 179 559 240 q 504 81 528 117 q 447 22 479 45 q 384 -9 414 -1 q 323 -17 354 -17 l 299 -17 q 125 77 185 -17 q 66 319 66 170 l 66 380 q 79 506 66 448 q 119 610 92 564 q 192 684 146 657 q 298 711 238 711 l 324 711 q 431 684 385 711 q 504 612 477 658 q 546 507 532 566 q 559 381 559 449 m 324 609 l 298 609 q 234 588 260 609 q 193 532 207 568 q 174 460 180 497 q 168 380 168 422 l 168 319 q 174 238 168 277 q 194 164 180 200 q 235 106 208 127 q 299 85 262 85 l 323 85 q 378 99 354 85 q 417 135 402 113 q 441 189 432 158 q 454 252 450 220 q 458 319 458 283 l 458 381 q 454 445 458 414 q 441 506 451 475 q 417 559 432 536 q 379 595 403 581 q 324 609 355 609 z "},"π":{"ha":625,"x_min":61,"x_max":564,"o":"m 61 671 q 198 694 117 694 l 427 694 q 564 733 528 694 l 564 615 q 492 597 532 602 l 492 114 q 518 0 492 54 q 408 0 518 0 q 390 114 390 56 l 390 593 l 235 593 l 235 114 q 214 0 235 62 q 104 0 214 0 q 134 114 134 58 l 134 587 q 61 555 90 579 l 61 671 z "},"ρ":{"ha":625,"x_min":73,"x_max":553,"o":"m 451 290 l 451 405 q 412 553 451 496 q 319 610 374 610 l 307 610 q 241 592 269 610 q 200 543 214 574 q 180 478 186 512 q 174 405 174 444 l 174 290 q 180 217 174 250 q 200 152 186 183 q 241 103 214 121 q 307 85 269 85 l 319 85 q 384 103 357 85 q 425 152 411 121 q 445 217 439 183 q 451 290 451 250 m 319 -17 l 307 -17 q 174 25 229 -17 l 174 -261 l 73 -261 l 73 405 q 134 628 73 545 q 307 711 195 711 l 319 711 q 486 625 419 711 q 553 405 553 538 l 553 290 q 528 134 553 201 q 449 24 503 66 q 319 -17 395 -17 z "},"ς":{"ha":625,"x_min":73,"x_max":553,"o":"m 451 -62 q 441 -46 451 -56 q 399 -28 431 -37 q 319 -17 367 -18 l 307 -17 q 139 69 206 -17 q 73 290 73 155 l 73 405 q 157 623 73 536 q 376 709 241 709 q 521 681 446 709 l 549 671 l 513 576 l 486 586 q 376 608 427 608 q 229 551 283 608 q 174 405 174 494 l 174 290 q 213 141 174 198 q 307 85 252 85 l 319 85 q 415 73 373 83 q 483 47 457 62 q 524 13 508 33 q 547 -25 541 -7 q 553 -62 553 -43 l 553 -75 q 491 -200 553 -149 q 311 -250 430 -250 l 311 -149 q 358 -145 335 -149 q 402 -134 380 -142 q 438 -111 425 -126 q 451 -75 451 -96 l 451 -62 z "},"σ":{"ha":625,"x_min":66,"x_max":598,"o":"m 546 381 l 546 319 q 538 211 546 260 q 516 129 530 163 q 484 68 503 94 q 445 26 465 42 q 402 0 425 10 q 358 -13 378 -9 q 316 -17 338 -17 l 292 -17 q 233 -9 262 -17 q 173 21 205 -1 q 119 80 142 44 q 81 177 96 115 q 66 319 66 239 l 66 380 q 81 520 66 459 q 119 616 96 581 q 173 673 142 651 q 233 703 204 696 q 291 711 261 711 l 317 711 q 423 683 376 711 l 598 684 l 598 582 l 511 582 q 546 381 546 504 m 317 609 l 291 609 q 230 589 256 609 q 192 535 205 570 q 173 463 179 501 q 168 380 168 425 l 168 319 q 173 235 168 274 q 192 161 179 196 q 231 105 205 125 q 292 85 256 85 l 316 85 q 444 319 444 85 l 444 381 q 438 464 444 427 q 419 536 433 502 q 380 590 406 570 q 317 609 354 609 z "},"τ":{"ha":625,"x_min":61,"x_max":564,"o":"m 61 656 q 198 694 123 694 l 427 694 q 507 724 470 694 q 564 791 545 754 l 564 640 q 427 593 500 593 l 363 593 l 363 243 q 308 0 363 119 l 191 0 q 241 110 221 45 q 262 243 262 175 l 262 593 l 198 593 q 117 571 153 593 q 61 518 81 549 l 61 656 z "},"υ":{"ha":625,"x_min":73,"x_max":559,"o":"m 559 348 q 551 230 559 283 q 528 139 543 176 q 493 73 514 102 q 451 28 473 45 q 405 1 430 12 q 357 -13 379 -9 q 313 -17 336 -17 q 136 72 199 -17 q 73 348 73 160 l 73 694 l 174 694 l 174 348 q 210 146 174 208 q 313 85 245 85 q 458 348 458 85 q 429 552 458 494 q 333 609 399 609 l 333 711 q 415 697 379 711 q 476 659 452 684 q 517 602 500 634 q 543 527 534 570 q 556 442 552 484 q 559 348 559 399 z "},"φ":{"ha":625,"x_min":39,"x_max":587,"o":"m 410 609 q 375 574 387 609 q 363 498 363 539 l 363 93 q 422 133 397 104 q 460 199 448 161 q 479 273 473 236 q 485 348 485 309 q 410 609 485 609 m 262 498 q 299 656 262 601 q 410 711 336 711 q 468 702 443 711 q 516 668 494 692 q 554 604 539 644 q 578 499 569 564 q 587 348 587 435 q 526 104 587 200 q 363 -12 466 7 l 363 -261 l 262 -261 l 262 -12 q 99 104 159 7 q 39 348 39 200 l 39 660 l 140 660 l 140 348 q 146 273 140 310 q 165 199 152 236 q 203 133 178 161 q 262 93 228 104 l 262 498 z "},"χ":{"ha":625,"x_min":60,"x_max":576,"o":"m 83 -261 l 256 209 l 217 368 q 171 509 199 440 q 119 610 142 578 l 60 694 l 184 694 l 201 671 q 269 538 235 624 q 319 380 302 452 l 434 694 l 542 694 l 362 204 l 383 118 q 438 -60 406 24 q 499 -176 471 -144 l 576 -261 l 440 -261 l 423 -243 q 300 35 358 -170 l 191 -261 l 83 -261 z "},"ψ":{"ha":625,"x_min":39,"x_max":587,"o":"m 262 711 l 363 711 l 363 94 q 452 184 420 117 q 485 348 485 252 l 485 660 l 587 660 l 587 348 q 526 108 587 206 q 363 -12 465 9 l 363 -261 l 262 -261 l 262 -12 q 99 104 159 7 q 39 348 39 200 l 39 660 l 140 660 l 140 348 q 146 273 140 310 q 165 199 152 236 q 203 133 178 161 q 262 93 228 104 l 262 711 z "},"ω":{"ha":625,"x_min":45,"x_max":580,"o":"m 195 -17 q 146 -5 171 -17 q 98 34 122 7 q 60 111 75 60 q 45 228 45 161 l 45 498 q 47 565 45 540 q 59 626 49 589 q 88 690 68 662 l 92 694 l 213 694 l 172 633 q 152 581 157 610 q 147 498 147 551 l 147 228 q 155 147 147 181 q 174 99 163 113 q 195 85 184 85 l 202 85 q 245 101 229 85 q 262 146 262 117 l 262 496 l 363 496 l 363 140 q 365 122 363 129 q 371 105 366 115 q 388 90 376 95 q 420 85 401 85 l 427 85 q 463 131 448 85 q 478 229 478 176 l 478 498 q 452 634 478 595 l 412 694 l 535 694 l 536 692 q 567 626 557 665 q 578 563 577 587 q 580 498 580 538 l 580 229 q 573 140 580 179 q 556 75 566 100 q 531 32 547 50 q 503 4 516 13 q 474 -10 490 -5 q 448 -16 457 -15 q 427 -17 438 -17 l 420 -17 q 314 17 355 -17 q 202 -17 274 -17 l 195 -17 z "},"ϊ":{"ha":625,"x_min":72,"x_max":554,"o":"m 200 904 q 211 893 200 904 q 222 850 222 882 q 200 796 222 819 q 148 772 178 772 q 94 795 117 772 q 72 850 72 818 q 95 905 72 884 q 146 927 117 927 q 200 904 178 927 m 531 905 q 543 895 531 905 q 554 850 554 884 q 532 795 554 817 q 480 772 509 772 q 427 795 450 772 q 405 850 405 819 q 427 905 405 883 q 480 927 450 927 q 531 905 509 927 m 123 694 l 363 694 l 363 102 l 502 102 l 502 0 l 123 0 l 123 102 l 262 102 l 262 593 l 123 593 l 123 694 z "},"ϋ":{"ha":625,"x_min":71,"x_max":559,"o":"m 200 904 q 211 893 200 904 q 222 850 222 882 q 200 796 222 819 q 147 772 178 772 q 94 795 116 772 q 71 850 71 818 q 94 905 71 884 q 146 927 117 927 q 200 904 178 927 m 531 905 q 542 895 531 905 q 553 850 553 884 q 531 795 553 817 q 479 772 509 772 q 427 795 449 772 q 404 850 404 819 q 427 905 404 883 q 479 927 449 927 q 531 905 508 927 m 559 348 q 551 230 559 283 q 528 139 543 176 q 493 73 514 102 q 451 28 473 45 q 405 1 430 12 q 357 -13 379 -9 q 313 -17 336 -17 q 136 72 199 -17 q 73 348 73 160 l 73 694 l 174 694 l 174 348 q 210 146 174 208 q 313 85 245 85 q 458 348 458 85 q 429 552 458 494 q 333 609 399 609 l 333 711 q 415 697 379 711 q 476 659 452 684 q 517 602 500 634 q 543 527 534 570 q 556 442 552 484 q 559 348 559 399 z "},"ό":{"ha":625,"x_min":66,"x_max":559,"o":"m 262 784 l 167 876 l 342 1060 l 437 968 l 262 784 m 559 381 l 559 319 q 544 179 559 240 q 504 81 528 117 q 447 22 479 45 q 384 -9 414 -1 q 323 -17 354 -17 l 299 -17 q 125 77 185 -17 q 66 319 66 170 l 66 380 q 79 506 66 448 q 119 610 92 564 q 192 684 146 657 q 298 711 238 711 l 324 711 q 431 684 385 711 q 504 612 477 658 q 546 507 532 566 q 559 381 559 449 m 324 609 l 298 609 q 234 588 260 609 q 193 532 207 568 q 174 460 180 497 q 168 380 168 422 l 168 319 q 174 238 168 277 q 194 164 180 200 q 235 106 208 127 q 299 85 262 85 l 323 85 q 378 99 354 85 q 417 135 402 113 q 441 189 432 158 q 454 252 450 220 q 458 319 458 283 l 458 381 q 454 445 458 414 q 441 506 451 475 q 417 559 432 536 q 379 595 403 581 q 324 609 355 609 z "},"ύ":{"ha":625,"x_min":73,"x_max":559,"o":"m 267 781 l 172 872 l 347 1057 l 441 965 l 267 781 m 559 348 q 551 230 559 283 q 528 139 543 176 q 493 73 514 102 q 451 28 473 45 q 405 1 430 12 q 357 -13 379 -9 q 313 -17 336 -17 q 136 72 199 -17 q 73 348 73 160 l 73 694 l 174 694 l 174 348 q 210 146 174 208 q 313 85 245 85 q 458 348 458 85 q 429 552 458 494 q 333 609 399 609 l 333 711 q 415 697 379 711 q 476 659 452 684 q 517 602 500 634 q 543 527 534 570 q 556 442 552 484 q 559 348 559 399 z "},"ώ":{"ha":625,"x_min":45,"x_max":580,"o":"m 269 787 l 174 878 l 349 1063 l 444 971 l 269 787 m 195 -17 q 146 -5 171 -17 q 98 34 122 7 q 60 111 75 60 q 45 228 45 161 l 45 498 q 47 565 45 540 q 59 626 49 589 q 88 690 68 662 l 92 694 l 213 694 l 172 633 q 152 581 157 610 q 147 498 147 551 l 147 228 q 155 147 147 181 q 174 99 163 113 q 195 85 184 85 l 202 85 q 245 101 229 85 q 262 146 262 117 l 262 496 l 363 496 l 363 140 q 365 122 363 129 q 371 105 366 115 q 388 90 376 95 q 420 85 401 85 l 427 85 q 463 131 448 85 q 478 229 478 176 l 478 498 q 452 634 478 595 l 412 694 l 535 694 l 536 692 q 567 626 557 665 q 578 563 577 587 q 580 498 580 538 l 580 229 q 573 140 580 179 q 556 75 566 100 q 531 32 547 50 q 503 4 516 13 q 474 -10 490 -5 q 448 -16 457 -15 q 427 -17 438 -17 l 420 -17 q 314 17 355 -17 q 202 -17 274 -17 l 195 -17 z "},"Ϝ":{"ha":625,"x_min":73,"x_max":564,"o":"m 174 483 l 174 52 l 73 52 l 73 949 l 564 949 l 564 848 l 174 848 l 174 585 l 502 585 l 502 483 l 174 483 z "},"ϲ":{"ha":625,"x_min":73,"x_max":553,"o":"m 451 -62 q 441 -46 451 -56 q 399 -28 431 -37 q 319 -17 367 -18 l 307 -17 q 139 69 206 -17 q 73 290 73 155 l 73 405 q 157 623 73 536 q 376 709 241 709 q 521 681 446 709 l 549 671 l 513 576 l 486 586 q 376 608 427 608 q 229 551 283 608 q 174 405 174 494 l 174 290 q 213 141 174 198 q 307 85 252 85 l 319 85 q 415 73 373 83 q 483 47 457 62 q 524 13 508 33 q 547 -25 541 -7 q 553 -62 553 -43 l 553 -75 q 491 -200 553 -149 q 311 -250 430 -250 l 311 -149 q 358 -145 335 -149 q 402 -134 380 -142 q 438 -111 425 -126 q 451 -75 451 -96 l 451 -62 z "},"ϳ":{"ha":625,"x_min":147,"x_max":520,"o":"m 384 823 q 373 835 384 823 q 361 880 361 846 q 384 936 361 913 q 440 959 407 959 q 497 936 473 959 q 520 880 520 913 q 497 823 520 846 q 440 800 473 800 q 384 823 407 800 m 323 -149 q 377 -130 357 -149 q 397 -74 397 -111 l 397 593 l 181 593 l 181 694 l 498 694 l 498 -74 q 449 -202 498 -153 q 323 -250 399 -250 q 199 -198 250 -250 q 147 -75 147 -145 l 249 -75 q 271 -126 249 -103 q 323 -149 293 -149 z "},"Ѐ":{"ha":625,"x_min":73,"x_max":564,"o":"m 439 1029 l 344 937 l 169 1122 l 264 1213 l 439 1029 z "},"Ё":{"ha":625,"x_min":71,"x_max":564,"o":"m 200 1132 q 211 1121 200 1132 q 222 1078 222 1109 q 200 1024 222 1047 q 147 1000 178 1000 q 94 1023 116 1000 q 71 1078 71 1046 q 94 1133 71 1112 q 146 1155 117 1155 q 200 1132 178 1155 m 531 1133 q 542 1122 531 1133 q 553 1078 553 1112 q 531 1023 553 1045 q 479 1000 509 1000 q 427 1023 449 1000 q 404 1078 404 1046 q 427 1133 404 1111 q 479 1155 449 1155 q 531 1133 508 1155 z "},"Ђ":{"ha":625,"x_min":47,"x_max":573,"o":"m 424 102 q 445 111 435 102 q 463 149 454 119 q 471 228 471 179 l 471 488 q 455 547 471 532 q 407 562 439 562 q 296 283 296 562 l 296 0 l 195 0 l 195 848 l 47 848 l 47 949 l 503 949 l 503 848 l 296 848 l 296 609 q 395 664 345 664 l 407 664 q 489 648 454 664 q 540 604 523 631 q 565 548 557 577 q 573 488 573 519 l 573 228 q 563 131 573 173 q 538 65 553 89 q 502 25 523 41 q 463 5 481 10 q 424 0 444 0 l 412 0 l 412 102 l 424 102 z "},"Ѓ":{"ha":625,"x_min":73,"x_max":564,"o":"m 323 938 l 228 1029 l 403 1214 l 498 1122 l 323 938 m 73 0 l 73 949 l 564 949 l 564 847 l 174 847 l 174 0 l 73 0 z "},"Є":{"ha":625,"x_min":66,"x_max":536,"o":"m 313 -17 q 243 -5 275 -17 q 188 28 211 7 q 145 78 164 48 q 114 140 126 109 q 92 212 101 172 q 78 287 83 252 q 70 363 73 321 q 66 433 67 404 q 66 496 66 463 q 68 588 66 547 q 76 680 70 629 q 93 769 82 730 q 122 846 103 808 q 166 910 141 884 q 229 951 192 935 q 313 966 267 966 q 352 963 333 966 q 399 947 370 960 q 451 911 428 933 q 498 845 475 888 q 536 742 522 801 l 437 718 q 412 788 427 758 q 386 831 398 817 q 357 854 373 846 q 332 863 340 862 q 313 865 323 865 q 209 794 243 865 q 169 564 174 723 l 380 563 l 380 462 l 168 462 q 313 85 174 85 q 331 86 323 85 q 355 95 340 87 q 383 116 371 102 q 410 157 395 130 q 434 223 424 185 l 532 197 q 505 122 521 156 q 473 67 490 89 q 438 29 457 45 q 402 4 418 13 q 368 -9 386 -4 q 337 -16 349 -14 q 313 -17 325 -17 z "},"Ѕ":{"ha":625,"x_min":43,"x_max":566,"o":"m 307 85 l 319 85 q 420 128 376 85 q 465 229 465 171 l 465 249 q 440 353 465 300 q 372 427 415 406 l 194 517 q 107 596 137 547 q 77 701 77 646 l 77 721 q 141 894 77 822 q 304 966 205 966 l 322 966 q 468 928 406 966 q 553 813 530 889 q 564 721 564 780 l 462 721 q 456 783 462 762 q 322 865 431 865 l 304 865 q 214 823 249 865 q 178 721 178 781 l 178 701 q 192 652 178 677 q 240 608 205 626 l 419 517 q 528 403 489 481 q 566 249 566 326 l 566 229 q 492 56 566 128 q 319 -17 417 -17 l 307 -17 q 180 19 241 -17 q 81 116 119 56 q 43 242 43 176 l 145 242 q 197 134 145 184 q 307 85 248 85 z "},"І":{"ha":625,"x_min":61,"x_max":564,"o":"m 564 949 l 564 848 l 363 848 l 363 102 l 564 102 l 564 0 l 61 0 l 61 102 l 262 102 l 262 848 l 61 848 l 61 949 l 564 949 z "},"Ї":{"ha":625,"x_min":61,"x_max":564,"o":"m 200 1134 q 211 1122 200 1134 q 222 1080 222 1111 q 200 1025 222 1048 q 148 1002 178 1002 q 94 1024 117 1002 q 72 1080 72 1047 q 95 1135 72 1113 q 146 1156 117 1156 q 200 1134 178 1156 m 531 1135 q 543 1124 531 1135 q 554 1080 554 1113 q 532 1024 554 1046 q 480 1002 509 1002 q 427 1025 450 1002 q 405 1080 405 1048 q 427 1134 405 1112 q 480 1156 450 1156 q 531 1135 509 1156 m 564 949 l 564 848 l 363 848 l 363 102 l 564 102 l 564 0 l 61 0 l 61 102 l 262 102 l 262 848 l 61 848 l 61 949 l 564 949 z "},"Ј":{"ha":625,"x_min":51,"x_max":578,"o":"m 578 949 l 578 848 l 461 848 l 461 229 q 405 50 461 117 q 258 -17 349 -17 l 245 -17 q 178 -9 208 -17 q 127 14 147 -1 q 93 43 107 28 q 70 77 79 58 q 57 107 61 96 q 51 130 54 117 l 150 153 q 180 101 158 117 q 245 85 202 85 l 258 85 q 308 98 287 85 q 339 133 329 111 q 355 179 350 155 q 359 229 359 202 l 359 848 l 216 848 l 216 949 l 578 949 z "},"Љ":{"ha":625,"x_min":35,"x_max":600,"o":"m 100 733 q 112 805 102 768 q 137 874 121 841 q 175 928 152 907 q 226 949 199 949 l 371 949 l 371 591 q 541 527 481 590 q 600 349 600 463 l 600 242 q 594 172 600 205 q 572 107 588 139 q 530 52 555 75 q 462 14 504 28 q 366 0 420 0 l 269 0 l 269 848 l 241 848 q 201 725 208 805 l 138 0 l 35 0 l 100 733 m 371 490 l 371 102 q 470 137 441 102 q 498 242 498 172 l 498 349 q 470 451 498 413 q 371 490 441 488 z "},"Њ":{"ha":625,"x_min":39,"x_max":600,"o":"m 371 490 l 371 102 q 470 138 441 102 q 498 243 498 173 l 498 351 q 470 451 498 414 q 371 490 442 488 m 140 0 l 39 0 l 39 949 l 141 949 l 141 591 l 269 591 l 269 949 l 371 949 l 371 591 q 541 527 481 590 q 600 351 600 464 l 600 243 q 594 173 600 206 q 572 108 588 140 q 530 52 555 75 q 462 14 504 28 q 366 0 420 0 l 269 0 l 269 490 l 141 490 l 140 0 z "},"Ћ":{"ha":625,"x_min":47,"x_max":573,"o":"m 471 488 q 459 545 471 527 q 407 562 448 562 l 396 562 q 378 554 389 562 q 353 524 368 545 q 326 472 338 503 q 305 392 313 442 q 296 283 296 342 l 296 0 l 195 0 l 195 848 l 47 848 l 47 949 l 503 949 l 503 848 l 296 848 l 296 614 q 347 653 319 643 q 395 664 374 664 l 407 664 q 475 654 446 664 q 523 627 505 644 q 553 587 541 610 q 569 539 564 564 q 573 488 573 515 l 573 0 l 471 0 l 471 488 z "},"Ќ":{"ha":625,"x_min":73,"x_max":575,"o":"m 240 938 l 145 1029 l 320 1214 l 415 1122 l 240 938 z "},"Ѝ":{"ha":625,"x_min":73,"x_max":553,"o":"m 482 1029 l 387 938 l 212 1122 l 307 1214 l 482 1029 m 73 0 l 73 949 l 174 949 l 174 281 l 461 949 l 553 949 l 553 0 l 451 0 l 451 668 l 165 0 l 73 0 z "},"Ў":{"ha":625,"x_min":62,"x_max":568,"o":"m 325 994 q 217 1019 268 994 q 130 1088 167 1044 l 208 1154 q 325 1096 256 1096 q 446 1154 396 1096 l 523 1088 q 434 1019 486 1044 q 325 994 382 994 m 374 133 q 367 107 371 119 q 350 70 363 95 q 320 28 337 45 q 273 -3 303 11 q 204 -17 242 -17 l 184 -17 q 127 -7 152 -17 l 104 2 l 142 97 l 161 90 q 184 85 175 85 l 203 85 q 252 102 237 85 q 275 157 266 119 l 309 301 l 62 949 l 172 949 l 351 477 l 464 949 l 568 949 l 374 133 z "},"Џ":{"ha":625,"x_min":73,"x_max":553,"o":"m 174 102 l 451 102 l 451 949 l 553 949 l 553 0 l 363 0 l 363 -261 l 262 -261 l 262 0 l 73 0 l 73 949 l 174 949 l 174 102 z "},"А":{"ha":625,"x_min":60,"x_max":565,"o":"m 223 271 l 402 271 l 313 681 l 223 271 m 163 0 l 60 0 l 271 966 l 355 966 l 565 0 l 461 0 l 425 169 l 201 169 l 163 0 z "},"Б":{"ha":625,"x_min":73,"x_max":553,"o":"m 174 483 l 174 85 l 319 85 q 421 119 392 85 q 451 225 451 154 l 451 342 q 422 445 451 408 q 319 483 393 483 l 174 483 m 319 585 q 492 521 431 585 q 553 342 553 457 l 553 225 q 547 155 553 188 q 524 90 541 122 q 482 35 508 58 q 415 -3 456 12 q 319 -17 373 -17 l 73 -17 l 73 949 l 503 949 l 503 848 l 174 848 l 174 585 l 319 585 z "},"В":{"ha":625,"x_min":73,"x_max":553,"o":"m 285 949 q 325 949 309 949 q 368 944 340 948 q 413 932 395 940 q 453 910 431 925 q 488 873 475 895 q 510 818 500 852 q 519 743 519 785 l 519 694 q 469 541 519 593 q 553 336 553 478 l 553 235 q 494 63 553 125 q 319 0 435 0 l 73 0 l 73 949 l 285 949 m 451 235 l 451 336 q 443 410 451 380 q 417 455 435 439 q 376 477 399 471 q 319 483 353 483 l 174 483 l 174 102 l 319 102 q 420 134 390 102 q 451 235 451 166 m 417 743 q 391 829 417 810 q 285 848 366 848 l 174 848 l 174 585 l 285 585 q 391 608 364 585 q 417 694 417 631 l 417 743 z "},"Г":{"ha":625,"x_min":73,"x_max":564,"o":"m 73 0 l 73 949 l 564 949 l 564 847 l 174 847 l 174 0 l 73 0 z "},"Д":{"ha":625,"x_min":32,"x_max":593,"o":"m 191 663 q 211 732 195 693 q 251 814 226 771 q 315 895 276 857 q 399 949 354 932 l 539 949 l 539 102 l 593 102 l 593 -29 l 570 -110 l 492 -110 l 492 0 l 134 0 l 134 -110 l 58 -110 l 32 -23 l 32 102 l 100 102 l 191 663 m 203 102 l 437 102 l 437 848 l 419 848 q 339 762 378 827 q 291 647 299 698 l 203 102 z "},"Е":{"ha":625,"x_min":73,"x_max":564,"o":"m 174 483 l 174 102 l 564 102 l 564 0 l 73 0 l 73 949 l 564 949 l 564 848 l 174 848 l 174 585 l 502 585 l 502 483 l 174 483 z "},"Ж":{"ha":625,"x_min":25,"x_max":600,"o":"m 262 505 l 262 916 l 363 916 l 363 505 l 492 949 l 597 949 l 460 473 l 600 0 l 494 0 l 408 292 l 363 139 l 363 0 l 262 0 l 262 139 l 218 292 l 131 0 l 25 0 l 165 474 l 28 949 l 134 949 l 262 505 z "},"З":{"ha":625,"x_min":59,"x_max":553,"o":"m 293 966 l 319 966 q 466 901 409 966 q 522 734 522 835 l 522 708 q 505 621 522 665 q 458 549 488 576 q 553 296 553 465 l 553 283 q 491 65 553 146 q 319 -17 430 -17 l 293 -17 q 184 12 237 -17 q 95 99 131 41 q 59 229 59 157 l 161 229 q 183 150 161 184 q 235 100 205 115 q 293 85 264 85 l 319 85 q 416 134 380 85 q 451 283 451 183 l 451 296 q 445 368 451 334 q 425 431 439 401 q 384 480 411 462 q 319 498 357 498 l 205 498 l 205 600 l 319 600 q 392 634 363 600 q 420 708 420 669 l 420 734 q 392 829 420 793 q 319 865 364 865 l 293 865 q 217 845 250 865 q 170 789 183 825 l 75 825 q 161 930 100 893 q 293 966 222 966 z "},"И":{"ha":625,"x_min":73,"x_max":553,"o":"m 73 0 l 73 949 l 174 949 l 174 281 l 461 949 l 553 949 l 553 0 l 451 0 l 451 668 l 165 0 l 73 0 z "},"Й":{"ha":625,"x_min":73,"x_max":553,"o":"m 323 995 q 215 1020 266 995 q 128 1089 165 1045 l 206 1154 q 323 1097 254 1097 q 444 1155 394 1097 l 521 1089 q 432 1020 484 1045 q 323 995 380 995 m 73 0 l 73 949 l 174 949 l 174 281 l 461 949 l 553 949 l 553 0 l 451 0 l 451 668 l 165 0 l 73 0 z "},"К":{"ha":625,"x_min":73,"x_max":575,"o":"m 73 0 l 73 949 l 175 949 l 175 510 l 444 949 l 564 949 l 315 545 l 575 0 l 462 0 l 252 441 l 175 316 l 175 0 l 73 0 z "},"Л":{"ha":625,"x_min":45,"x_max":553,"o":"m 184 666 q 224 778 196 722 q 298 881 252 833 q 399 949 345 928 l 553 949 l 553 0 l 451 0 l 451 848 l 419 848 q 337 768 377 827 q 283 644 297 709 l 149 0 l 45 0 l 184 666 z "},"М":{"ha":625,"x_min":18,"x_max":608,"o":"m 18 0 l 86 949 l 190 949 l 313 451 l 435 949 l 539 949 l 608 0 l 505 0 l 460 626 l 341 143 l 284 143 l 165 626 l 120 0 l 18 0 z "},"Н":{"ha":625,"x_min":73,"x_max":553,"o":"m 174 0 l 73 0 l 73 949 l 174 949 l 174 547 l 451 547 l 451 949 l 553 949 l 553 0 l 451 0 l 451 446 l 174 446 l 174 0 z "},"О":{"ha":625,"x_min":66,"x_max":559,"o":"m 559 519 l 559 472 q 543 259 559 351 q 503 117 527 168 q 444 34 478 66 q 380 -7 410 3 q 317 -17 350 -17 l 309 -17 q 246 -7 276 -17 q 182 34 216 2 q 123 116 147 65 q 82 259 98 168 q 66 472 66 351 l 66 517 q 309 966 66 966 l 317 966 q 559 519 559 966 m 317 865 l 309 865 q 202 780 237 865 q 168 517 168 695 l 168 472 q 170 376 168 422 q 182 275 173 330 q 206 179 191 220 q 247 112 220 139 q 309 85 274 85 l 317 85 q 379 112 352 85 q 420 180 406 140 q 444 275 435 220 q 455 376 452 330 q 458 472 458 422 l 458 519 q 423 780 458 696 q 317 865 389 865 z "},"П":{"ha":625,"x_min":73,"x_max":553,"o":"m 73 0 l 73 949 l 553 949 l 553 0 l 451 0 l 451 848 l 174 848 l 174 0 l 73 0 z "},"Р":{"ha":625,"x_min":73,"x_max":553,"o":"m 174 435 l 174 0 l 73 0 l 73 949 l 319 949 q 412 939 372 949 q 485 904 452 929 q 535 833 518 880 q 553 721 553 787 l 553 659 q 542 576 553 614 q 506 506 531 538 q 434 454 481 473 q 319 435 386 435 l 174 435 m 319 537 q 422 565 393 537 q 451 659 451 593 l 451 721 q 424 822 451 795 q 319 848 396 848 l 174 848 l 174 537 l 319 537 z "},"С":{"ha":625,"x_min":66,"x_max":553,"o":"m 330 -17 l 309 -17 q 246 -7 276 -17 q 182 34 216 2 q 123 116 147 65 q 82 259 98 168 q 66 472 66 351 l 66 517 q 309 966 66 966 l 330 966 q 398 956 367 966 q 451 930 430 945 q 491 891 473 915 q 518 849 509 867 q 537 805 528 831 q 548 769 545 779 q 553 743 550 759 l 454 722 q 432 795 446 766 q 401 839 418 825 q 367 859 384 854 q 330 865 351 865 l 309 865 q 202 780 237 865 q 168 517 168 695 l 168 472 q 170 376 168 422 q 182 275 173 330 q 206 179 191 220 q 247 112 220 139 q 309 85 274 85 l 330 85 q 350 86 341 85 q 374 96 359 88 q 401 118 389 104 q 426 159 413 132 q 448 225 439 187 l 547 202 q 510 102 533 144 q 465 37 488 59 q 415 2 443 15 q 369 -14 387 -11 q 330 -17 350 -17 z "},"Т":{"ha":625,"x_min":47,"x_max":578,"o":"m 578 949 l 578 848 l 363 848 l 363 0 l 262 0 l 262 848 l 47 848 l 47 949 l 578 949 z "},"У":{"ha":625,"x_min":62,"x_max":568,"o":"m 374 133 q 367 107 371 119 q 350 70 363 95 q 320 28 337 45 q 273 -3 303 11 q 204 -17 242 -17 l 184 -17 q 127 -7 152 -17 l 104 2 l 142 97 l 161 90 q 184 85 175 85 l 203 85 q 252 102 237 85 q 275 157 266 119 l 309 301 l 62 949 l 172 949 l 351 477 l 464 949 l 568 949 l 374 133 z "},"Ф":{"ha":625,"x_min":37,"x_max":589,"o":"m 262 159 l 262 792 q 170 707 201 775 q 138 511 138 640 l 138 473 q 262 159 138 202 m 363 792 l 363 159 q 426 204 400 172 q 464 283 451 237 q 482 375 477 329 q 488 473 488 420 l 488 511 q 456 708 488 641 q 363 792 425 776 m 363 -17 l 262 -17 l 262 54 q 198 75 228 60 q 138 121 168 90 q 85 197 107 153 q 50 313 64 242 q 37 473 37 384 l 37 511 q 51 661 37 595 q 86 769 64 728 q 138 838 108 810 q 198 879 169 866 q 262 897 228 891 l 262 966 l 363 966 l 363 897 q 427 879 397 891 q 487 839 456 867 q 540 769 518 810 q 575 662 562 728 q 589 511 589 596 l 589 473 q 575 312 589 383 q 540 197 562 241 q 487 121 518 153 q 427 75 456 90 q 363 54 397 60 l 363 -17 z "},"Х":{"ha":625,"x_min":64,"x_max":562,"o":"m 64 0 l 258 475 l 64 949 l 173 949 l 313 608 l 452 949 l 562 949 l 367 475 l 562 0 l 452 0 l 313 341 l 173 0 l 64 0 z "},"Ц":{"ha":625,"x_min":73,"x_max":590,"o":"m 174 102 l 404 102 l 404 949 l 505 949 l 505 102 l 590 102 l 590 41 l 492 -153 l 404 -104 l 454 0 l 73 0 l 73 949 l 174 949 l 174 102 z "},"Ч":{"ha":625,"x_min":73,"x_max":553,"o":"m 553 0 l 451 0 l 451 296 l 307 296 q 135 366 197 296 q 73 552 73 435 l 73 949 l 174 949 l 174 552 q 307 398 174 398 l 451 398 l 451 949 l 553 949 l 553 0 z "},"Ш":{"ha":625,"x_min":39,"x_max":587,"o":"m 363 102 l 485 102 l 485 949 l 587 949 l 587 0 l 39 0 l 39 949 l 140 949 l 140 102 l 262 102 l 262 803 l 363 803 l 363 102 z "},"Щ":{"ha":625,"x_min":39,"x_max":610,"o":"m 488 0 l 39 0 l 39 949 l 140 949 l 140 102 l 245 102 l 245 803 l 347 803 l 347 102 l 451 102 l 451 949 l 553 949 l 553 101 l 610 101 l 610 12 l 511 -155 l 425 -101 l 488 0 z "},"Ъ":{"ha":625,"x_min":41,"x_max":553,"o":"m 359 557 q 499 491 446 557 q 553 315 553 425 l 553 242 q 498 66 553 132 q 359 0 443 0 l 174 0 l 174 834 l 138 834 l 79 650 l 41 650 l 41 949 l 276 949 l 276 557 l 359 557 m 276 456 l 276 102 l 359 102 q 405 115 386 102 q 433 149 423 127 q 447 193 443 170 q 451 242 451 216 l 451 315 q 426 418 451 380 q 359 456 401 456 l 276 456 z "},"Ы":{"ha":625,"x_min":52,"x_max":573,"o":"m 154 591 q 323 527 264 590 q 383 349 383 463 l 383 242 q 377 172 383 205 q 355 107 371 139 q 313 52 338 75 q 245 14 287 28 q 149 0 203 0 l 52 0 l 52 949 l 154 949 l 154 591 m 154 490 l 154 102 q 253 137 224 102 q 281 242 281 172 l 281 349 q 253 451 281 413 q 154 490 224 488 m 573 0 l 471 0 l 471 949 l 573 949 l 573 0 z "},"Ь":{"ha":625,"x_min":73,"x_max":553,"o":"m 174 456 l 174 102 l 319 102 q 421 136 392 102 q 451 242 451 171 l 451 315 q 422 418 451 380 q 319 456 393 456 l 174 456 m 319 557 q 492 494 431 557 q 553 315 553 430 l 553 242 q 547 172 553 205 q 524 107 541 139 q 482 52 508 75 q 415 14 456 28 q 319 0 373 0 l 73 0 l 73 949 l 174 949 l 174 557 l 319 557 z "},"Э":{"ha":625,"x_min":90,"x_max":559,"o":"m 458 563 q 417 793 452 722 q 313 865 382 865 q 287 861 298 865 q 255 845 275 858 q 218 800 236 833 q 189 716 201 767 l 90 741 q 127 844 104 800 q 174 910 151 888 q 226 947 197 933 q 273 963 254 960 q 313 966 292 966 q 396 951 359 966 q 459 910 433 935 q 503 846 484 884 q 533 768 522 807 q 549 679 543 729 q 557 588 555 629 q 559 496 559 546 q 559 433 559 463 q 555 363 558 404 q 547 287 552 321 q 533 212 543 252 q 512 140 524 172 q 480 78 499 109 q 438 28 461 48 q 382 -5 414 7 q 313 -17 351 -17 q 277 -15 294 -17 q 231 0 260 -12 q 179 35 203 13 q 132 99 156 56 q 92 201 107 142 l 191 227 q 215 159 201 188 q 242 117 229 131 q 270 95 254 103 q 294 86 285 87 q 313 85 302 85 q 458 462 452 85 l 245 462 l 245 564 l 458 563 z "},"Ю":{"ha":625,"x_min":39,"x_max":587,"o":"m 243 526 q 245 621 243 581 q 251 710 246 661 q 262 793 255 759 q 282 862 269 827 q 313 919 295 897 q 356 953 330 940 q 414 966 382 966 q 479 951 451 966 q 525 905 507 936 q 556 835 544 874 q 575 740 569 796 q 584 627 582 684 q 587 496 587 571 q 414 -17 587 -17 q 322 24 358 -17 q 267 163 287 65 q 243 424 246 260 l 140 424 l 140 0 l 39 0 l 39 949 l 140 949 l 140 526 l 243 526 m 485 496 q 414 865 485 865 q 361 759 378 865 q 344 496 344 652 q 361 197 344 309 q 414 85 379 85 q 449 123 434 85 q 471 224 463 161 q 481 356 478 288 q 485 496 485 423 z "},"Я":{"ha":625,"x_min":43,"x_max":553,"o":"m 451 435 l 347 435 l 154 0 l 43 0 l 238 441 q 73 660 73 473 l 73 721 q 90 833 73 787 q 140 904 107 880 q 214 939 174 929 q 307 949 254 949 l 553 949 l 553 0 l 451 0 l 451 435 m 451 537 l 451 848 l 307 848 q 202 822 229 848 q 174 721 174 795 l 174 660 q 203 565 174 593 q 307 537 232 537 l 451 537 z "},"а":{"ha":625,"x_min":73,"x_max":553,"o":"m 307 330 q 245 318 273 330 q 204 290 218 307 q 182 257 189 273 q 174 229 174 241 l 174 176 q 208 116 174 146 q 307 85 241 85 l 319 85 q 410 130 369 85 q 451 205 451 175 l 451 330 l 307 330 m 307 711 l 319 711 q 415 699 373 711 q 482 665 456 686 q 524 614 508 644 q 547 554 541 585 q 553 488 553 524 l 553 0 l 451 0 l 451 33 q 319 -17 392 -12 l 307 -17 q 209 0 254 -17 q 134 45 163 17 q 89 106 105 73 q 73 176 73 140 l 73 229 q 89 299 73 263 q 134 364 105 334 q 208 413 163 394 q 307 431 254 431 l 451 431 l 451 488 q 422 582 451 554 q 319 610 393 610 l 307 610 q 224 598 251 610 q 186 559 197 586 l 93 599 q 172 686 118 660 q 307 711 226 711 z "}}}
